<mxfile host="app.diagrams.net" modified="2023-11-07T09:00:09.874Z" agent="Mozilla/5.0 (Macintosh; Intel Mac OS X 10_15_7) AppleWebKit/537.36 (KHTML, like Gecko) Chrome/119.0.0.0 Safari/537.36" etag="lYkJLXdaNfkuqHZrkfZJ" version="22.0.8" type="device">
  <diagram name="Page-1" id="Qc-kB5e73GQy08YsXc6X">
    <mxGraphModel dx="954" dy="529" grid="1" gridSize="10" guides="1" tooltips="1" connect="1" arrows="1" fold="1" page="1" pageScale="1" pageWidth="850" pageHeight="1100" math="0" shadow="0">
      <root>
        <mxCell id="0" />
        <mxCell id="1" parent="0" />
        <mxCell id="HVyeGtr5qmuluz8HAJte-12" value="" style="shape=stencil(lVbLbhsxDPyavRISKYniOU3/I0Cc2qhrB477+vtyu9gk1NaD5qbVciSSw6E4yd3L/uF5N3F6uV7OX3c/D4/X/SSfJubDab+7HK6+muR+krun82X35XL+fnpcvp8fZst59e38Yz7h14LLQtpmFKffy05hMv2783kBHA+ndwCplHMECOVyG9AyiURAopJvAzSTcQR0SgkA0vp7BUin1oBLRi26xJ1qhTf0mKXcSQUAZD3vFZCIEUCpxKCFDNh3pqTBPlEFOepKiQd7AfaW1/je/BHAstXR3kgAyeYJ7zFBuu78E5DThmVWYgNXGPUhhNck3/IpxxtKI0NBlFUqK6AWUiAeS6QWAC1RBoBeyWKaGsNK7ZlSrFTXX0Ol3ajGLFVMhDL16FJNaw+5JZ4Ss1Rc4aD2XJ5DbYgDQPH5DRwBjG/wGGpkOntUOEuDfLzegUd9E3OGcnOeZZQzanleSMzD+QZI80odAvZ+ANqLKekgz0INaeejAK9jHSJIOObty+MKb4CE7ds2twSgZ+/RpURAh2lVkhiDNahOZyGybAwfKiaJr4i38Qpo82cqsuztoIDzNy1VC0zQxr4pGTx/8GceBsD5m3hrJQYMb/LprSij0WLkyxs8gyLdFoQPOwrenA+PU/8B8MXb9PZ0OB6X4e/9/3Ha861lUpT7Pw==);lineShape=1;" parent="1" vertex="1">
          <mxGeometry x="40.28596400925278" y="40.66310989544036" width="12.457209724344807" height="6.0751418297743385" as="geometry" />
        </mxCell>
        <mxCell id="HVyeGtr5qmuluz8HAJte-13" value="" style="shape=stencil(lVjLctswDPwaXzEkQZDEOU3/IzNxGk/TOOOkr78vVJeKCEk7zU2WsRKAXTyoA9+8Pt69HA8pvL5dzl+PP0/3b48H/nRI6fT8eLyc3uzqwLcHvnk4X45fLufvz/fX3y93k+V09e38Y3rCrysuZ2ptQqXw+3qnNAry987nK+Dp9LwACFOsI6BSzfuAwpTTCGAqCKAUwgAQpVL2ATVT4RGQSQIAKLUyAHIjSfuAlinKCEgUgEutkY5ZShZDhG/gkYeUSFDQiTgPgNgoVciDxhFQKAOAJVHdG4QSiCHPz1sAGgBwo9p8DA2Ijy3rLq0Zii8V4jFoZpilFCnpyLQxw/sAS2IdAVIpKgBEL74qncptpimP9lqg9oqnTSsVkFR72kiCtq6UbZpJx4BVqYIM8YrkEHqFb3NAUlcvAA5FyqsA/jW1TfvQ288yQcCfQJFXBAB/gu9fmqHmQv93tselH3wha+xlsZOfNjavpl0iO4Q5/82eQX4sOvb2qE8I5ejtC6gYaysu/8Yg4Lf6CWX5DNBexvwow6aytreIgP/VDw+d7+zF6/Rj0wn4I350WL0ILOC4KmBFPZG0ePuG9Za8PdJDoKY+XqRnq5dVQxRov65HNGWs3l1/sJ0HbAcftbf8uwFgHQz403r3mydMpArqMbIXENdeotsAq++RsalpA8ZMom6GxQRdYiF1C1SfItspEqpulYCSEOkjqNvjEVOkd7R3exTwtGKOHOCW0pjYbZh9C960nzq466F9qG3bV685W7VQDSxm7hyB9DrafoV2Uc4qEtiGrArz6JOtThXoWlfbnKQuk+2sFiru7GG0gbS20Bvz4rBSAKBy93iuTe6Hi20hFb/d1AbTamcZtz612PvB3oFL3DhOfYDu1U5aARrqR+yL0wBoY7TDj6vOlmB55thpWgaNYgirJVnhUcIAST7CA6vfomqB8uZ56M0Akzd4Q17tjaalgHiY15rlYECA1eZbAzy8G3G+HhT2SZNGGdNaWp8V24CPfk/4D4BdvH++eDg9PV2/fiz/95877Nb1Uwnf/gE=);lineShape=1;" parent="1" vertex="1">
          <mxGeometry x="31.27622891933902" y="28.669676480802536" width="32.68929850756706" height="22.974583081451783" as="geometry" />
        </mxCell>
        <mxCell id="HVyeGtr5qmuluz8HAJte-14" value="" style="shape=stencil(nVfLctswDPwaXzEk+MQ5Tf8jM3FqT90447ivvy9UjVwDklZtb7LENcHdJbjcpYf3w9Pbfsfh/Xo5f95/Pz5fD7v0Ycd8fD3sL8erPu3S4y49vJwv+0+X89fX5/H329Mwcnj6cv42/MOPERcjcRhQHH6ObxL1/PvFx3H86fhqx4dixkemnAAgUOkGoDOUBgEt2ooipQABVSxAqFUMqAaQOyUMEDtDqZQ6ZKlbVmuihBZdqVuWWoS0cptkugEKCWApacXJAjrluA7IlbgZQFfteR2gnAhbQKIKWKqNql1DvxW5CGgykXgDCMWyDpBCbGmVCFmSRsHOIAyFk07F7gdJxIBWESrWfJIpoR0XAgVrJl1WBTTpFN0KISoNmEIBwQqhy4K8NmoOoEKgkiqF6gEN8ZopWiHueFhG8ExrmXbhMiBMfegOwACgZuPkaWJAU9cd5pRrEw9rALdqlbrhGbz9MmUEUPs5byTYXZUlccrhhq+fm2MpTo1hTWrXBhTQsZlK8CVFvEnjDADbgMy8lLZ2kOt9KlwUDHDC6apw30hOh4Z3UF9wKzratYDqShKqiKVMPXqAoJJurN8DkDX+FaCHoDsWB1pBSXout7nSQLjCPguoWzOYITMFq4NuWgH21riTLa16LDI4RzlSsyX1jbSRKLvwINDe83RSpjayvAQKdgUtUERnHLGtp+IUGqameJfHChxfrAQbgS/4BrORKANll0BxZNUAarvFRia+sfeXoXuWGLbojLa1qMdBKwq+X/MUH1bEdXaOU7BcdjNly80tra9YrUY3nIEzs+/TOFTMMjAe3vxdBxfTfe/BSxW/zTGRw83Lywp1ir5RYRv8x9VxY7w+/LmnvhxPp/Gae//d32v11XgnTo+/AA==);lineShape=1;" parent="1" vertex="1">
          <mxGeometry x="31.498916206149033" y="45.50985244778997" width="26.81384421182679" height="38.81835465435165" as="geometry" />
        </mxCell>
        <mxCell id="HVyeGtr5qmuluz8HAJte-15" value="" style="shape=stencil(lVfbbtswDP0avxKSqBufu+4/CjRdjGVJkabb+velYdiJaPsEeXOUQ4mXc0ip46eP/cv7rgvu43I+/d79618v+45/dCH0x/3u3F/0q+Pnjp/eTufdr/Pp8/g6/n5/GZDD15/T32GH/6Odo5wGo+C+xgVJxOPKzxF/6I83eB+p5MagzlusGoRI3BoURyVsG3Ck6BqD7KaVVYMYSUJjEIVS3jZIyQbNlRI4ISeq7QmhUuBtg8IkbdBeKNZtg+opxtZAVzww0BBblzwVcIA4StzgHQkom3gbgYO8EKZs8Q5kSGkWk8VHgC/krf9cAF4ravcXlB/NpynAVPN1HTj1t6VpoAo4pAdUaUl3Dx98y2oqKEGVXBtwgpyWTKndP5MDhJOF8DMFkCAJJGLwHvnjiavxP6MCa/7F5EcAXgUTisE7pMhq/WeM1/1bfJgc3PLfW8IFnJ+FYBLK/+zuFQ/zH6kuBHmHP2LwkA+VfDD4ghqK5tO0UByvkHiT/wiGwIC39Y2IbzLJ6cqfiPT4KF7L0/JTR61DhA5TA5wD9rDFFd2vzSg72ONynFryHIKHLiWeUj5rOExRrY9utiLIPDm5fjngaSrOtwldAXNGs27aaGXIC6/XmZanylxGk8zqRvECDqhU20GmTEEOlYU/gqtG3PLuZlStF4EkPmTAax6B0aFCXOAjumPaGg8ZBdLRikWLZ+CPKq1lqV4uEmjVi0mvva8CRiyUrHgkm0fv4Pfx+nG98L/1h8P4Xrj93z4QdGl8XPDzNw==);lineShape=1;" parent="1" vertex="1">
          <mxGeometry x="69.7626251566287" y="34.340905884969516" width="21.946599740537295" height="38.88788750779452" as="geometry" />
        </mxCell>
        <mxCell id="HVyeGtr5qmuluz8HAJte-16" value="" style="shape=stencil(lVdbchpBDDwNvyrNW/PtOPdwlXGgQowLk9ftow01C9Ky7eRvGdSjR0saaZMe3ndPb9tN5Pfz6fh1+3P/fN5t0qdNjPvX3fa0P+vXJj1u0sPL8bT9cjp+f32+/H57miSnr2/HH9MNvy64SilMoMi/LwdMLf89+HwRP+xfb8RDpV6NvFCL6/IxUe9GPmTisA5Iqj9ZQKfUAaBRtoCYqZV1QFYDigGoziTrgMIUrYZUSIBJpVBnA8gBaqhMPVtApQp8qIWa1VAiMeChMeVmAY0E8NAKJQuoSiXQIBpE64PqDMBpUQ2Wh1ap8Dqg8zBgzr1EUgGgU7DJ3RM1QJwCmjWpZ5IGyoGZ2BLRKzHwWlWIdaK3UYJrgGjj2oUyAogv6ekK5HWjkDxAEgCU8fdco9c43EdkKtmraCCwSlRmDwiI60gl+TBF5EQcfeiGiIB8CNQdoMDkUA2ub2gYKgZ0B0hUkQ/Jd2O9QkDfUItD94CMNMwleQtAUWqLEorUEHGyKAjlHhdpER/WDwDdtjINA+ShL3iog/s1gOuu6hUjDTLa+016M+Kh3SmgipyuFJsHdATIi1zq8JWbeukCAFNDE0F8lAquh/8DSPYmicCu0YS65UEC5KEl/7Q3PG1U8QA9KeAdrXkYMAO04oAPZZF8pcLequMJ2yiVAAtIB6BsO5+OJwkwncvopDOAR0ndH+K0udv01hELmZSiH4AiTm8ddF271zGxAh907Mw2+aZBFBAX4ujVN6NuAE4HKpaGCrsSk4gTZ5B47Oe3AocAHv1qZowy2AMWY08a/WlFPNgy01iBlGb/lgcStJT4bNMDRNS47LryFGDMItPwWJt8FuDJKPvHTMWBq3NVXMURq3Vk7L9tdx8ug/pxXSRf9ofDZQ+9/d8vnnp0WVrT4x8=);lineShape=1;" parent="1" vertex="1">
          <mxGeometry x="64.53954949746606" y="40.54268232176105" width="37.07675356875177" height="39.35407588487146" as="geometry" />
        </mxCell>
        <mxCell id="HVyeGtr5qmuluz8HAJte-17" value="" style="shape=stencil(7Vzbkh01EvyaeVVIKl2fgf0PIjDrifXahDEL/D2pmO2e01nnpDAvu0TMmxk6p6WqUlVWlnqe7Juf33//07unHH/+8vnTv979+vzDl/dP9u1Tzs8f37/7/PwF/3qy757smx8/fX73z8+ffvn4w8t///T9enL969+f/rN+w28vuBFyXaAcf3/5gdXQX37yj5fnPzx/vHk+pVASA9oQgBJqvgJKSFkAekjzCojHT+4DRrDrG3IP1gVghhSvACypSEDtV0AM1SSgX62UmjbrDOW66WQhqyUN3sMIVbmhhmmX51toygt2WOR4Hr9AbSAeJr/5/WL9WL7R8nt7/HgL9bqalMMQ20UQF7Z/TOr5SP6Cy0XMlVAogiyYeN7CdCEaxfot9Kt5cAaqWL+xd80OCzxYPx/KdqzwgX3+G1zn8zNM4a/O0VMQTyJ8ZshX+5cWigrnFPp1A2WGIQyENNTaNZ4tRBXQPQwC1DCEi3MK8XqEaw9NAcphkhOAUyGMilMwCr+hiEQHs/IbsAeRtwx7MLaSCStZPrLICYhHNr4PsOPc3nhaRRKqxbgeNYRSFaGNemTXTZcYito0Ctj1DTgMWR3mGsrVD5vTgD1k2nQOUx1n43y0rKSWlI7oP/2QZcJDPpkulqRZI3u6YZFq0/GwyQlAoY5yD/PquJ5DVW8wrjm9HnTmPgA1qTJA+WFFTv+aJcGv5fqGhrwkjmgpnClbk5WwIBVX9kMTZkXkUHi3KLlI6QehO0OjHcHyCEDVDQDFp8q4k5eqstJgPwCQ1KaHS5VFmxUVqDNALgkULzqA2DQSI1EeAJp4Qz055g1AcTAAhrOSIsI1OZKnzwMARmmmSSK8AK4oKjK/AJUB6gABkCn4hqRKSIyDDlDWAEeuWj3oyn1A5R6pdVkfsEXqwrouWXUGuzoOeUkl44a2rTHAxBtWUiFAklaCTYgvIfM1taTuzNokwWruxGGRiv5gxZEonCaJy4h04posKABQbl2sUuwBACq7yFRTJDLsgToBFADFpAGgWCpJ+gGhNonb98PQjwCDGvQqm6X1BhIZTlL3aA8pM0CRdQCoH1vcQPQPy6y06SyZMRyXCwOKDo3uAKqj72j4mwMIKg1A7wxQTWgHDTUGKCYAQHNtZVaxVO70oaqggH9RUYSnm1oSUi95+mTjjwB0pkHWlVKCPYxr8KHhkOcBdZ86lCkVruUHqqJV5lYAqLVEyZJnurBZcQajslLh4OvtKJMPQ4P0pyy73eWH6x5GP2rSIwCR9Yl8rtK9Y/ezShFhbfHq6dllFX21yQ1ARiu4/HXTcxxn8OEeCgO63gNxjTl1yQI1d4CmllQP4nwDUNobAHbNrSki+vQJmpNfMZWrCzejc1PZXQcOwO7IOTOpjgPZmHQKeE5WReM2C4CoS5DRG6quKJFr1piyH0CDTn4Y+gS1U+E6AUlSY1A8aiB6l61iK9zTwG6qgVic8Ot4aOZmdPFQTb6Jwy0lRITGap+JJc6jij3qB1h71ISpTtZnqxZnWnZdU9IAZGNSpIZsRmF1ropNFwineZeiM9ngTAamO0TdRYVilqhV/tEcO+mSMOF8RSJ9TZ44lLREpK9KWjmNT9wSF8Ue5jnP+5PUeGWhzHtQPf7K1W4kWEQSAICJ65RUYFUo6mmylE7mveDLGkANdY0y+F6r7M0RVZlvlQ9SQobM3h6AJl7NdPySkMimdpw5lqjUfgAKAc66+tAP19BAfVBqzloSFZQstUcAqMcfJhvqVZWvVhq64wDFo/BGUUzK051bFAAU6ZvNWalItX9Wt6Qi9aJZWZYeWjQGIDk/qFQ5K1fRofUiAOjEjaiTgJvp9im1eJiV+FLXWgsAszNAvsEp5TvAYHVzt6TBnt5tejLB2pnVpcqd4yYTrF1oTHceNsE32NO78Pa3CTYHqPMEb39EeUmbJNDc/YxNmnEj9l0iq5zud6mystq/S8Z/AUDCxq4+VNcObCpQ5fqwq3GVJ0eriuq8VIhKD9lw3AEUqQEvTzu9SI0HfGgUfRkHACKJ4EumN03jYzCyKKj0Cm/irSUkzSp5Zp70DY9XzeCGVqo7M9MNCcHWZSZr7AgbmnwXvmlmQ8qboPek/6yOQ4QrGgi+1xJlnkGLwvcpklSNkVVIBC4mO/DuGNYaQWvxkQXUIbMAzjwpTGswqYZTnTu/NaPTKoIf7BSRXJuTTpAF1HBqTeTcdSEl3CENkdK3GXSuiZzLZHKEV3gs33RFaY1n4DC0ygL43901EOoyaJtOZi4yG/vQ2BCmnl3NMq2qWShXK60jpUcWRFxnllcd32TmA/AmM/8dZGbju8tT30jqxoUaZU96zk3Nx5CX1dahpm5UX95c411KG13PvxI3yMg8is90J9y1vMtkfOFuM7iMLNwtxVVk49fce1PZiwZ0x/oU1X2b/B+At8n/ndz6v5j864riAZuKkn0XpJdEX23gxG2qojldWnG4VXeJfGv9p1cO73UtUQMoey9dWjnO+GrlGiapN7gDBKJZdV6iJLAylSKunf3Q9eioFSdkN6mtg2oTnUFBUQCQeTqiqwKpS4OFG7lFjdUYMvP1UKQ2Rb5rdA3EkEMRhBqplaul0LduIwWfvmvzdnP4BLzdHPaA/7ebw5HF+Dpl5oOnWXy0QyZ4FHxUgVqT6j3KB0mDaLGVp8tZDc6sYbsvGih7r+ZRfZVxztRPgG4VrblLJFGG9/q2LTNAfnSUDi5/k4xV45cn95awkpJo8+DGD7m1qzd0FgVW/yBSZR7cKeIAqYYaADJr1ZMgbJp4a9GZz9z9aptShgPppNkrfK9uSpq7lmib7yyHE41N1ji7e2NDbXowdSh6KGKdb9IXfcUDC2BWqa9tWXH3izabzu5+UZM3ZyxyeK+b9Cr43BcNS+8Um87uu8ANq8yRszfeoHrR1Pib1zrlkpLTNer5AeZ9td/VdZPfWDeWclahV8SBpw/rI1mVY1iSLnpQ6z7YsyF/f3TtUpF9rh/oRNleOQ/DYkrfc/pH1h/FJCZuqUsOk91H4qYPASs+Uw6li1OUjvHUfTbCRdBku9CZEiZ5v9sxF12SU+IP9KMUGZOxBKil21RZj9C1DJ4kgTvp56f7BljKf9kxiqq/9c581UoPDlfsUGxmWYuzsUQKE6jDBQBd88Oeml4SjQDWcdQ2oj2/lpFHTmBpzqTimVz7aDpDp7tz7k2cUrWPUh1Zfx9lMkD/IQyaJuF5tYXuPiCLenLDfB/Py89f3Hg4yqTenMI7j2HUg+e744yqzruPOlCU5HVuPviLEiopyP2ljS7ZmbvLbU0PJN1FiaZVS75NguflVy88K1wip4y3r/uDP/vn8Y/Xvy704/OHDy9/nOj2//NfI8KPXv6SkX33Bw==);lineShape=1;" parent="1" vertex="1">
          <mxGeometry x="95.80406891078724" y="23.36360111145177" width="98.84231275194065" height="64.34032348513892" as="geometry" />
        </mxCell>
        <mxCell id="HVyeGtr5qmuluz8HAJte-18" value="" style="shape=stencil(fZbLUsMwDEW/JluNbdmWvObxH52h0AylZUp5/T0yIW5lEu0SJyeypHsVD3jzttu8bofg3s6n4/P2c3w47wa8HUIYD7vtaTzL1YB3A948Hk/bp9Px/fAw3b9u6pv16uX4Ub/wNXHMgKFSwX1PK+gh5N+V+wnYj4croCQoUQHRA1tAAcoKSBEwmkD0CsgEWAwgQtEAFchpHeAMpHPgAhzWAUo9UDKwESEjOFaAdw6cWyeS64nCc6UXAWRwRQMIxOtAkFbrCJzAGZ0LHoruHEkEIwdfIHWdc8DWlkRrpMVEZtKBwGkAMwSjEfIYnQLqJ4xW1w3oKtVNGoCk2KlPyhCNstYihj5CMSLUNnVbklYaSVchaGlUsZABcG/qKkcjhys1t1ajHaIZpompmWo562bJJtdsAhfTN0O0wbDcOYKoc7iMnmWPyuDKPUBGmepo7Dwq4xMNuYrWNFAHtLElATp9Xyb6muWwiyBqMbbkA7C2HGUoxhQQQ6JWBs8rywF6YSQ2DfdPeWJZy28O6N/ISFbTwOv9S0be+sHNI675P5tDzxPkbtKb9akDq3Pz/IFlSRAkbWY3LyznyxBT9775pyrgdUHDPJ/+3peLy3njcdzvp+PK9fP+fCJL09kG734A);lineShape=1;" parent="1" vertex="1">
          <mxGeometry x="193.21635455482283" y="34.2186487597038" width="3.943354247905745" height="3.941098792215371" as="geometry" />
        </mxCell>
        <mxCell id="HVyeGtr5qmuluz8HAJte-21" value="" style="shape=stencil(lVfZctswDPwav2JIguDxnKb/kZk4jadpnHHc6+8L1aEswPJ68iZLXOPcBbjhu/fnh7ftJoX342H/fft793h83vCXTUq71+ftYXfUpw3fb/juaX/Yfjvsf74+nn6/PUwnp6cf+1/TP/w54VKjViZUCn8/3gRK4f+bryfAy+51CYiU2QL0Tb8OiJ1CNAAW4gQsqAPWQu6UESBTbAZQZidXARyo26BLHzZXATmQWJdqpgSClkTJWqiVCkirely7B1S5DqiBcvMxfKRhHVCIrUvSiIFLVXNSbR2EWoYWarKVLhQKCHr+PPdSh70kQl0soMBu5UrdxpCYAoiBM4nt1pQoApd47v4lgUAvaYjJZilWYlDpVH3QkQdprwFasIBAEbnUfPMVEuCR8qe5Qo9mXD/PVGwV4qDHtaoFG7H6HyE9S/Tngf+ZPf8jMahx1sYuLt4C4s3NE6GMiqyf71SsvGjBMgpYaeIqrBoI2lo9+uj6RdMJClmoOh7ccClRsRaUOEgiWeXKkZ9H2dcB4rOkFpCmcroYVSr8wCWlZrOaGhtsDCVOctQUChVS03VG1NYDraQW2E0eqijm4Aud4ezUHBUXATVUNRmfz1RjROXua6AOIv8/eX6am8HFi6hfxeezUQfEaZ3Y8iDOJVwFdP0/a0BTjMQ3hjnCxb6D5myXi32nwX2nFd+mjcdMWc9S8oLaCySCDubgmBNuFrokb6LgLY9t5zWcJtVQsVTQlSojcg41mdOq/wB6+7JueLcIY+1dLi/AH/G7y6QVIEMqVt0WgeE2NU15ez4Nhb2mRa4rbuhvGCPm7E9Aa0IaE+bMZTgQ2C9GQhntdjKIeNZStDFPWmfzoyML1Eu33ei0NOIRKEN7FpsdGrIKSA4gWN7zWJwW8gUX5gvma1cVlNSLXVAvfAVtp5++cd4G6MP5gvu0e3k53Y+X3/2FWF+dLtN8/w8=);lineShape=1;" parent="1" vertex="1">
          <mxGeometry x="209.16567471260964" y="43.71361951344886" width="21.049925217828786" height="20.029239037880757" as="geometry" />
        </mxCell>
        <mxCell id="HVyeGtr5qmuluz8HAJte-22" value="" style="shape=stencil(lVnbblQxDPyafbXi3PNc4D8qUeiK0qJSbn/PHK0STpw9U/pWdmPi2OPx2HsKN9/vb7/dnbz7/vL89OXu1/njy/0pvDt5f368v3s+v+CvU3h/Cjefnp7vPj8//Xj8ePn3t9vt5PbX16ef2//w+2IXpLjNyLs/lw+cuMsHHy7HH86Pu+NNNNvj4fi4ZonenI/p+DzciWE6n6QpOZ+7t/28OgmZGDTx8wWeGwSVlCaDgCcUYhAktdmgSfHEIPYndoMIJ0kOQpJY5yBVKewNSfJ8Qy5SSRpgYFBR8EmlBnUOa1WJjUdpDmutkkmUkLg2P7p5ySRKQE6Y89DgJHFJW/96GFSp5AZdwKqOV0+WOldPK6KkfLyoCRJ8JGnA7XO1lSaR+ONETZq9VIJtZ5GaUX+sPCXN5wHUSt6LSojzee1Qv3q+SJszFqOESDKmHfajNkvH4SF/zRkDHygjMLUgAg49CSneUOacbVkhb0DlFIO61GF13QD0M2dBfSfB61lInREHTMWTLCdn05wlE4dS6g8caaNZTk3CXPqe1iVAmWxPY02khP68EaCOw+vnF6Ko0kg8axA3n9cohVxQUVXmwcpvAHfOBmhSmdzQnK0coIRVZguWKrYmRZIGsnWmk1cJpBDaAM2OXFhXA3caNipRHKnNjc5n3CGThbi0o/NRCY5Cu6FLzdXcPOULGETTdNAZSR/EI8pMYS1KZpkDwSx9MLDMIRGLQeapTtUasOYPj1Oxb2B6BDEpxUapkpLG1z7bPFCXFnw37c308AZDAk0Sg0ZYJFLtTh5FyRRELeJZlJJlARBJZga58+jOILGwli4/dgY0cUvJ4Q2UmNoVXVhY4lBxph7QPxnPNEt9yPQrNZ0X8DlWD81SH1IZ2FBVuwrcFZCyG4q4bA0oCSSrrNqYCY7AZ8UwXOIGTu2j2RSDIFp97nsqD0vU3KCcKt9ssOpt7fPrdQO1SqNwLQZsGj2ZK9UmQL9RrNnRRo2CNPIweXFMbACbc8uKQ69cN1CrJ8Pg8yO9ZPQeRK+SGyDITIlCh2dyQ166KJQ+K6AcLVXCgGniVCxaMf0FZjAmqZ1MZ+wdIWfMKqPQATeO+Xc3OUTiEmYdo0N9oEIXs46RDtvERQwg/M0wEzzt01Dy3hhUOv1o7fujHVpZASHq1qBRutdFCWBeaYQEgBwzLmVUHJWVvRvs1jFsHmi2TZdCtTc8MuubOiTa0ZhrFkSgETaSYR4xUAKNsJL2yyC9UStbfWS7Rtuole17chcWu6iyfrIZmEQ3KshgoLNLmHxZ3rbR3wy6vrPz0fozzAbbnoxtD7RzyqjQyLG37D+Va0RdhnXAl0oNuyFufNVooco3XN6WQqMBxdhspJsERhY2OJU+dQRiQJTCwdk1wxi0jpZ5Bp6SqDPmOF+FLc4EWr/LUz1dXC6B1F4J/5cmx1FvQfDKxuxtP3G8ehx//Ps15dP54eHyY8z+e/vrCz66/HIT3v8F);lineShape=1;" parent="1" vertex="1">
          <mxGeometry x="237.249950915613" y="44.23710724812372" width="47.35871442842381" height="35.70038959873068" as="geometry" />
        </mxCell>
        <mxCell id="HVyeGtr5qmuluz8HAJte-23" value="" style="shape=stencil(lVjLbhsxDPwaXwlJ1IvnNP2PAHEao2kcOO7r70vV1drk2lPktt7lWCI5HFLa8N3788PbdpPC+/Gw/7r9uXs8Pm/40yal3evz9rA76tOG7zd897Q/bL8c9t9fH0+/3x6G5Xj6tv8x/uHXCReFsgxUCr//vYlU6t83n0+Al93rJSCTBAtI1BEgUuwGkCKFchsgVOwCrDtKyF6Ksc9MneGGKhtACVQidLnZHZVGFbksxNblWiiH24BUqGYDaExBbgOYKVlAD5RBkHL0aeuVEthSiZSaAQheoQaqDpDmJq8DhFKyAE00ALRKOVofOnG7DejqdLUAJgbU05gEG6XWKAAudZlpWgCBAiJroO6owdQQIFG1TitbI0jcAFinc6cMfBD2PuQKK1oB3a1QqIA8SPZO50wV0FvqVIgLAIMSlebrQQEZbUmZk70PEanSiq0apYR8EGourI0aUo0QPPuywJLTJbrdk1ZtQF6LL+qScOa6L7midEVkasROXDURiEyVYvYAJK5KJlfUCmAUJSZh7wPkBq+2lKBWjpKz/NYarYhMCnCZ7iQdAsTmQcnEuEaLzbTyW3BYi+N3nnG7DijTxcsaRWFVVVkDUJQaiXhAx2z1o0DBAPF9V8OasAqIC2vHWvlhgG7ANQiVDUSNvJodVMnQCmEOeBddMQIl68U3iPEXqFH3qUILoMI2qqOA29JQKuB0kVkuyxR6Vs/rA5AuYRGjBQAAi+8QGukEnBiDqw2TjicFTX3BF4QOLIwm1yVPF2NiBPxus6UtXMrQPnmyqrQ2YB9Wo0aBqrRqcFxnB7thz9ZeY4ymqzhXX+wTtF/5GwtsJWXq1UKJ2U+vFw41py6Q1Ov06gyOziXNF0GAh4bYr9gDfsaVdgUojoPP4uzRQUzdc20zwqlQ0+XpQB3VV5qT9Tn+AcR/0MGd8+DoMpa3+cVzs9oXd2iD+T2T90y3jOzjnJHPoogB+tnyeRzWgbB//Lbg/wB9OF9OPO1eXk53G5ff/WWGvjpdhPD9Hw==);lineShape=1;" parent="1" vertex="1">
          <mxGeometry x="327.24270367148574" y="45.27572511140295" width="41.40472714785756" height="29.612990877526954" as="geometry" />
        </mxCell>
        <mxCell id="HVyeGtr5qmuluz8HAJte-24" value="" style="shape=stencil(fZbLUsMwDEW/JluNbdmWvObxH52h0AylZUp5/T0yIW5lEu0SJyeypHsVD3jzttu8bofg3s6n4/P2c3w47wa8HUIYD7vtaTzL1YB3A948Hk/bp9Px/fAw3b9u6pv16uX4Ub/wNXHMgKFSwX1PK+gh5N+V+wnYj4croCQoUQHRA1tAAcoKSBEwmkD0CsgEWAwgQtEAFchpHeAMpHPgAhzWAUo9UDKwESEjOFaAdw6cWyeS64nCc6UXAWRwRQMIxOtAkFbrCJzAGZ0LHoruHEkEIwdfIHWdc8DWlkRrpMVEZtKBwGkAMwSjEfIYnQLqJ4xW1w3oKtVNGoCk2KlPyhCNstYihj5CMSLUNnVbklYaSVchaGlUsZABcG/qKkcjhys1t1ajHaIZpompmWo562bJJtdsAhfTN0O0wbDcOYKoc7iMnmWPyuDKPUBGmepo7Dwq4xMNuYrWNFAHtLElATp9Xyb6muWwiyBqMbbkA7C2HGUoxhQQQ6JWBs8rywF6YSQ2DfdPeWJZy28O6N/ISFbTwOv9S0be+sHNI675P5tDzxPkbtKb9akDq3Pz/IFlSRAkbWY3LyznyxBT9775pyrgdUHDPJ/+3peLy3njcdzvp+PK9fP+fCJL09kG734A);lineShape=1;" parent="1" vertex="1">
          <mxGeometry x="375.21635455482283" y="45.2186487597038" width="3.943354247905745" height="3.941098792215371" as="geometry" />
        </mxCell>
        <mxCell id="HVyeGtr5qmuluz8HAJte-25" value="" style="shape=stencil(fZbLUsMwDEW/JluNbdmWvObxH52h0AylZUp5/T0yIW5lEu0SJyeypHsVD3jzttu8bofg3s6n4/P2c3w47wa8HUIYD7vtaTzL1YB3A948Hk/bp9Px/fAw3b9u6pv16uX4Ub/wNXHMgKFSwX1PK+gh5N+V+wnYj4croCQoUQHRA1tAAcoKSBEwmkD0CsgEWAwgQtEAFchpHeAMpHPgAhzWAUo9UDKwESEjOFaAdw6cWyeS64nCc6UXAWRwRQMIxOtAkFbrCJzAGZ0LHoruHEkEIwdfIHWdc8DWlkRrpMVEZtKBwGkAMwSjEfIYnQLqJ4xW1w3oKtVNGoCk2KlPyhCNstYihj5CMSLUNnVbklYaSVchaGlUsZABcG/qKkcjhys1t1ajHaIZpompmWo562bJJtdsAhfTN0O0wbDcOYKoc7iMnmWPyuDKPUBGmepo7Dwq4xMNuYrWNFAHtLElATp9Xyb6muWwiyBqMbbkA7C2HGUoxhQQQ6JWBs8rywF6YSQ2DfdPeWJZy28O6N/ISFbTwOv9S0be+sHNI675P5tDzxPkbtKb9akDq3Pz/IFlSRAkbWY3LyznyxBT9775pyrgdUHDPJ/+3peLy3njcdzvp+PK9fP+fCJL09kG734A);lineShape=1;" parent="1" vertex="1">
          <mxGeometry x="353.21635455482283" y="37.2186487597038" width="3.943354247905745" height="3.941098792215371" as="geometry" />
        </mxCell>
        <mxCell id="HVyeGtr5qmuluz8HAJte-26" value="" style="shape=stencil(lVhJchsxDHyNrigSBBecneQfrrIcq+JYLtnZfh9MVJwIkKcT30YjNgl0Y+Psys3Lw+3zfsfp5fV0/LL/cbh7fdiVDzvmw9PD/nR4tadd+bgrN/fH0/7z6fjt6e78+/l2Wbk8fT1+X3b4ecZJIW4LitOv85sslPXPm09nwOPh6QJQmHrxgEq5bwO4kIoDMNNgAMiUsgOUSowAiVJ3APNK6jYgKxV/Qs2kwGkDpOQALVFBTifS4QCdqQ5Aa54kroBBItsAqdT8CYMpAacbU/bCjUI5bQN6oabeJCXNAKCTk5UlJQa09k7NA6pSLQBgLnofaqIGWKoyXVxDI1NpAJCJvUlFqQOWRGdsroBOBSgtg7LPuCLUgNMG4JAPmTpQWq50YJ28bTldPUvcqCOWZLq4AnARqD1WDRYY3u0qHwyAlG4ydb0wCbHUGmkAWDgiwJiBsOqQKCOTTAefQFY8FbBkJ2gIvkoDCNc6SQBY1UCASsk7LWlqv6WDeh8sgQYoAnVQDcWYiVHw1ai0ndARgCfrFz4UVCqVRoosMfDBMk5S1AFVbwOEDrS0SXzCuEpRBTosdc7rYNGKelwtb+RDQ8K16eJFxlVQva0FJokAQeFtJtVoEgNa3w0YGhPIYgmZpCacp9XCEemQU7oaBWRG/NtHWEvzNHU8nagJ4ev90tmB12op7KU2HlCO2n7F+6CVCu672Tc5Iw6dYGWje8AFcZuN13ttxMEut3b+C5sEjVhpttkV0GA0ZZuNa+SV0dQXO3tvJKCNpljIrAGgLnoVejYuDbg+pI9VEaSa9Vy/3rJHQVjw1ejDsHJL3N/uBpVB2NHwFcnuJgON6RIJxaOYRYT6mEvUUZnPMdFwTNs1pHFc/4+ZPtqDIlqsBfj1eV5strqOensY7m/hkrxgZW6wtb57/uusfVvr1e/fZ8ZtNsFQ6OYGm43fV/ecoEFGULhUZZwBpkAOChR4CzOJw/3CACgn331B/w+APfz9HnB/eHw8f064/D9+P7BX528P5eNv);lineShape=1;" parent="1" vertex="1">
          <mxGeometry x="369.3652506370022" y="49.27025648646975" width="20.35957563580996" height="24.382997307342862" as="geometry" />
        </mxCell>
        <mxCell id="HVyeGtr5qmuluz8HAJte-27" value="" style="shape=stencil(lVjZbtwwDPyafSUkUdTx3OM/CjRpFk2TIk2vv++4C7smnZ2gb7u2aPGYGVI66Ztvdx++3pxK+vb89Pj55uf54/PdSd+eSjk/3N08nZ/x66TvTvrm9vHp5tPT4/eHj5f/Xz8sK5dfXx5/LF/4dbFL0stiVNLvy4OcJM2/T95f1t+fH3brdX27rjeZ7fryKdPccnw9XV9eslh164sUtr5LTm59l1aJ90Vy9uFWmZ0YtPV7m0MqSvJTkdDuDLBnJyHUKuZDqEUGM+gymi+BSi7XDQwu+Zo17ECCNrxWn9W8wuRlA5U2vMGUQrIEg+JdGkazZFmqd2niCQFeRZl8HeakUNIuNTKBg1WzqAf3HJJImhauhCDgJYEr6NB9qQfwmK8b5Bnp2YdUZjBEPSHaoKXOM1bOhpjSGIbHRh2SB81S91nSIYWUWpNUvwNkJ3NSp2CQqQEYad4lyEY1YjBX5GyVpqpqFnXPqEMgsPoIIAGkCA0JsbBeSZW7rTDbyTyp2UD+PFDRRpgQg+4tsK2tDH/ZYMYdlhCIS9CH6XcAXxk7Z429RCdl57Qok5Bmxs7ZpXiXUPfKdgDwvYih8JPgCBo3gxA3MRb0jFmCYGS+g4beMKUTKhxjAFgSC7rF/ja2Ul6rQ/HkGaAHEW6ors1okFkMJQoGXKqEnzMdYkgcS2g1LdaB9WjwIcwZHegiBFp28JQGyY3HEHeoVMQWxoUYCi+criK6M2A9GpWO416hLRpYCr0EBsqyNKLMdKVKvEwVFrPEhAwGY8Y6MG3djSG7UjNxxRZ2HMfYlD6kBY5CvhkhuuiBo42pscUZFJQrLIa6NrS9AYsBPfrgEhWmHNUYQXe2Q4pKhrSyswA4Og6F66yN/rfBNhltDaLSrjj6qoxbC+orgK816unFtU56PBl15cvuPJOYkm2vt75bpREGLQ3Hx1AGPQD1A5aWsZdkCTNwcCkrFSY79F0YKBkFrEaKYv5hExyG5h5mVlCUH4BKyFKjjNPDUUB1ZcjLBnVtOFulMx1nMICFKdR4VyyHYQOJVoJWAGF4tDaclkkM2CFM9lBjhqXl0Bd0KVH5VkyJPq0gbWKFK/EsANIOgqVaZeboUuIGFoRM6Siw3EiEU6JR5cPkHNBqjbq0HMmCzLyC1hwZh09MhqUe7ygAFmNY0ij3OCUWfvjOvqFkozKT8+HKATsw9ZZe4wZsWN+uI3Yiwya4frgda7T94Guez5nPoDUeNvJ26XLlsjGgCOvZsbXExgD/2e1kjtMh1jM9SrEXIv9GEJHiHVSu9DSWDvlUentzGAwzn5FSFGzgjTWd/70cfn09fvy7ib49399fLrL37+PNNR5dbr313R8=);lineShape=1;" parent="1" vertex="1">
          <mxGeometry x="390.38361476670025" y="52.709555559821865" width="34.163301885319015" height="33.94008085032783" as="geometry" />
        </mxCell>
        <mxCell id="HVyeGtr5qmuluz8HAJte-28" value="" style="shape=stencil(lZdLctswDIZPoy2GBAg+1ml6j8zEqTV17YzjtsntC1ehbYIKZO1kCZ+Fxw+AGujhbfv0uhnQvZ2Oh5+bv+PzaTvQtwFx3G83x/EkVwM9DvTwcjhufhwPv/fP0+/Xp7Pl+erX4c/5H94nzjsHzp0xdB+ftyCH/ze+T8Bu3N8AJQMqewe+GECE0gJIkJ0BMBRuAArgvAlgaoDAQNYbAqQW4AQ+mUDwDRAzZDIB38aQCpCVVoISGyAvAEXHIJXx0QAuId4Aib8GxIGILVBqomeBlKCQBmL+GogE5DVQjKBDqnW9iu+i31mCPHDWr8hGED5B6gA28iousbb3hlo9UNFlYKMMDlhVIVWpzOeoCvPGnowieKr5uAARstHQGCEWDXz6OO+R19oWgIzu4QxuFZBESLjGpRzBhzVBy4zR3WOnVVQQsgasuokMYqvtBWEUhKhisJWXEbBrN0vaMuRCB1jNw1j7/e7+FDEl/QprBCB22rCHjKwn6t5gjTHsGsiekw6ws7cG8Vr7CK4t88JmYMirVg8Dt+28sNtY+7+wPGXZtvYL21mW/ar1T+BXnS98fXrnAWblAclDYGUeDG9YZ8dBsdSMep85iEZy5O1qqri6c+eTifos5cyZEqi6e7W3+p1FzTpeyz6mPj+WP6kbWXa8OUHQ/2/lUw52XX6sel1n+H1yWH0evwOQi+vx/2Xc7aavh9vn+nNBbk2fGvT4Dw==);lineShape=1;" parent="1" vertex="1">
          <mxGeometry x="433.8495853413358" y="38.85796676064501" width="2.3008293173284073" height="62.0056823860067" as="geometry" />
        </mxCell>
        <mxCell id="HVyeGtr5qmuluz8HAJte-29" value="" style="shape=stencil(lVbZcsIwDPyavGpsy+dzj/9gprRkSqFD6fX3VZpxi2xY4C0EraNdrWQNfPO2WrwuB2fe9rvt8/JzfNivBr4dnBs3q+Vu3MvTwHcD3zxud8un3fZ98zD/fl1MkdPTy/ZjOuFrxlkmZyaUM9/zG0PJ/r64n+PX4+Yg3jvioOIdWXM6PkcKvjnfgPhiKPvm/OhAvKek87emMjoOSC3AWSoeAAoFVgCOFPk0wJo/ihURHBRVPmGiAsRMAQEiZasAWeqSAIDJFwUorgp9vG6FvGZdMmXAOgcyWQMKJJ2l0kkDAnE+DUiJnFZJzMWg1MlX61RAEhlASvK306RDrqwuBHgx05mUNMBJg4DCTaS1StKxsWBZdR08bKC+btI/6Hwxhm5QS/Yq5yWy8Rpr20QR92fTPGwpgBoc6U+fiHF/NiMgMjEQSYZMbEiLkZBKvgWIzhml1M1J+SZKaRrEmsOBDheO7nOI/nKQpFA79LePSI3cJ8Pd2PYLGdgpkdEjQPwYA6BQR9DBjEEMXDuTpkKDeLlddTvHRB5MmP4qCfC26q3ta3tclg87CmBcdHyn2xMUrNNTSo72ha5esVrqpB90vKwjQJ5r153z8fLwv1s9juv1vJod/t/uYvJq3uP47gc=);lineShape=1;" parent="1" vertex="1">
          <mxGeometry x="427.4906012040767" y="59.45777474216152" width="11.438225638073163" height="3.084450515676963" as="geometry" />
        </mxCell>
        <mxCell id="HVyeGtr5qmuluz8HAJte-30" value="" style="shape=stencil(fZbLUsMwDEW/JluNbdmWvObxH52h0AylZUp5/T0yIW5lEu0SJyeypHsVD3jzttu8bofg3s6n4/P2c3w47wa8HUIYD7vtaTzL1YB3A948Hk/bp9Px/fAw3b9u6pv16uX4Ub/wNXHMgKFSwX1PK+gh5N+V+wnYj4croCQoUQHRA1tAAcoKSBEwmkD0CsgEWAwgQtEAFchpHeAMpHPgAhzWAUo9UDKwESEjOFaAdw6cWyeS64nCc6UXAWRwRQMIxOtAkFbrCJzAGZ0LHoruHEkEIwdfIHWdc8DWlkRrpMVEZtKBwGkAMwSjEfIYnQLqJ4xW1w3oKtVNGoCk2KlPyhCNstYihj5CMSLUNnVbklYaSVchaGlUsZABcG/qKkcjhys1t1ajHaIZpompmWo562bJJtdsAhfTN0O0wbDcOYKoc7iMnmWPyuDKPUBGmepo7Dwq4xMNuYrWNFAHtLElATp9Xyb6muWwiyBqMbbkA7C2HGUoxhQQQ6JWBs8rywF6YSQ2DfdPeWJZy28O6N/ISFbTwOv9S0be+sHNI675P5tDzxPkbtKb9akDq3Pz/IFlSRAkbWY3LyznyxBT9775pyrgdUHDPJ/+3peLy3njcdzvp+PK9fP+fCJL09kG734A);lineShape=1;" parent="1" vertex="1">
          <mxGeometry x="456.21635455482283" y="59.2186487597038" width="3.943354247905745" height="3.941098792215371" as="geometry" />
        </mxCell>
        <mxCell id="HVyeGtr5qmuluz8HAJte-31" value="" style="shape=stencil(fZbLUsMwDEW/JluNbdmWvObxH52h0AylZUp5/T0yIW5lEu0SJyeypHsVD3jzttu8bofg3s6n4/P2c3w47wa8HUIYD7vtaTzL1YB3A948Hk/bp9Px/fAw3b9u6pv16uX4Ub/wNXHMgKFSwX1PK+gh5N+V+wnYj4croCQoUQHRA1tAAcoKSBEwmkD0CsgEWAwgQtEAFchpHeAMpHPgAhzWAUo9UDKwESEjOFaAdw6cWyeS64nCc6UXAWRwRQMIxOtAkFbrCJzAGZ0LHoruHEkEIwdfIHWdc8DWlkRrpMVEZtKBwGkAMwSjEfIYnQLqJ4xW1w3oKtVNGoCk2KlPyhCNstYihj5CMSLUNnVbklYaSVchaGlUsZABcG/qKkcjhys1t1ajHaIZpompmWo562bJJtdsAhfTN0O0wbDcOYKoc7iMnmWPyuDKPUBGmepo7Dwq4xMNuYrWNFAHtLElATp9Xyb6muWwiyBqMbbkA7C2HGUoxhQQQ6JWBs8rywF6YSQ2DfdPeWJZy28O6N/ISFbTwOv9S0be+sHNI675P5tDzxPkbtKb9akDq3Pz/IFlSRAkbWY3LyznyxBT9775pyrgdUHDPJ/+3peLy3njcdzvp+PK9fP+fCJL09kG734A);lineShape=1;" parent="1" vertex="1">
          <mxGeometry x="471.21635455482283" y="46.2186487597038" width="3.943354247905745" height="3.941098792215371" as="geometry" />
        </mxCell>
        <mxCell id="HVyeGtr5qmuluz8HAJte-32" value="" style="shape=stencil(lVhdcxs3DPw1esWQAD+f0+R/eCZOralrZxynTf59llF4PUKnTf0my7c6AthdADzZuy8Pd5/vTxq+vL48/3X/7/nj68PJ/jipnp8e7l/Or/h0svcne/fp+eX+z5fnr08fL39/vhtPjk9/P/8zfuHbBZdUehgoDd9/fROltZ/ffLgAHs9PO0AOot0DSiWAKsEWgDVp8TagBEllBSRRBlCJbQFolUyOBECNKyBIVHqkXyFOQMwSAgk6SV/fEJGlfBuQqpS0AsLM2yHAuugK6BLJiUzF9OoFJKvaPDOiSSchaJGwliE2CSSrqvP3tjKYKIkhdulrGRB06ARQZ4gblbLkRABJ0hrDkAPJUlRP1lFJoh/wQNc6ZJVG0joA65GgKGNZwpFWZhSuUARd10oXlJJlqUpbPaAGMRK04gBr0DXNnzgGZKlr0LVLJgDbBDwBLVHywVPyakutUT2ACHk9UoeNkCylPk1oA0SJJIbhMiuXWpXEbKlO9m8A2BLhUjWxlRpNpRAutSA5+DrUchvQw/y9DZBpP0ESc/GAxN6QpNibAOXoSAzQRN2RynznMaBLckfiJgBAdwJqs2HcAjjFoTKMSwBER+9IJdqh6TVLoIYRLiGtrq83o4pD4ZwZA8CMDHJx/QGASIwM5AvFx1CIRCH5nH2WGL1b9ZpGHegbqrd7CIjVYbxhPRKowWaTEcOaVrC1s0oHXwcA2OiAOni7z1O0xwAMCskDEqN39o0dACqgKjX7GIzUoW/T0U6i9hvFNV+HxGaNEOZIuPdKRtfuZwewj02VMCa70mj4jfVdCaKxNL0VMDqUc4FCZzjoRR1gm2Rv9ay6AgYfeVeMK7/hPMYAWDhco0YaSKmzzZxsgEbpipkwrC7Qt1H2GBC8fe/odTwxgeCrIiCqzMb15HvQ8FtyJuxIfnioky3HisiT/jsyMWeKW4vaex8JGuRzirPZuo+HPu8apU2uHB9otpvteZ2j8uHzVw6AUV1JDcLca7fnI1Vb9N0nwfXYkjhdd3t+296Pie23HwPTye9vU85u8Wbz51g5HSDMqfrWLuOUNpYVzjk3M3TO0T4D3EpApx782ylZ6QZqxaeIyzgdPN/YRUP1awwYynaMerUc0uEZgvI3H8oBGAvdjs7vVgbAXcYkuvVgNHAuoY2O59g1nQwMPsRiUH8ZY5V3kO5pim0xEhphI/fKLHNmunXt5qwrNeql6WrVwz7KvA4n7uYB7BYAXpK7PxLTpmHyvQIwO7I2ibC/XGFvwFioV2llt2J1+ucOwCYqANRZcKaLGABuv02JTqoI2jUdlJI1cqTVKS4pXblHEwgeYCTocfURPYCtem++Vf4fAHz47xL70/nx8XIHvv+/v/TGV5cLc3v/Aw==);lineShape=1;" parent="1" vertex="1">
          <mxGeometry x="445.0766555909379" y="38.88330342542815" width="29.97056129980001" height="48.61466659710197" as="geometry" />
        </mxCell>
        <mxCell id="HVyeGtr5qmuluz8HAJte-33" value="" style="shape=stencil(hVbLbttADPwaXYldcp/nNP2PAHFqoa4dOO7r70tVkCoS0vQmyzsrDjkccpCnj/PL+2ng8PG4376efo6vj/Mgnwbm8Xo+3ceHPg3yPMjT2+1++nK/fb++zr/fX6aT09O324/phl8zrneSMqE4/J7fxESl/n3zeQZcxusWwFTZACRQS8eAlqlGA0iNcj8G1EQ5G0DJ1PgYUAKFbgC1UZdjQNKQLKBVqoA0Z0rNAHqlBjhwoFwtoFMJx4CYiZMHdBBSVNIOoKRBHTJlsecLFZAkpmiF0YUYUA4kwea0Exd0Ptr4W6KeAWEqrmZYd4majadWEsC3+3hUhy2CeBKxlWkVyiCguCpgAygAoBSKbbWaKYKQuO1wbkB1Eqm6okVKoNVEKNhm1vZGzSy8/L2RRWsAEChZgOoO1ZnL0uub3gxASKpsds2stQchRb3PfiEG7T7UzdGbpH4iAfEpB/YcMjgvFB1nNU0QUKDqzCJQATla6a1VKySw+bur8mofB/EXKyN17ASUrdmwJdNOyECnu+dRPlXXtgBFYEA6w1zFMkNAVoLWLpImGRh8Kct9C0D9IKAc6WS2jo2HmvpbtEnKJOj+4vtGBwLQ3DSELeO4DPb9RYH9RFMrABpS53GrC27K1nxT6ggCmu7RlzguItk/n/xWwUvJ989Xik4RJMCGdL43y7csm9X+eTVaZxKwvhtTWwkzZry7PCIK/9829eHfrvo2Xi7zqrv93++2+mrei+X5Dw==);lineShape=1;" parent="1" vertex="1">
          <mxGeometry x="493.1200670738724" y="43.235759634907936" width="12.642032546658584" height="15.718563757469838" as="geometry" />
        </mxCell>
        <mxCell id="HVyeGtr5qmuluz8HAJte-34" value="" style="shape=stencil(lVbZctswDPwavWJw8HxO0//ITJxaU9fOOG6b/H3hasgKHAlt33RgQRDYXXKSh7fj0+thYny7XS9fDz/n59txkk8T83w+Hq7zTZ8meZzk4eVyPXy5Xr6fn5f316d75P3p2+XHPcP7gqsJKt1RjB/LFxbA+vvL5wVwms8rQInAyQAkA8d9QKqQLCBGKLQPCAS5GEAloLwP0AKkWkCEyA6AIKAFFIjOChwgRAMgREDcR5A2Jdsleh+2AQjJDqJmiM4gIpBtaw1+RRBsk0oFLvvxfX89XqA6+RGKmPhcIARnCC1bjxcIzgwKFFu/Eis6NKI4TiAp150NM4OUEUDiAGoruAMyoDNjUeLjuIfk7DkgZBqblJw9hP57NYXksCgos+0KJQA5cg7cxLvikTcHqYBWO0pUdogkAtEySZWQHTlzGqmnWvMApF0PI6A6cyBu+VaGEZxJp3HQ6kjidJVHcVaE6sQjsN2A2nJ2qIogg5g1g0dtSHZmOQI6YuaxoX+L14ZaQKS2pT3pVDsBSS3Ftj0SFOuP2oTkkCIp721JuoDDCdU6WfWr/zr5Mzb36WdIc7Tt+M6YFo9NF9v+qIZNQ7x3HqjO8xgvTkNV5sOBQ249VYBsftW1U4/eRESG/nvuqwpMg+qb4W/HVyhD/9ll0OqI74jktkhLqlbG6jTFsYn/vn39A0Af/lz2XubTabkrrv+Pl0P9tFws5fEX);lineShape=1;" parent="1" vertex="1">
          <mxGeometry x="487.74203079643553" y="55.23734812292173" width="9.013332422395024" height="11.804312698196782" as="geometry" />
        </mxCell>
        <mxCell id="HVyeGtr5qmuluz8HAJte-35" value="" style="shape=stencil(lVfLctswDPwaXTEkQfBxTtP/yEycWlPXzjhum/x94WqoGGi1mdxkGkthgcVDE9+97B+ed1MKL5fz6fvu9/x42U/8ZUppPu535/miTxPfT3z3dDrvvp1PP4+Py+/nh6vl9enH6df1htcFV6jEKyiFt+UgUKh/D74u5of5eGMehWo39okkb9vr37Ua+0wi2/acKRVj36iC+7NQtv6rh61vA0SoW0Bar/gvoCggGQALJQCoQsUC1MkEODSmYDlLogaC1AMlMYCSoEtdg2hJt0hSAKBTtRxapg7CGoPqJliEvhSR6CRsAD1RBtJTEmxZd8FvKCRWq3oFSkTPlJ1LnQpgrR7H4AEduNQ6texd6g0A6lDzCihQ361QdlFi6gEAVK62QlVenDDActB3CgIUYlfTaRThFulqOVSNG5CrhtVxqBUnLvouULURMpSGKzkFVJA4TZPTUm0UkfhUmxbQwkc1ml1YeTTnLUC3WtJAZwxwzVvjlpBLjZoNq8atorBWT1pPkJa05GPzFccorNpKLeCmVW11V6n+FRmQ0EaXuydRUcmVoeabMMEu8GlAoGY56EkAjUmHltiirpEYkC5K2k6IwsRo8DbfyYQpApdyp2gBmeGUY9W3FZNuExG4xMEXRNK2ARKny5FYMel+09C6lCk4QIB9JvtEx0YCPGI/RGOF4yGNpK72uI3FMQpu1is0Qv+pnchjam/YR3d/HB1hw95vGXAtCUMwq0hHR9swr7YIMpwi6w71vgs3EMs0Mr9yHaN6I7WuhANcj8R3UtzlPrn3f2iuD++fGE/z4bB8odz+7z9J9Gj5nOH7Pw==);lineShape=1;" parent="1" vertex="1">
          <mxGeometry x="487.2525265364161" y="49.2585462730151" width="30.467538529339436" height="18.755471776541413" as="geometry" />
        </mxCell>
        <mxCell id="HVyeGtr5qmuluz8HAJte-36" value="" style="shape=stencil(lVfLctswDPwaXTHgmzyn6X9kJk6tqWtnHLdN/r5QNUxEUF7ZNz2wJLBYgODgHt72T6+7wfLb5Xz6ufs7Pl/2g/s2WDse97vzeJGnwT0O7uHldN79OJ9+H5/n99enyXJ6+nX6M63wPuOcJc8TyvLH/MWQL/8/fJ/tD+NxaW8o58Y+E1toH9r1LZP3EGBdCygUMwRwC/BMnACAKZcGEJgKcokptYAoLDgMMA0gWXIBAmJoWZWoGAYdfQuIlFEMnkIbQxEnQQzekVUATzFeB6SslVRCJXoVkAP51AIi1FIx1eMFANEqv0MHQCyVQi62gEQe7VCoqB0yGRSD/E4akACtwrptC25yEuyQs9aSABIIWqSm6mGKCmVahNADQInGRNl0LiGAoZI0wIN6CKmut6A1g8SFUJvKAmABrQIoSt6JAtqhr4dYxbIetKViNcAbACi1RywLCLiUYgf4jGpdGq5TqwDADrl0eYiQVlnPdCWK2oykKXYlaoG8DXMXdYKNSbTGSq4ZplqCSF1BGATglQqKqKh9ZXFZckAbKRG3iVjwcBVR7kKsyS+gWYCysneQVtvZMzx2xb7laDoTQZ7lOLnr0DU6aRunuqkpvXFskFGpld3GXGLItcW5MfgYXcwbkxXrjrcxunHN/m2jYVeWePJkPS2Y2jmuBJvbNvE5xK2PO5W5L3PkTNK+M1mkBFlNe8NImb4ut7BHysy13dxmL+yUzh74Y4M+y3C8knnn7qBT5t+g/UHZkvFXjV1YDHffcjbt5eHrSvUyHg7zjWz5X1/B5NN8fXOP/wA=);lineShape=1;" parent="1" vertex="1">
          <mxGeometry x="533.8679306811259" y="22.87617844429292" width="6.987948698859327" height="75.65811262294721" as="geometry" />
        </mxCell>
        <mxCell id="HVyeGtr5qmuluz8HAJte-37" value="" style="shape=stencil(lVbLctswDPwaXTEkwec5Tf8jM3FqTVw747h5/H2hKmoM0FqPb7KENbHAcoGB7163Dy+bIbjX0/HwvHkfH0/bgX8MIYz77eY4nuRp4PuB754Ox82v4+HP/nH+/fIwRU5Pvw9v0z98zDimwhMouM/5hbxx8d+bn3P8btyfxftI2VtALeuA0LoTEtW2DoiOpm/6hOjXAclTMSl5YpBSZsvBN/JhHVAq+aoBmTitA1om1xTAkXMgvlCIJv6rapfjK7FT8Yk8YNxaRyBQrRBQcqcLkJF3/xkuCI6UcE5fulkAMVMAwhAAaxIpU8uwSkkDcqKIAIWSZl0cNSA96XPUWi0BNy4tFM9OgIBIoePgEUAuS7NVSkh70ljNIaal+ZcBgVrXaQeuj5zgjZgCJQww6hO5wsaJK+n7E6HHSBuMZbjFEtb6XLOJd1hITWublwu7ptRmHOmKYTTKugdiYRH4tgCaZsBCGVmYAJIuabh2grltiSmhJlRrAFmUhaQtVdVKzUIauZi0TZdVrmdCHG4FyGRgLbwq0wikJLOn6OtZ8SiR6VY1oHnyQBoyP1l3ejKdmya0FNqDlPodYJov4IRuyTibFpdTomoyqnBceWrVUkbS83bcNikaMCRn7aXyMotW4s0KU9JigSvxZnbmfFu8eDyqT5dPLHBp6/iy+A3Ip6snyxgE9ez6FQpFoLhOD+LvqD63brXX4+Xhe4V+Gne7eQM//25Xbnk1r+t8/xc=);lineShape=1;" parent="1" vertex="1">
          <mxGeometry x="524.7405503118794" y="55.97165120703767" width="33.806212819203665" height="3.2970416235513085" as="geometry" />
        </mxCell>
        <mxCell id="HVyeGtr5qmuluz8HAJte-38" value="" style="shape=stencil(lVfLctswDPwaXTEkwec5Tf8jM3FqTV0747ht8veFqtI1CWsV3WQZK4DAYgEO/PC2f3rdDc68Xc6n77vf4/NlP/CXwbnxuN+dx4s8Dfw48MPL6bz7dj79PD7Pv1+fJsvp6cfp1/SF9xlnyOYJ5MzH/MIFyuHvm6+z/WE83th7Sq61T2T8sr315EIPKGYZ4By51AIyBV4GsKWsACWDIziKpgUUYrsMCEzF9oAAkhQDGQX4l7e7gCQAlVZflgGZyXEL8PXNfYAcsbQAQwGEVJhS68HGmrf7gFizfgVIZZCHXIlQAYwjKpTbiAwZFJDYt0e2a98v7fcjpMVk3xLPMmVAvAnQ1YDJg4isuZ7wmiLhImCeduE98QogNgBhO+L2BGipGoVICZehTVP0FHGacuchkI8QkDoPjjKuXMftkGoDLgFil9ZMCXMvtiHxVoComAEKoEOyCcpeKb10F/IrSWqZIZqDA+rKZsjhqnW8MBSBgmniCbNXuq2NX/TI4hL07SntBzzca09DfpMLb6qIfFJjgql1XwT4FoDHp1bJyJWKi4DWg7RnWOnnbYDcz9tYyIIlQ4+elCigOqjhlh2UST0+swwHwG49oIu0A2g3vQJIkHHTkiFpsKDSeo0RAIMs6UVJAAHUQa9iAsiAS3rZK4kYTUS1TgoADUS1rwq50GhQ+/BNky8BfO+ggBOYqkFX+0AJHEC8tyomPELTU+w7ZnPVnCX7lhQpkgElU5IXU22Nz9mLHnl83jYeL3Noy3m9kBA0psonB7LwvFZJPJoiig+yRRbQlVsvYOv28vD/tvcyHg7zZfH2//52KK/mmyU//gE=);lineShape=1;" parent="1" vertex="1">
          <mxGeometry x="44.87617844429292" y="121.07857912389397" width="610.9060963672603" height="3.0534901949800997" as="geometry" />
        </mxCell>
        <mxCell id="HVyeGtr5qmuluz8HAJte-46" value="" style="shape=stencil(nVrZchs3EPwavqIwuPHsOP/hKssRK4rkkuUk/nsPQmNFNHYbZN4oanp3MEfPAZ78h2+Pn74+nJz99vb68ufDP+fPb48n/9vJufPz48Pr+U0/nfzHk//w5eX14Y/Xl+/Pny9/f/3UJNunv17+bk/494KzJqUGcvbH5Qsxwf73xe8X8afz85V4NHESl2NxcUbKPfLZ+IDy7ljeeRPdHfLemjDpz+SzKdPzif4hGltB3idiTjE1grwrRL4Yl0Fe6rF88qag/YW4NxWTUX9L5LPv/+7ytr9wXz6ZGEE+E/vkakIB+RSO5Yugv2wP2H15j+Fv+wv35aMRQXlin5KMR/t4pr/6F/Vn/i3VVNTfEv2rmIT6MP9Wb0IF+V8BuC8fjKB/fwX4kbzD+KzEPirvR/t744l9VD6O540031Ue8qX0hN6Xj2gfUYLwBJCMA4LTRzALZWSU5jJmItXYj4BgKjtDMXUEeB50tWIQ+cUZNEpH1gqaxsRKYi3yijJrYoFaO49sjrbd0kcAD4BAU1/NVACgyUq4RQGQ+0lMZG/IJo/Bl1QldgatlgBIpjDPZSOjq1M1ltSzFn0jIGtCM0AydVQpO5MXgJHx8sIPesSRArSoOBZ9WnPGDMqaIozEtudtgGoKA0RUqSw8HY0fzaqFSDivFgAEng9KlKNZy6bkEdNDeGvtKozJfM/5DZBNYsHnsTZotaPh7ZCYtNwJU0lDLSOgMLp3vZvogGp7Q3kEiKOntaI6rhJ4Wr+hGacds0NAYZ4WbAHU0JHF0tQjtWDhb8geAZW/IY1+qAv2VgCYVXOQWUlwDmm0wN8QQaWNbQ9VAiuV7vtDAFip9ubgUKWCgMQKyjZ7XAEWh4aMa5WYncFOoVE7nx8BAswjdtFR2im+tx72qMUt86lZj1537MqGDAWEyUwsXBtgdjVr6yuOqQpgc54CMOVq9+WRWe1kJcsBHg5deJtoex2/FSBdgVtVkokrF4fWDJoAzKz7OcpK0ExMPDRajt4VfK1+BASw8FY/1AnAEqiVNJhR1jnqJjMxGigbrdxINApIU2wwKivTImBBlg0wpRyj4/8FgJJS+rbrkAXg0JkW3malqSxmkhCNNiaA3EeusSt56OmpeViUFGSB0Hcctwaf53XUTmVR+0Ae3ljapZ/q1rIo1KxVcHxtSrI2UXq7c9W5ZqaS4CKzLCY5wc1eKbzrc5NKmYbGu9WvJgg6+m0zz9WMsgAk2M4E3pOF6Q2e7j8VALzUJjn2hmnhmxcjR8TeoU2jrARFnFFy4puN2DnieqK+a3zNiwSKOCtmy/cOEWeUVHhfmXAP2jYbLOMSUmUKfDM4r0LU03zZAsHX9j8spwvefbQNE0uggjNK22GxWCrouNWWrOCAHPg+ve2wxvBuq77FDgt2g4s9XMKll4urfCjjG9pClO+A6wiQuGINC0tp4RXI4x5OXc8XG7hK5AnqcIvteTVxmD3OWF5MEt6y0C287ce7kmddxhRFlk4OWjegogsNCS0bzqI8a2K8yXjLaJn+gk2P0IjL0wQqtDFUQk+oj2PP931/+S7PbjWUbAs+n1Fd8rh4E8oScdp0bxujfXnBJbHQmhmmWzfpKb0rv3dry26h9m6F2X5r79aZVbO9W20qv3NrzuR3LuVZek1X/o5OgxbJZ/V0jzfazJYWqYq34naOBLaZ367KrsQJ80+3TjyOd8TZSLqjTKSGnI4aqTKTIVlN2XETKyk7QcDuve/8VclSXD+8/4Dly/np6fL7l+v/4w9e9KvLj2X8x58=);lineShape=1;" parent="1" vertex="1">
          <mxGeometry x="651.8761784442929" y="114.65065411504565" width="171.35450515507455" height="373.90267123443334" as="geometry" />
        </mxCell>
        <mxCell id="HVyeGtr5qmuluz8HAJte-47" value="" style="shape=stencil(lVjbUhsxDP2affXYlteXZ0r/gxlCyZQSJqS3v6/cjJeVvHtM3sKiY1mydHSZ6O79+eHtMHn7fjmfvh9+Hx8vzxN9mbw/vj4fzscL/5rofqK7p9P58O18+vn6eP377aFK1l8/Tr/qCX+uuBBNShXl7d/rF2uS///h61X+5fi6lp9NzkKeTE5Ans+X8rMpGcgn42Yhn40r8Hwl79gACw0IJAFkIrI4mGIlIBmLAbMXAPZpQTYE46UN7CQKEGCDBBSTkdGkbaBgyEFAKhKQRxqSNJq/2BkCYpQAdmvEAKlhtu2IPcAsbZiXL3tuddKtMwcr0sDPpDRkY3G0ksy2aI1HsRS1l6I3Aeebl1eKAScomyiNjqkdscsAClBMRBr4PGlD8jCB+F1nqSEFE0Dw8TN5GRqJ/QZYhr1e1JUypD32iXq4bE0AGvjG1kmAg8TH50VJlJmMp31A8S2DF8BsHPBSSTo0cmxZvg0ozcQFkE0BL82ALImsWEPIhmKSJOPiTAYZx4BZaSATAJFVG6TRhfkcvDQDrKTKEiFrOGs7RG5+2FaxkMQCKJAF+Km11YsftoOJdHwXXCDSEmsrAKK+6HRsrPywTQN8YK8CWE3LlVeABKKJvObv+vqgjvqkmx8GoBRigFM2ZHwlq3OOAQRSiGLnpYzLYmytwgJIjaC3yTJ1wZQw9xXNfQMAU9mcb7lSLq0/+qTRnJKx8xJya42cTgN6uBoIXSxBdg0bsRRQjnIsOQ1AV+KaVjoNKIFi3+oOcpQbpNirQNHndfcwIJrad3bMhKiM+//sNQCRpWc3Kb9iOr4dkDoALhEMCAqAixAD6KYyV4lJuRUX0mq0SggLZw7fdXG1GQANDT+cbmgiZAGeYVRocENDyAbSwcd1D6Wc73ss38bH7dqe2nmrti+Cd3A8QqhOdInfne6hVahV65pQ4dU5XXtjwHy+nbZuvpHJhqQBg+7e6dZ7MD7YNo18cj6xun8bDEBW7xsGE5bTtD0Y4Uj39YMZkUdO6f/BEMr/le87mHJJ+2cwRpOOt8GcTjopB4sA0ruMwaaBdBUcrDK85t7BrsTrTmGwjPH6/oNtj9MTzGCd5PSwMNhXdcMF3odZ3avhdRtn7y3bPD5diuNloWuR+CGOSj3prZZt65UdJlTMw4kOAqEyrVXyDl1+1jXYtvvtFZeknYN6Ld/tgrA8OT0O4fvwJJH0/ZG9wepqiv1Zt2Vu+vxz1U2tvj+Khps300N5/vGxBn86vrxct+jr/+u1OX+6rtzp/h8=);lineShape=1;" parent="1" vertex="1">
          <mxGeometry x="807.8175679242802" y="487.8453136318243" width="5.015155565049554" height="159.4652473445666" as="geometry" />
        </mxCell>
        <mxCell id="HVyeGtr5qmuluz8HAJte-48" value="" style="shape=stencil(lVnbUhsxDP2avGp8t/VM2/9ghlAypYQBevv7yk0d1lL2LHnbLDpYko+uu4s3rw+3z/tdcK9vL8dv+1+Hu7eHXfy0C+Hw9LB/ObzJ0y5+3sWb++PL/uvL8cfT3en3822X7E/fjz/7f/h9wjnyqYOC+3N6wY5c+ffmy0n+8fC0kPfkWcv3n2vyiVKb5BtT8evylZrX8h7pEygqQKPSAEBOyBrgAUBMCMqESqWuA6KnWDTgv5cvA0Tj2amtQCelTNUAIq8DsvWSABwANHJJAwK4hxKoNQPIAFCIjUoBeKk6Tb0tgKjkrgIkanUGZOIIAIVy1oAEuFQrsXJrogLcWoX9YQZEioB8TbykVPLDqssAiejZS3ImI0DQ1OhWAbYKgOeLq8JfdEIknrlUI2VAb3GiPsFTQioVcnECFIZpTCLYzdQo8gYBJIBmlUqijFRic8LGxbE2OgtZAEAytcp8OVMD9GY/uHkGBAoga3AYXh+A1AYdLwOi9lKKkEsCqDP5IkNqcNLJOGYKyGjh0uwlyeeoAnEe9zoAocCswUK++YQQKSCjTZqRsu3QPRRNDV8gl7hSmpOAT7ANEECd2eo9LLvcdJphqlg+qmwPa6jIK66KD5CLJNzmHJNGEV6Tr3PGcJgVrBsZN259Vb4q+YpIxINjZ06Q35DX9nrgH+/OFHt3aAIHXAC00RKsamQo5PEVKJN9HNXxgz4VVicUBqw7Bp+hlywr/Dl9rAEUTXugodg/t8tnQIClTQBZGe1gq9cBs0p1K3LUAXnLqWV2aoSNYZefs53U8o3I1JGGOiQ+J55FZGJ7Vdl0lDDrOCj9YYUSeVWhYC/Ptu5TAfpcDEyY202qEAYlfGOqZApHM05GTdUnnI06IGgA4+RyNcCrSG5jyFotOMoGIRZyaxv5c1HF0TjCTc/mffpGzKva6F4UkA113OuiE4EdYdW9v1QF1Ab31mX2kpCvYoDqE6T9agiQdTqSBi8jLmUdDtJConFEOkLd1W54KerxXNpg2OBFfdPSaGcUcUFfXC7YS56qquYON9pOz/N9fkEquVHHFhMSA5X6wKOGNkcFuLXvaeYTZCwMaEKq5oQMY7qZzryPtiBryLivjO7z98Zoq9raMAaUNYA+IcHc2sdztX0qcF3VvFkxtDFkra4Y5hPk7gugRjW5VfiLmnm7JpEISQhgJiQJWkQNu+oRAMpLdpnU88hV66oNgF2IbQHMyq0DwD3YpV4HAHrbtaEA0JRhF5OMp227+mS8QbPL1T5OAy/Z9a0AYL9kFsRS9dDWw66g+3QM0ozZcb8Pux/boffhFSlkmCfdEHCR+QawaBnXAN4cAJKY07O2yKNZ0uk0LA6qgNhu9CCLC2hYXulf4IWZBlpIiiqVlU9b9ip9cGGz9gbYX1h/+kHZD94XrsyWDw5GzLUfnbbl5eH9C9f94fHx9IFs+Xf9RUxenb6mxc9/AQ==);lineShape=1;" parent="1" vertex="1">
          <mxGeometry x="35.87617844429292" y="640.3563669280854" width="781.4591263314906" height="22.775702390788638" as="geometry" />
        </mxCell>
        <mxCell id="HVyeGtr5qmuluz8HAJte-49" value="" style="shape=stencil(lVjbchoxDP0aXjW25Jue0/Q/MhNSmFLIENLL31dbZimWdw7wRjY6ax/pSD7elTx9bF7e1ysOH6fj4fv61/b1tFnJlxXzdr9ZH7cn+7WS55U8vR2O62/Hw+f+9fz3+8sUOf36cfg5veH3GVcaBZ5QHP6cnwRK+d+Dr+f43XZ/HV9IpYsXEoHxsY9v1FB8ply6+CiUMCDmHqDEEQAStdQBuFBAlBMVR1moBghItQOkSLVCgPQcklJlCOB+hVwpoBUKSQ8oQqUAgFIKPcCegC1Vnus6A6ptsgFAodTXobZ5k4uAFgYpWVoVAIRan9ZmpQSFa5Vy6wGWVqAljbP4LwClCDgok/btZq+IQN4q844vAHsFSKsBWs9BE1SrZuK+Dmo9i1YovuO0UgGkYwgUHAmlDMSkjSJ7AFrCklKqBzRQOVMCiwco0rcsrIAKUZhiT/oqD4uIHKimYQnAOoV5rFyzBh1hg2tkjSaTTWsdAAWkyQCsHpDAChIpRQ8QsIJU0iFLEZBOlXhQXwCAbBwG9YUEh2UrjwBslPkmxVvSMPQcJm1NWoYVUFonITxUuGkDA2kkDZtDbeCAxGfDV4Y6IHnX6s/RGw1k5kF70jd7NM2n4J1jIMmCNtCgkbzQEGiU8YXjncPSejQM2kDj+GGANXVzW8JHhPAgV3wITRbMyRUfcwbI40GKZqUZmvGoBk1tpHk0A2AFrt4nTnYDmAHz2rWXxmRoQB3iIA2zTA1kKRZvBiZTBuoQmXJfh8n2ocE0z7lrXwk4Z8+gCFYS1X4E3HDGFxt8p/U2GTmrjr29XY96vjcuDzL7xztvJ+w77cb1hyk9dL+K/qTC97foy4uvh4MxxLfP4Md1IEEdSerfzuhU9qW9HLrLVK33/G4CaBXLjfr3w2635o0+HinHTPMj8anMjXHffrL4yw7mm9WPN5xPu9Q604/LVS7D8j41PPyp42a8/fj/XeVtu9udP8tc/99/h7FH52848vwX);lineShape=1;" parent="1" vertex="1">
          <mxGeometry x="43.86793068112593" y="122.87617844429292" width="3.3288075231774883" height="248.00957038051047" as="geometry" />
        </mxCell>
        <mxCell id="HVyeGtr5qmuluz8HAJte-50" value="" style="shape=stencil(3Vnbblw3DPyafSUkUTc+p+l/BIhTG03twHF6+ftSWGgtkSdzaiAPRd5sr8Yr3oYj8sLvvt5/+HJ3SeHry/PT73d/PXx8ub/wL5eUHh7v754fXvSnC7+/8LtPT893vz0/fXv8eP39y4dxcvz0x9Of4z/8fcUVoZgHKoV/rn8JxNc//Ho9//nhcT3fqbftfKQe4Pm6n8/UOzxfeDvfqCZ4Pu/nY6TIEMBlBxTK2AIOG2C4qEJAqjugUBcM2G3gSA07KcUd0GZYvgeIskeBSQoAqNf3tMhCgmyoNi/KidFl/r8JqJEKikOmsl+pVmrIhkR9j3SLM7mOAZGCARRq8fsA9UnaU6PJjMwxoM3imoCeKACjc6WwR7rnWbDHgEyyX6mrDaCANBH6HodeSdA3MOU90r2RgHpQQDSADrM1J1sPXaghQCDpG0ACVZAaLFT2SAtODa0v2W2QRBm4lautOGHIGpwp76khmRIoIGabS1IoIqM11ZIFoEgrCyUDqJMWjgGBiolDgzYkcUYrnwMbkpLxXg8ik56PAUpk1QIQzaRqC0gBFaSGkjt3C0C8lNiyhgI6AgTKzgYBV4rN9rgBAA0lZpsaMQRITFELTNxXgFA3y97jPKKZ6cPVSaB+0ozqGgVwPhyFGQQh2N4w8ggQwM19a6KCECjRG4LRJg/8oyGLrtYi6D2adtWVfwU34ptEWBgpgLTLrkMrSSYkS4qzQVMdOalPbbe0EgZRaPqx624FuLWrl1z/RIyk/dgIVgUwAlQr3hSQQKaqibbhlskghwDtZcEBInCrtqaWHQAUs/aB5LyUQGqIE6DDS8gGsfXcsUxfCGtBIKZ/5fUFUEEFjd7k3IT0oVRbEAOAApFdfquKRn6Ns15WAMrvbkXxAIAKGvWSnA2gqLUgfDJVkEyj5JwNBQN8QSDa6EduRWQ8LuCuhISMSuDqaxS4VYnOFwSs0TTb338FlClQ1yuhbG3T6ysAfYNMvbm6FTDZq2xZAwdy6VUYranxQwHZqjdNeJit2Xmpw+RryenDAAVlTZNU1rcGerfy7FDr0wE9Q7N7zRT4IuPu1IlKTPRe4qlFVmEPvPSz6PRmAT9cp5tp1/9Ap7u4/cw6PdrZxGBB9Ey3czEtBPwOMIO38YRG/dnOb4foQIRH3RQmLv14G0WuYwaUceySOkMLYnGDDIbaMN6GCgtBIskdxb4Chm5CSRqnDxfORpIkeQUtcOyWbiJqHYqBOtPCZD92Q4B+NNhDV5Kj0SFoIxyd4lahBb6B02waN0CEfMfZqqR2Um3VEuQY4YJcGoNzA4iQL1isHj4ZQ4/h5M6QJ4PuHKcgX0fpwEs5WbV6MqzPrjufrAP047DH4WThMAB7tp6sNAZgL6CTpckAvGkto16SNy1+FGBXXXi1pABT03h3pefNAxTvxnJyuy64e9Pzcc88vNsb/z+Y82gwMdKIzXn0IsnZ8naAE6tcbCFos0b3cUurMMeax+fdAABrqRLtI+/kPFtNi+9Tin3MY3tLs8sh7M+xBbT3R/HS8/KWfHjzLvn0vP7wurj+9PD583XvvX5uF936p+uSnN//Cw==);lineShape=1;" parent="1" vertex="1">
          <mxGeometry x="41.24967484334502" y="361.8761784442929" width="13.327546745723339" height="330.75220350174686" as="geometry" />
        </mxCell>
        <mxCell id="HVyeGtr5qmuluz8HAJte-52" value="" style="shape=stencil(rVrbchs3DP0avXJ4J/Gcpv+RmTi1pq6dcZxe/r5gNVyLB9qz8kzfZBnYJXE5OAB0Sp9+PH75/nCK/sfb68vvD3+dv749ntIvpxjPz48Pr+c3/XRKn0/p07eX14ffXl9+Pn+9/P39y5Acn/54+XM84e+LnnchD6Xo/5lfeP/fF79exJ/Oz1fiweUA4rnsi2eXPIi3ti9enZRFPDgfyGH05R7kQyfy2RV8fmKXFZcSysu+vF63NJDPlciLkwzyhZwnFRfwPCUT62++vJIn58nZZfN8Ys/crX0KsU8JrqH9K7lvya4KypN4KM0FtD+VFxfN8yMJz2DtT+Xjjfsy+exi+Ih8me65U17zyzw/Efnu4nrf6AqxZ5UZjlM+0XRv3vXVX9V5Em8ton266yT+W8LzhOgqO1B2HRy8QdJtBT3wGkEj5YlJW8OQi8UJyZnWEXEVNRpJmiYugxOS8+QO3bu0RlGqLhKz9oBhkRQoiVl7nDA+FTIHFlVodVVI0wy3FfTfayTl4jw7UkaoyNVVgo2q0Ndczlt23FYoGHzF0+DravW4KkRuJY1NUFAAYQptpvumUFwnwdcV4OENjVa0LujpIrSEqwJAvIIsYxSi0bqGxkBNciRRDrH6QWEwEcepQlutpDgYSMZJxBRVIGzsDQlRo4Vp6D0FKCQKhZ3EkmRkRgptmb2hIFVohWKxmPBWhcT8UM0bkhP2hmruELhZq3GccMc1jNYRGiQfZIv+q/AOBCpVASqccqDMHNeRMSuQUSv1CVtXYMxIgCoIwH2mLExkVoNNwVMaIIJ+0BrXWU6L61DjeNkdCmKOxKwk2FlojWMlayisb9AKVEloBG/Itrq6c7uCIzSYOotv0y4MQsdSTp+3vkFhg6KAzBNfJTWrisPVa4FQRkSRTLAEKTAl7uoCeC9HsVEgqdNsy/YUMvhBU447DhRym2bYPdJqVs3RgzdAo6ocLvJL19UPSo0zT4i2Hmlwb26lJqgQGVYKQp8S18BhQ4BWZspDbQLlrUG7N0ezHN0aYEAJUOSuFkNP2sElIOX8EQp0k0EH6NqgUm+V9X9TSGvKtUMk82t8K+NnkxstWnAk5ePCq1wCBZnf7FVqAFflgZ2Fa0OcUf5B41vZxuq4UVmZ4yqyvncg2WVMARVYyzE4mVGgsWRY31VO3Uks32vGHnVNggqe1SBDjt9ds0u/V9zQQ9KSYgj+OCSzq2kh9BGUupomRfscWtr9rJpbfPdZ7HcbrfXSnQ9bRiu3Ok6b7MrmCKZZHElNQmO0o6CgLI611KbhbZ2igG2pG4fv0bQDuBZa5cZYALBSOzM+RwhrgWh8CG1HG6O7ZC21mTpq/0oHQBE9XSu3UkCzapFjIDBGTHAHT/vXMcSCSUWb8bs7JgP2nWmXPwIBWJ+nfVOriBq5UlwaZXm10sHUa4wrgQA1GhpjHgq8MlHWN6gFNIue4pKd6A5eSax0Y2TcZsDfOZMevJLtiMzQ+0jBTNWHArGSHdsfKZi9wIGCXTwcKZjNxgH7tquTIwWzm1EFFnx2+TMUCC7Z7VLkvaJdXw0FwuHsfmwofGgBFznTtRu+oUCOZFeIqsDIid1RqgIbz9glqCowgmWWrPoNGwKbHe7IaNZlmYVFoxNds4FWedYc+8myr59Pzu8Rtw8C22NvEjMdCqr8CvNqAVbbPHLu0A/ui0vcQrd2Vj5SfDTnEVrLzXXr/OI+ayYa/sZZfENsYsHTNdEHf+xwKK4f3n9X8e389HT5Wcb1//F3GPrV5Tcc6fO/);lineShape=1;" parent="1" vertex="1">
          <mxGeometry x="42.87617844429292" y="226.86793068112593" width="778.5653530513309" height="8.115286018141092" as="geometry" />
        </mxCell>
        <mxCell id="HVyeGtr5qmuluz8HAJte-53" value="" style="shape=stencil(7VrLbhw3EPyavRJ8P86O8x8GLEdCFMmQ5Tz+PsWsORoWZ2odIJcAvq00rCW7u7q7mrOX8O7L/YfPdxdvv7y+PP9698fDx9f7S/jp4v3D0/3dy8MrPl3C+0t49+n55e6Xl+evTx+vf3/+0Ff2T789/96/4c8rzhvnO8jbv67/sMbaf/7x83X548PTbnkxIdJy78+XO2tKo/VOrY8mWF5fxPpqbKb1JZ2v987Ueb03Qa1PJs7nScZHsb7y+Zs8T7AmuGm9w44K4MZ5NwO8sUED5gjgSN/2PDtSnk0I2dQmbG7G1QkQo/FZAIqJZXaqHWE5i0Keo5ayiQoQTJmPlK1pgnedF7OXctTETqbMgcvBNOFWl03xbEMVmebgVqKeM0nFAVQOcxySDlweJm6RbsNvp9SY4xCCSYqtyaTZS4h9FoGL9oDeKoFgop25BL9FUTEiHs+RRg1xIoFSMNnxDk4cKRVjK9uQFaCNxzsvNUGN7EyMHIcmApdxgNlLcLQqMyBzopwGW4Vbe7oQW70kHwCZ8qFKtwJQZxuyl70kgxrzDvgKVSrxuC1FQOVDP9KccdgzaqPTHOmcJfkAcIUBKoEQOK5LoKPoWABQ4ABQ1btzKTMgKLYiTJEBTu3gOB9gdFXUcKMp7wBBBc6OWr0LXFGBQ+VrDHDK6KWLIpRBG01KBl9hVcahZc02pKhTNCx9uuo4wMR5B1SNpNhaWGsEP/TTsZq0nKIedUQEroSRLlsxLuMrjgF5qd5uJO0hoEJAsoKLIn8qisZM1q55hRCo1eSZrNASWdjc3CjVm5OCpFJDDZiLBtqDEvVtETMxyIRrhZVDSvpIlecGZGgSZG1tFKEBKFUWPgBo0qhtJMjJaLJNOlukixSJ2KLNRsCsdONMBNDSAY+jZ0AWRuCxdQxQ0uHtxG901RMfEG7ZQnV2eJEzqA01cQagstGaLK6dfm4JhHLT1nB2oVa1su9QGKAGPzwmpdvyaBlnAJIzAKjS19bRMsvODkBJC0Dz2y87eBWHNnJ4B7iR1TWxW63yUmNJ1tmlE6LNTa77TaccaTgAmk7qtCS1mjg6mTMDVAvqgVuTWnmpGp8WgK7fbHQbSXsGiJUB/kYCJXarDNyaonXMUf8RII/qvgGsJh9E5Ezv0uTEgT5KhawrXeWluPTRLCVZ8yyNI/SH2sGy2ghRjuyQJ3SL4LU8qYmv1DAfB6WYwpEAEtRA568LQLm1JC4zTt95QVbyyJ5lo4ZwLYHdKofRyjdS0UsbupYmTdbkLQIEFWVc55La4cd8/M3RP+bj/8F8bMfl5+6+SNUlAALV1nDrGo5TtMguigPQpXHEbCmOlKBd6P4UikztkLkYByvlfYrsVq9vmRPYSuU+ymuHuCgy76WUjvlgfFVTEwojsdVvjfj4lrnwmBWccYKtGIepVOIrVOXzjfs0BmSvrtbT8PquequrE/jEzjZgolYNxTt+cZe24fF43i3cRVEWVI/zljVf0vkAInhKUegbZXQc7N95SRqdmN4gi1LGYA736TxuwY4BZSGfdqvfBpj97YwCbGPeJk6qNjqOorIBgrzZ6FyiSzIUT7UDHs9urfrlVxlft1FJ6gAX+eZRd/X1rXGSVW95KZ1kzVteeeux2PENIg6jDs83lGm8ezlcblmPJKku7GiSWwKM14ony8nUKEek5UYsyMK7LNfvuZbDuHGf9n2mOimjFkfa0Wy/L0xWDi0LCfTo+C9/VXFzOT68/YDj08Pj4/X3H/vn/IMP/Ov6Y5Hw/m8=);lineShape=1;" parent="1" vertex="1">
          <mxGeometry x="57.46115042294264" y="165.4498567555479" width="72.44526835935176" height="51.51426171435526" as="geometry" />
        </mxCell>
        <mxCell id="HVyeGtr5qmuluz8HAJte-56" value="" style="shape=stencil(lVdJcttADHwNr6jBYNaz4/zDVZYjVRTJJSvb7wOGIUNAYie+UeI0iaW7AQ7y8LZ/et0NMbxdL+fPu++H5+t+kA9DjIfTfnc5XPVqkMdBHl7Ol92ny/nr6Xn6/fo0nhyvvpy/jU/4MeFSpR5HVAw/p39KptZ///NxAhwPpxUgd4rBAhLFvA2oTL0bQG7U2zagBSpsAUxSAECIiwFIm4PcekPIBhAbFQCogdgBAgnDKpXoAQVUKWVKYgGFct0GCFOyIUmlLNuAmKk2A9B3RvCGyJRtDjlRAzmwBuCokUkSACjVkgHUTB10mtPMnBnQIzFgqwL+FHEBJKqgcSyUbEi94JB4ft4CaFQBl/pNRJ0qKFKlKP58BylriZI/n0DG8eZ8o4ASvlOgAOQcZmUt54UKiD94EnUmBrxmL/6mWka09s9vWGiJxNpXy7N73D1fqNh+NfVH5F6e0npeAH+UcM6ANSBGshTvdppxjVA0knxJ2z9k6TjBWPjJe5GSAk0dXm6vWIeqytHnoLSGTrEY+lo3aExRsOc56FgBjctUmn8BEoJQLj6DDAJiatWXqIF4wnx3ZY0Z0CL4gdMZGtH7zwcbT1XiooE2T6/VXoFoXbzwU4HxjBSyABHo1GMGlhLaQ0bWuwS8cEiVBFKWG9K1mVT3vatStWYkUMhZt0HbswBnWWmUgjuPJFCbN2ttImiBTnex8asRoEVt1Kxbozp095VoF1rg+TeqyuagVcugy2rPyXZZ10nkLHo72y5o3dCmVtRt7Rt0w61gJGRN2jl8hNrXmnC7AYAqqbakegDSQkp+j2oMl/gkXp61U0NiUK7Fm7ICPSeeF+oFUOCHiAKirVLVUYq2fl2mbJVqhINTc2CXdJgZv1UltjmoZhE1tA9+ia8kqKyF2Ja1FLhwvvuT8z8AevH3C/flcDxOH8jr+/6LWP+avqbl8Rc=);lineShape=1;" parent="1" vertex="1">
          <mxGeometry x="129.76622570624454" y="166.38292225010196" width="22.936069245763747" height="21.04511707116592" as="geometry" />
        </mxCell>
        <mxCell id="HVyeGtr5qmuluz8HAJte-57" value="" style="shape=stencil(lVfJbttADP0aXYnZZ3hO0/8IEKcW6tqB43T5+1IVpIqU9Azf5DHfcHtcpotPH8eX90MX3Mftevl++NW/3o5d/NKF0J+Ph2t/k68uPnfx6e1yPXy7Xj7Pr+Pv95dBcvj6cfk53PB7xPlKuQ2o4P6MJ4Vc+XfwdZQ/9eelfKHMSj44KhkCWtYApoQ0VHJaQ6zUGAKqU4CUp5NtAFPRPmcml/YBoRJ7HSTxKuwDkqeiAdVTAj4MBlQNKFTrPkD+TlEBmqcW9wEsJgUNyJSAD5yoaR9aoQB84EopaUCFUWKmYAA8kWU7cc6R06nmQB6ESVSUogGJMlDBzdrEkgjkRCY2JjXIb7G4afYNRgK6SlCy1rCIwzaikA8rFYAcLVr6iRMZAaTo2YYJ5bpKrqNNRAFhqm2i8yLViH6iIa/YxECDFEzQPrS5zveiZDIngY6ATHKf0+wbag6xz1FqFhBBpllMchbAiK5l6tYLpwPofUKEmm1YPWo0UsOGS55iwwDDpQh7n5jUDL1laCGT5l46AyTTyOlIrJ0WI2EenA2rABhTI6xKtAGTBkB8BFCkk5k+k8mDPGS3avhzKjcBMayokcij0T6TeZ5yFYY12mVD5m4GFersnM5yA6gGN3XFeXMo0/KxI58eWk0cVX3/nd1H7Ncpu7NcrcYhXt4cBd2OEhw8npyOZpwouL0lUdDiYcLv5NZ0Lg93sExFl7CDrbfayOOJyXZJxeLeW6Jha7w0tPaAs0Oh1AdiOWzlWh6nSlbmqLvPHSZsvRJAZ7j/qpCP/0+St/50Gl80y//tE0aOxudPfP4L);lineShape=1;" parent="1" vertex="1">
          <mxGeometry x="131.3143780522728" y="181.32665875839405" width="19.17893691898098" height="27.592829693736007" as="geometry" />
        </mxCell>
        <mxCell id="HVyeGtr5qmuluz8HAJte-58" value="" style="shape=stencil(lVdbbhsxDDzN/hJ6UZS+0/QeAeLURl07cNw2uX1pLLRdUetp87eWOeJr+NAUH972T6+7Kbi36+X8fff78HzdT/HLFMLhtN9dDlf9muLjFB9ezpfdt8v55+l5/v36dJO8ff04/7rd8D7jKmV3AwX3MR84cvPB11n8eDitxINQtPI+3pdPlZLY+/19eUkUaievB8CewpRDJ+89ebkPqNEquHkQAEBIeg3RUUKASlJ6FzwF4LN3S8wbggMlEFVVwbED5MWtbUChkjuARBIUptIMaIDiqSAAk3AHqOoDMEkzJ73T6lUqgEqlRXEBCDHQkDLFPtVqZEYA/buPkrKFE9TgjAZPkQFAKPdRKpUiCCu7xuYFoHwEPnCk2LOvZAzIVNkCUr4PyI7YWUABUVJu5sGHCoo651aRqygxqKC8EGGVBwY1qoDa01szLViDN+RjKiDTmTfYKsikYCtO6wE1Jq7ksgVU4AMzpT7Tq86zjfBUq1URUY2qTcaJgueDUqena9WqBezTGpWeTFUnBKggBZSeTNqYHAIIuYF9FbWNSiH1AG1VwAft7sGUnOoEZNLMidGQYXNVbsQBkFGNBsrFmoS6sfI7Oet0Rfz+LEB4aEyljYxtgN5nnPZwKkptnXE1FdFoL9qNe5O0t3kQ1rJsR6vJLgCgJpkaTaEN1m2ApqnvMzG2le7ehmUmStAKQd14WMk8wwGhg9r0ex9giY5LpS5xiK3D0qryAsgqFMpwP+p75If7PZBXEpgIuebR9sbXvFtaEgXQJHXgmuWNKvB22CYzdHZcPsnD240xEbJncDXAjWqMJOxCQ6Jco97/8cDht8Ln3kb/FNePv8+wl8PxOL/i1v/bZ5sezU+++PgH);lineShape=1;" parent="1" vertex="1">
          <mxGeometry x="155.35228309870104" y="176.3401904504517" width="17.171363548452064" height="28.189587749572638" as="geometry" />
        </mxCell>
        <mxCell id="HVyeGtr5qmuluz8HAJte-59" value="" style="shape=stencil(7VzLkhy3EfyavSLwRuEsy/+hCFHmhmlSQVG29fdKeNW9g6ye7NDREbqRs8hpAPXKevS8lO9++fjDzx9ecvzl29cv//zwn9cfv318KX97yfn188cPX1+/4V8v5fuX8t1PX75++MfXL79+/vHt/z//sFauf/3ry7/XN/z3DRdD7AuU429vH/Qe4vzfJ39/W//p9fO2fsR9fQy9Pl+fQi7b+tZDb2q91X19lutzaHNbXy0Usb6ESutLMHu+voaetvVlhpqer29h5n19C2U8Xz+O3Z7rU5hivQXb959nyGJ9iqHtAsMj/xDJNSCHZDughdEFoLgtNalCqfGdAiC3NFiJcpdCTnbs+ARYmOIJywx2tSvluIZrQAqR9ALP1IC+C7pCMcQtQbPJMmEJNUpAIdOZxyfPAKQasP2sn9B2OYwchrpW7JgAFqq6pRzyfgYrIQtzW/5iVz4bUvkg6bob6MzyCdClNBmgrhXamvYn2DycwjUAt05ngA8WtwQDGrsuGdRRCA6Atl/ruDXRsZ+hW2jKzeAM+5Z6OiLF01vaAQ2uVrkZO/zoaUAjTCU43DpZHGxQnGHpEvliuBmlreXYwAmA81T20NlrwC8NFd0sxH1L+IoslK84R7YimALg0IMB6gxwjK0zwMS1IgDylsbxyTWgs7vHqZSrLNCl3ZGVeujvM8BwUb0LXYJzT/sZag1NqAYA5PnqlMoHQCfvXWUEAsD2Q7dzk9dMBkxgP3QrklrBXOquGu1ki9cAuHu6JdAhIThwr7JvCc80oXwAzN1VQpSmDl350EWrNwDDEyyhGrVzfABA2XR1zvhdf58ByB5wDVHoEgCkrRBcEvbwTkUedClqwHRpQ1KS7gfLPiNQ0YIz9hpjBlNbmkx/QB1UnMadkCOzeiQH14DMEQhhVzEy2BcFxVFDFga0ABR25xGTnm1pEoVrB6l7eoZdlxCnmzo0Yua+pWYyoVk+grxG1W7GOCVbklG6ZEwSoV1Nmag5JpClAWEDHIFMhl3cEj0BbqYJbYWkyYAQ44aSgyNYiKLK4iAmytRXYBdngCJw4pcPYnoNcLn0YlBCvZdu0hmKTPz6YElnzYwXS618rUmoBuyLzgDBKVY5zu87dSnK+ACAD4oqyxouTsO1DSE4AMouOGjX0IcuRB3mYeXP5DCHAwibRjSgOL0cj9rS4C2B3auUBpKOheWgaCgOnRwTUFvycoDFKc6HZDiTxSUZdsdJRQ4A8q4iDGj0Q9VOQJQJ+HCucshqkUXOXavkYwiARpcqDXpl85RthKT2U7nikGThxzqfN0otMmPTSZK7+fU9dHVeY4Kbsj6AcZkIea9SOptHXv7gU6u40hkPGvUQFxSrn4kTjSUEodYz85aQ7Edx6FmO73u8JXFoABI9odw+ofATlOIBQIEkgevpJ5gzTVX1mZX9EQAqBwWAKlertqu2VLmIc+MtZjuM5eHQST2hMSkBYKhrbRwMU5Z1JQBYl4okuAB0knS9BZAcmqRu8/zzCegyb/CHzk3yJAASkcMcunpCPeT6EAxV9W0pHzHiKekn1Ls6ypC1E6hUENR5A9wMuVZEO1P2EPmWTFdM4FuJc+MrVLi1wXVWSKYod985pZwmBWfegOJNxKrMe6bJPAAhl0Lo1HkAAGMXBC5Oqau5GssK80oQzuTGkDZqg8ugI8m82FzyA0aqqgfTFQN6lvWJ6ZsnUUeUyiEIGZqqCM7uqjhDnwG5TOctSRudF81cVTcFgKo4/SYqzjCNr1VZ0ALsiUPXurQAuy517QXmmUw9AKaS9GT1Rh4r/f1kEgqAjIquPtGbpKHLq5jbkrpWc6pRtXob52MASIZlXDKB4JSbWQA6dJZ58XQNICif1CVzNh0lWweAOFw/Y8wzSUdKc0+FfwbgM+j6BABEZwCQ7GQeCdvDLan4sAzIeb6ouvHvEeoBMfU1sX6fMwNPD+GMWlU0lo2S22iy+LsEURhw84TojVqdwQ6bfyzNai/wJwGdZ0dwrYrPzMptr2XUyuQKlwOwJdU9mcmxvqEZ0+Se64gyyCGyV+IOTea7Nrg/Y1E2mlcNgXhl02Sjcc4+ddy9AFRZ8caWOvHKfPjnZ4emJB+fTE2YKFBblrUrHDEay0F1saAabEBdO4GzmPxAmFRTavr2o91xOKpslClvCYBJ5eUs69EwIHKVWVf4FoByxZsA8Vcp5A/AX6WQ/4tSSHLlTXmtlSveq4ultlSY6a4RS2Vx+ZhIO21aTznAL2UCJKnea/yL3MyN93ZFYGzJtLunfGANDukYNwtfq2qhAkBhN0edsneeyYFqKOqwZt6cPagZNeuOGkuybpW9fZesdRVOdnsbh8Ver8+OaEjPbZH3P2WmO4yTb3gYxXHH4GmzpJvS48o6p2pVFlfZPD3zNSC5+Z0oO48j8njaGpZRLTI3AFeL7mJPLuSANTTVlDYOPk1XZwEgQdeut2SOyOi5wn4So4dbUiy6nz7xBOgxeHC16uYVmu71czPUDnW8BhQ3HNB1UzpxYXMZtJrqmDxnu6bCxROaKzsWTZVaZRZduoxWzbG3NU2gB02GU281nb8mv+iFhy45Lp6QXWtAJYnNzWzjK9S4ph+Lajq7x599mUVuqXLhvuuad2scrdbglZK0G2odTUYTbIkMyNLdhBD1Q26mwnHr5ur2qrDZ3CgLmIpqu65Jrf2WTDd219QfDapnqRprNrLwtSrVqJXnbOHaFAOFuRBVaibbTNXN5L2b1DMAaWvNdwAmlE2PnJYj3pyOTI8v45aoxper5FZLcDRV0CXd84BStC51Hi6+CexQDXpCTXKWZU3B0hyVLsPjlihkQdJq0GEJjgBVv0yW3UsPU8/ZJu4Brf6JuiXXFO1NstBiPK4JA1JupnQuLa03PTSAilftZkv9YiBUxbj1wgCpxjkteQ1onP7UJCtFxQf2KlsJ0P7s+JI8tJsghU0reyiRKVyeMqvMV7ORarQouwSr6J7oetWEbLrL+JAz6xL0VwLcjGrV45rJ1Zfbzfuq5qqOXXa//fthq/GlXk4crkMzJUkEgKY7RpWSXk/Yt4TcUVW7klMNJMvyBcvp3kDrUr3Xa3c0O5+liebIFTuc4ebFPu4kZJkDZTcIhyRHvh8WeRR+9deVxUUO7OuNG6V8rnlXhxyaAYDcDByZetE1uZ7oehdK6VLnaRA4AcXIkqNwcG0S4Kq/ACiukTJTuJLka0YpcZwuRSqfaz+++//rUg6XEHCpcibcxasodbu7aa0ik283PwY1UiUNP5qS5Hh34ToxInpXkcRNg0/pXrKbVsiyA5ecRzVJ3BI7VKyXCsSVwFU0kvuh16m6HgtIXAUYugoQuQ21XgEQ8o3c9739fp5tmrKyEnnKed2P/H4mqXbz/VSH6SZH9/2AwpCtFb9eT4v9+R/NuFuPf7z/QsdPr58+vf3Ax+Pf+Rc98NHbr4GU738H);lineShape=1;" parent="1" vertex="1">
          <mxGeometry x="162.4128435970499" y="165.619696393627" width="167.91701415057287" height="51.15666713571886" as="geometry" />
        </mxCell>
        <mxCell id="HVyeGtr5qmuluz8HAJte-60" value="" style="shape=stencil(lVfJctswDP0aXTEkuJ/T9D8yE6fW1LUzjtPl7wtVYSKC6ZN004JH7A/g4O5ejg/Ph4HNy+16+X74NT7ejoP7MjCP5+PhOt7kaXD3g7t7ulwP366X1/Pj/P78MElOTz8uP6cTfs+4UiiVCcXmz/zFUHH/Pnyd5U/jeSmfiU0jHykh+UTGN/LWUSkAELUCW8hkAAgUWg84kDcQYEMDcI4MA4Cn7BqAt2SRD55i64Mv9Yj/AXyrIWRyFgLefr+nIZL1EMDcAJKjgDWoKGVDDuVBAK1JWVKZIMCkBlCk9nAeTGuSpNKAsFpjyLSJkHo3EZbrm48LgAOALIntNERgU8rVgAUgg8xFRy5pQAFx9Ym4bYhFHD5FOEu+dCpQYFP1cQFIoDgS2c7pEIACsp3PDNJgtMvCUwXIS4Oylo8gpkJayWiAB7UqtBg6ixiEVCildCZZABCGsJ1JCCANr0hmxSTpX0UyK05LO+ruwWGdqqbTgPImv3NXeKgwCtfm2lh5mWu/byztmCl0DICaJzDFnf0ZKdpOBYir9E/pwoRIxpo60DbSGH9iEeLJvUS8Vz5Q2TUaQhcgPHsC5TY+K8NN5HdNz1BrbON4DrqGVua/LEktoa4sGO8r1MYNJmjCXlmRvI7Pyg4mC1JbbytLntNjeWWL5Eo7G9dUq8/Ha7DMp9Z8vGVbikGJJ5isok/3yHautn7Io1oQcxIreQt60QmFeiVvAOV6r5sd02GI++SjbCtxhz2yorG+EyF/c6pUsC2e0x6rz0f5kqHn9pTD7jvdqrw8fFwgn8bTab5/Lv/rC6d8mi+r7v4v);lineShape=1;" parent="1" vertex="1">
          <mxGeometry x="446.8632352676266" y="120.87617844429292" width="2.2735294647468436" height="120.95995230147992" as="geometry" />
        </mxCell>
        <mxCell id="HVyeGtr5qmuluz8HAJte-61" value="" style="shape=stencil(lVbZbtswEPwavQ5ILs/nNP2PAHFqoa4dOO71911BpZIlqUX8RtMzFHdmD0708HZ8ej1Mzrzdrpfvh9/z8+040ZfJufl8PFznG68mepzo4eVyPXy7Xn6en9ffr08Lcln9uPxaTviz8nJCCAvLmb//dyJo3fm6Ek7z+QMhRsTUEdw+gfgLURCKgzP7BBuQSBIKglcIFmRagrf7hARrJd6reEKU5+cAk5ULwUpNkwMpeAMjzw8JUQnYwGWB9w5escCiyPu4XBUb4j2yxNuIpOREblOi1IDG1yEYqX+oHxzjU3Vn0xOR9vEcb4O3HjYqBI8oCbyTFAMcF4FUiHL1ZExIIJnTgUDalSKC1DSyZ0WNwcsyyxZZcYFVcu6uuuSykWlXMrxWBg5JxmCNUTODz5OyFpZBCdp3vShXJ3cKIUsXUkRR7sOFJvHRIeqFLPGeU1frXHBNGrFkyvnUCvp+w51GR9JibpVWs9giNAGrWXovPti2c5naWj85bDaFx/nTTTM934pp8ZsjYzzVPr4ZXFvrGM+Nra0AZEWgkjpCrq1mTCitom47YmyZ6aYNT+hyH8NndZ71lwpc2Uod92HHhKQU8iKs7HYpIGhOd85lq878PjV46Gu1c/dL6hMEXrw/3F7m02l99338v33o8db6SKTHfw==);lineShape=1;" parent="1" vertex="1">
          <mxGeometry x="491.5450884409454" y="153.35860848115726" width="13.084344615384452" height="3.801501558841778" as="geometry" />
        </mxCell>
        <mxCell id="HVyeGtr5qmuluz8HAJte-62" value="" style="shape=stencil(lVnbUlsxDPyavGpsy9dn2v5HZwolUwoM0Nvfd92MD7Gcs5S3ELQ5trRaXc5Br55vPz9eH4J7fnl6+Hb96/jl5fagHw4hHO9vr5+OL/h00I8Hvbp5eLr++vTw4/7L6e/Hz92yf/r+8LP/wu8Tzquo76jg/py+SdLivy8+nezvjvdn9k2qm8yzBGKepdTJvEok5klym8x9HN/s2If58MGLT9Q+zvZNCrHPkuffj06SY97x8++nMNx70d4HqXl2ZxRXCaCM8w5AwZ10HxBUyvyEGmkI1EnWCdAcZYRW8XPQWhxRvwiIWdzMoZakBhK1IM08Abcil05NdI5DbZIZTXHiYr0UGDGavUMp0sgdipc6HwnfKDlSQWLOqYNDVsIlAOocuFTHrfYAYb50UuqlEsTNT4hNEjlSxgHmwEWoC8mfvCYcBIfcIRfxs5dSlsoCVwfVNrdCMpiXvEQTh8QDF8cVN0CVnAmgLjntJJIj1WBzGoDMAFnS/ATwV0kCIV3qHDhEphB6tyDRXBrsYkoZxc8AJC2LQ9vYvwHSiP0ewBkuofgQajRv1RtsdaT6wK0m0lGHUl0GeBu4iPpGvFTwhGKP1MilkdNJ7aUdUw0nOlMDakszDhXTBC4OLdzNuAVQGWCpcYg041JXjQXgmdwnW+NwpEzyodeHOR8Sr0AAmM4Ebk3sSGDOTI3Edak3CoYajco9AGlWvp4PhEvwUjBsLTSBEIdgnpD5kYqos4DE3FptUexPYG6Fzi13UJZATvziJSU5DUBqNg5U7t1Q0rNIOw5IJoECbeFw6WbyQUeG7AHMpZEPiVEDPd8qxqwTKOKCBQQGSEs+RF7YodXRAhzPBy3WrY3EIS8FBYGjqqG2b02ONuv9SIt6V0K+9wOqraIx0CqK9ifPcdBGOwHMI2lO0T4gkCegKBpqKFo4Btha8zMA06VarHp3APESOgGjGloGWfZ6DVOBlDdYrdiyG3lOt3ZBW1nP552zIwromtglmh2Cei9NEqLV0aZuTV8YjrsM2JqXDVBGw/+fbSVmEDbgI9Sm2QAfKTe2snw2yDkSuf5vA8ijsO5OfrOX0KSxgRo+ifMTMq8oefu9s1GRNkzermUwKgZyBwCsuAauZN7GAXRl0+t6h54QTMmKVYHoaEVBGW3BAjILHI5kxFVpw1QWesdNefa4ZPdFShtXAKIpQdAZdoc85ouzQY4+IVq974uIN+bj2UvV0ZmmT5IGUPgWwVm2Nh3qeXn9g9589lIrdOLAUGUAZ+p5eemVl5VUpZvEUG2FQM2IJKn7JnNxEyspfqlBYAsTpiZxzofec7Gt2jIpKu29gyVG9HR5ujTS6kZnsGNv6ltwtDNxtoJ6pRrm7fhTaKotu2jg2XpiaM8wd7Ts4KyGDpygsDerdEeHDLAn2PMEIl2vi/lXe9qOJDuu+rE23rM3bPO0fsDeDEmBkq3bm66TVkDYG+VVuu+FvTfjOW2+4E+zl0xjJtuzt9PL2PHt8cG8aUhjXbxn/673Qm/b48PrS6ib493d6R3W+f/tSyt8dXrhpR//Ag==);lineShape=1;" parent="1" vertex="1">
          <mxGeometry x="493.6411632451477" y="150.5382414314612" width="63.23041041165561" height="49.20000590618645" as="geometry" />
        </mxCell>
        <mxCell id="HVyeGtr5qmuluz8HAJte-63" value="" style="shape=stencil(lVbbbtswDP0avx5IpCRKz133HwWaLsaypEjTXf5+NAx7oRwT2Jss84jkOSSlgZ8+ji/vh4HCx+16+X74Nb7ejgN/GYjG8/FwHW+6Gvh54Ke3y/Xw7Xr5PL/O3+8vk+W0+nH5OZ3we8aliBgmFIU/804MAWHe+jojTuP5DkGCVgyiCVLZB8SC2CxAPbR9gCCwsZeKUh0HSMnYl4QU9+3X/Bb7VCFOPIRqE2ZePD60bxAbf2xo4sTfUKslCNVRgAnUBYTm8JMycm8fed8+V7AVTMBOvqUtdK8Jq+RORYgWjBgAqcIOQzVCyErGyP8FyA3k1dwmJEmIDqnbpGtBcTxMrHYqqy5OmU6yZQvQynIAU110gLqU7m7h2aQbI/iVbVmt5DrYdI6yxg5Hm87MyY1n0/lc3c6X5bS17lTk7I4u6qYjQZyApuFoGc2L6o811vFrGVXKnPO349q3z7FvZX+4l9gP9+ASJNTPdgb5fZm6u2A54LG91ovlJ4rb+NpT1BGqkpAD0BaxTcMNxZmOd/fjqjEh+C6KBegF5bVBS0uRrcMoo3k0qQcL0GEUPR0CSjcqNCQna4mg7lLbvBN08e+Z8TaeTvMr5f5//yzRrflJw89/AQ==);lineShape=1;" parent="1" vertex="1">
          <mxGeometry x="574.8563328041016" y="170.33709098209522" width="3.8164276314653307" height="3.233916572153248" as="geometry" />
        </mxCell>
        <mxCell id="HVyeGtr5qmuluz8HAJte-64" value="" style="shape=stencil(lVbbchshDP2afT0DEgh4TtP/8EyceqeOnXHcNvn7QHZwAqwV9w2vddDR7aCJ7152m+ftROblfDr+3v6bH867iX9MRPNhtz3N53ya+H7iu8fjafvrdPxzeFh+P2+KZTk9Hf+WG14XnET4WFBk3pYvKSCkjy8/F8B+PnwBMMOEBmCNgTHXEURwqXfB8TrAZhfcAGJCVDx4iDT2IcKI4gC2tRcGh+v2l/iqvQsgJUcEbu3Z1hSs2gfENl4bIKzwl55QqBGt8/FIvnUAq8TLAmntjRqvE6S2iRyElHp5xI4PIygFlpzRNkMk8Aoj8QitB2eRFEojwEfY/6IUGE4pWgnatV0tYKtntZ205NW5KWVrPaSEoHgofdEBYm3F9cbLgG6UqUZ1rbOpjTmnTevUfnKKPilVGCbTE0Tpi2HyS86UDA3Kkm9IWoIG6bIGVpMKqvFdPKiEivy2o6aL7yjXuv34HhBI4RMEtp0bhij3R65K8ildovR0Vn7fPTcOpFQguSqdlwCoqs06IFYtvETA+uthxvcgc1KmYAWR1SAoPkZSIlXDbww7hFqZGxMbMyXlUSiV6zaFPK2KpI6tkQTum97rBE/fRW5YXvLhc/V5nPf7ZXP6+n+/KuVPy5rF9+8=);lineShape=1;" parent="1" vertex="1">
          <mxGeometry x="571.6684158251958" y="171.39107777877803" width="4.858182179909363" height="3.2178444424439476" as="geometry" />
        </mxCell>
        <mxCell id="HVyeGtr5qmuluz8HAJte-65" value="" style="shape=stencil(lVfZbhsxDPyafSUkUhef0/Q/AsSpjbp24Dg9/r7cLrS1pOzAedtDI/EYDqlJHt72T6+7id3b9XL+vvt1eL7uJ/kyMR9O+93lcLWnSR4neXg5X3bfLuf30/Py/vo0r5yffpx/zjv8XnAqlGVGsfuzfPGJsvv35esCOB5ON4CspNoDHAOAJ+EewLINSExlAAQAiIFS7gEJmBQS6eB08dsACSS+BRQS3QZwotgCOJALAOCotGG1MyMA+Ew+NQDzioEPcxDbE6JSSgBQyMcGYKlUEFa2363TRhaJAGAxaU8oHjrNsf5eAaEGeisP3AEyKTIp9SapxyfEyv4VEKiAAmKp7F8BmUL5DDVUiQHAEted4J0jB2zyQ1ztiJgBQMh1NhVyoEa978mkdiZIhPZcUiYBTmtfcKVQAey2/Uu7PkKumgPcARjKmIWoA1g1IJGxJOSu3kxkcIGGAYCk2Aq0y5oBCvDBuBpc67SjjKvBt9QrUo3cqjffnWD9B1XDqnIrMRwJ1owuSnPPA2E1p7U1Sa2dIJM85U4CCmXQHbySH8qtIIBpNw8A1B2kkv/GJCj2BsifATCFdr2xO4L1qwDV9SnAHm1JbfePjIW7ys/aPy1CIGmRtN2fc43ApoC1OZv7I1LhTLk9odSp42MHMkkbIdMXoNnmn7TF7OpEcOfQg3vCOFXZ/oCj49jmoGCPc6GjiNYPg6eDfXacbM1+QDjrR92o4KD6zqLQTZ3kAIGsy2vrL86vlj5fAgdzU4TU2h9riX7MTzeUpM0hqD+NAIWA0SIrItRjR5dNlmDOhph6Yy0yaUza2nXvZMWsxQjw2QvVHQB7+H9/ezkcj8v17/Z/f9+zT8tdUR7/Ag==);lineShape=1;" parent="1" vertex="1">
          <mxGeometry x="561.7940433444555" y="171.27789493438456" width="26.89155776456937" height="20.48538934871351" as="geometry" />
        </mxCell>
        <mxCell id="HVyeGtr5qmuluz8HAJte-66" value="" style="shape=stencil(fZbLUsMwDEW/JluNbdmWvObxH52h0AylZUp5/T0yIW5lEu0SJyeypHsVD3jzttu8bofg3s6n4/P2c3w47wa8HUIYD7vtaTzL1YB3A948Hk/bp9Px/fAw3b9u6pv16uX4Ub/wNXHMgKFSwX1PK+gh5N+V+wnYj4croCQoUQHRA1tAAcoKSBEwmkD0CsgEWAwgQtEAFchpHeAMpHPgAhzWAUo9UDKwESEjOFaAdw6cWyeS64nCc6UXAWRwRQMIxOtAkFbrCJzAGZ0LHoruHEkEIwdfIHWdc8DWlkRrpMVEZtKBwGkAMwSjEfIYnQLqJ4xW1w3oKtVNGoCk2KlPyhCNstYihj5CMSLUNnVbklYaSVchaGlUsZABcG/qKkcjhys1t1ajHaIZpompmWo562bJJtdsAhfTN0O0wbDcOYKoc7iMnmWPyuDKPUBGmepo7Dwq4xMNuYrWNFAHtLElATp9Xyb6muWwiyBqMbbkA7C2HGUoxhQQQ6JWBs8rywF6YSQ2DfdPeWJZy28O6N/ISFbTwOv9S0be+sHNI675P5tDzxPkbtKb9akDq3Pz/IFlSRAkbWY3LyznyxBT9775pyrgdUHDPJ/+3peLy3njcdzvp+PK9fP+fCJL09kG734A);lineShape=1;" parent="1" vertex="1">
          <mxGeometry x="576.2163545548228" y="165.2186487597038" width="3.943354247905745" height="3.941098792215371" as="geometry" />
        </mxCell>
        <mxCell id="HVyeGtr5qmuluz8HAJte-67" value="" style="shape=stencil(7VnLUhwxDPyavapsyy+dCfkPqoCwFQIUkNffR64tD2OZ6WEPuaRyWwb3WNaj1fIc+OLl7urp5hDcy+vz49ebn8fr17sDfzqEcHy4u3k+vuqvA18e+OL28fnmy/Pj94fr099PV21l+/Xt8Ud7w68TLhHnBgru9+lBEXKnJ59P6++PD6v1vpBnCwh+GxCEigFUErcNiI5ERkAhBoDkKdURwBQZADKJAThKYIcciMMAyJkq2CFX8mkEBHgGtVj8AEjq6AoAlcroJXWDgDjUQGWMdMz9yfuARKWMAN2hAEChOrqVC8UAAEJ+PAMHqsgkIRnjECpx2gaIs3EIkZzgHcY4BNeN3ALE0a0+U0Zx0Owf68EzBezWYrKVIrIoUxjX65FRFDK50UdMBaSq5kU1Pu0Fu/l+EzR83kxpfL+njOxRdhCz3qH1ldIYYi1+nKU1mvWoMsX3Sn9b70BCiOa8tQfZL7G7b2UP8KckysGsR/kjSgvJrEdlL8W+3/cAvr++dnNX+QD8r+83+ZZ7yW2tj6M/vYMtTQ+cTAIlCoDd1aOm5tuR0RGiTTnlrRwBQEtwBHCCRaYAU2SRidEOoRuw9A9HAaVdoDiGQdsoYncFpNFL2VPFO9SpywaUSUx+rLSCyVoBVu1w7yhbACstNNtRMbDtstVDLSJT41d+hXFYGtgCWAhtc4cR0PIX7ZDIjamhFeKRl5JlbAUIqjg1YKSAVuQoW6PlSGWRjHZgymOXFdmrB9MFFQCz1fXcfKMZTNwaJ0NMIliyZSudFYCoVVOHi3WTIEDsrWAFQM1NAX6KHKPuGS1taG7EnTOMRd0aGBKFeQp16rHcioPdIeKidnbmaYSOACqUowUUzGRpOsMOC5RoAUg6t5Kb4gAPnfoRV5GGfT1ZYtJcgjyjTGZ20IFgp2dNBZSRFHNUpx3gCCO2je4BCoVsATvq2aj5dmhUcWcDuGfOBxuEAnjcYacF1Slbd5pcneTMThtVgBmSdhq10kw4SwrMzNfEBkg+BZg4qJwpeAeZBRNya5zuAJbxdQtQxzOo6INn0BId3aqysuLkc0bp7uRStMyn0pgRe0erQ1V8w3E12nFDILX+H2///fHWvv/s8RaPk393vBVbkwlPq9KvKt/yH0pnLQ9jP+OASb+eXd1oIXZf6d71pRm2ydB7iP3SagsQDaBiQVXtiM4Mr3g1LYxU4F31Eke/NvJFk57v9+QLYEdra+WbfsCYKkJXQwtA4ADdLtZHt+YIh57ie9teANKH9vcvwpPVqSXC1GgWnzVxp2DjUB1M1xh7vS8AfQWIA5c+OS4AhrKTnaWAig89f1RRACKB6atN0z+gpiel3QwCPgq2B1aGk6q32qhJRGC/s/f4dbnK2VhvKkFDhkh4IqS6TGQfXo+m2tke11n2g+fFTW3yZ5GuoD8WL12PVNeUDwVPXud+Jdxfrz/ePkneHu/vT1801/+3nzD10enzJ1/+AQ==);lineShape=1;" parent="1" vertex="1">
          <mxGeometry x="566.3905824624044" y="137.53785697459375" width="30.01762300591099" height="63.03962548281527" as="geometry" />
        </mxCell>
        <mxCell id="HVyeGtr5qmuluz8HAJte-68" value="" style="shape=stencil(fZbLUsMwDEW/JluNbdmWvObxH52h0AylZUp5/T0yIW5lEu0SJyeypHsVD3jzttu8bofg3s6n4/P2c3w47wa8HUIYD7vtaTzL1YB3A948Hk/bp9Px/fAw3b9u6pv16uX4Ub/wNXHMgKFSwX1PK+gh5N+V+wnYj4croCQoUQHRA1tAAcoKSBEwmkD0CsgEWAwgQtEAFchpHeAMpHPgAhzWAUo9UDKwESEjOFaAdw6cWyeS64nCc6UXAWRwRQMIxOtAkFbrCJzAGZ0LHoruHEkEIwdfIHWdc8DWlkRrpMVEZtKBwGkAMwSjEfIYnQLqJ4xW1w3oKtVNGoCk2KlPyhCNstYihj5CMSLUNnVbklYaSVchaGlUsZABcG/qKkcjhys1t1ajHaIZpompmWo562bJJtdsAhfTN0O0wbDcOYKoc7iMnmWPyuDKPUBGmepo7Dwq4xMNuYrWNFAHtLElATp9Xyb6muWwiyBqMbbkA7C2HGUoxhQQQ6JWBs8rywF6YSQ2DfdPeWJZy28O6N/ISFbTwOv9S0be+sHNI675P5tDzxPkbtKb9akDq3Pz/IFlSRAkbWY3LyznyxBT9775pyrgdUHDPJ/+3peLy3njcdzvp+PK9fP+fCJL09kG734A);lineShape=1;" parent="1" vertex="1">
          <mxGeometry x="612.2163545548228" y="172.2186487597038" width="3.943354247905745" height="3.941098792215371" as="geometry" />
        </mxCell>
        <mxCell id="HVyeGtr5qmuluz8HAJte-69" value="" style="shape=stencil(fZbLUsMwDEW/JluNbdmWvObxH52h0AylZUp5/T0yIW5lEu0SJyeypHsVD3jzttu8bofg3s6n4/P2c3w47wa8HUIYD7vtaTzL1YB3A948Hk/bp9Px/fAw3b9u6pv16uX4Ub/wNXHMgKFSwX1PK+gh5N+V+wnYj4croCQoUQHRA1tAAcoKSBEwmkD0CsgEWAwgQtEAFchpHeAMpHPgAhzWAUo9UDKwESEjOFaAdw6cWyeS64nCc6UXAWRwRQMIxOtAkFbrCJzAGZ0LHoruHEkEIwdfIHWdc8DWlkRrpMVEZtKBwGkAMwSjEfIYnQLqJ4xW1w3oKtVNGoCk2KlPyhCNstYihj5CMSLUNnVbklYaSVchaGlUsZABcG/qKkcjhys1t1ajHaIZpompmWo562bJJtdsAhfTN0O0wbDcOYKoc7iMnmWPyuDKPUBGmepo7Dwq4xMNuYrWNFAHtLElATp9Xyb6muWwiyBqMbbkA7C2HGUoxhQQQ6JWBs8rywF6YSQ2DfdPeWJZy28O6N/ISFbTwOv9S0be+sHNI675P5tDzxPkbtKb9akDq3Pz/IFlSRAkbWY3LyznyxBT9775pyrgdUHDPJ/+3peLy3njcdzvp+PK9fP+fCJL09kG734A);lineShape=1;" parent="1" vertex="1">
          <mxGeometry x="549.2163545548228" y="144.2186487597038" width="3.943354247905745" height="3.941098792215371" as="geometry" />
        </mxCell>
        <mxCell id="HVyeGtr5qmuluz8HAJte-70" value="" style="shape=stencil(lVfLbhsxDPyavRKSqAd1TtP/CBCnNurGgeP08ffl1tDapL1T5LZxOKJmxKGoiR/et09vmymF99Px8H3za/d82k78ZUpp97rdHHcn/Zr4ceKHl8Nx8+14+Hh9Pv/99jRHzl8/Dj/nFX6fcZU4zaAU/px/aJVS/PfL13P8fvd6FZ8a1RuA1HUAd5JoAYVqXgeUSNFlYMq8DqiRWrWAQEnWAS2SBAOoShpkEKYiBlAaBaCSxLHeAGTNmcCWEqVmAFypB6CS3AAStbIOyJ2a5cCBGuDATLUYQOpUgawcKXQLkJHzfi3J0GQBVMpAJS2+YDmkRAJI63rBcohCGRRfKiT24OIiw1qGbItPqHdIQWx8po42pPaxokbqoFS1CtgSUC8ge+ax3CU+ovXb8OJlPwXFdyrZ8WUQrz4JzemJrDn7yu0nQacpoNkEcWlp9wGBxAK06KBEnZKlPFdVg5q6KlXSGQEyFWcctSbakhbNDSChsu7jVBdAI0aARsWZP1PExmHbhGOnDkjPItqLJBZY2pohWqvFQAX01JmizaArIC/3wXDhTA3E6ylkq1GAvUWP2XkhUAD7/2y83rTNKUoMelEN/kZgSmD9Kn5WKMToXq5+fYHr90DsrCwUAYEuvnnpJVdACcWwKLhQYGjNnqm6YURFBUUhWjM2g6hxAOuWh3MXgMCRrbLvFj3hurgZRpSVgIPTFul07XVcW6u3oCWtR4O6RfUUrk7m/pZGL1kS9KHzfe9QiX5DDY0iQ/IlvsFLIfpe1AucIMMYhK7OLANFVQ0bLx3u/6aupcJJKozuf1WlATnHX2k6EsPeO1ZbbNPHy2TlvNyY09ow3ko9uOl3bjaod33yXfT/eP24PMJedvv9+Q13/X//aNOfzg8+fvwL);lineShape=1;" parent="1" vertex="1">
          <mxGeometry x="614.3912618872639" y="164.01741689588312" width="25.073651254103197" height="13.600124499804906" as="geometry" />
        </mxCell>
        <mxCell id="HVyeGtr5qmuluz8HAJte-71" value="" style="shape=stencil(fZbLUsMwDEW/JluNbdmWvObxH52h0AylZUp5/T0yIW5lEu0SJyeypHsVD3jzttu8bofg3s6n4/P2c3w47wa8HUIYD7vtaTzL1YB3A948Hk/bp9Px/fAw3b9u6pv16uX4Ub/wNXHMgKFSwX1PK+gh5N+V+wnYj4croCQoUQHRA1tAAcoKSBEwmkD0CsgEWAwgQtEAFchpHeAMpHPgAhzWAUo9UDKwESEjOFaAdw6cWyeS64nCc6UXAWRwRQMIxOtAkFbrCJzAGZ0LHoruHEkEIwdfIHWdc8DWlkRrpMVEZtKBwGkAMwSjEfIYnQLqJ4xW1w3oKtVNGoCk2KlPyhCNstYihj5CMSLUNnVbklYaSVchaGlUsZABcG/qKkcjhys1t1ajHaIZpompmWo562bJJtdsAhfTN0O0wbDcOYKoc7iMnmWPyuDKPUBGmepo7Dwq4xMNuYrWNFAHtLElATp9Xyb6muWwiyBqMbbkA7C2HGUoxhQQQ6JWBs8rywF6YSQ2DfdPeWJZy28O6N/ISFbTwOv9S0be+sHNI675P5tDzxPkbtKb9akDq3Pz/IFlSRAkbWY3LyznyxBT9775pyrgdUHDPJ/+3peLy3njcdzvp+PK9fP+fCJL09kG734A);lineShape=1;" parent="1" vertex="1">
          <mxGeometry x="642.2163545548228" y="194.2186487597038" width="3.943354247905745" height="3.941098792215371" as="geometry" />
        </mxCell>
        <mxCell id="HVyeGtr5qmuluz8HAJte-72" value="" style="shape=stencil(rVhbbhsxDDyNfwlJ1IvfaXuPAHEao2kcOOnr9uXW0WZFyVMX6N96rVm+h6R2fPPycPu83wX38no6ftn/ONy9Puz4wy6Ew9PD/nR41acdf9zxzf3xtP98On57ujv/fr5dTi5PX4/fly/8POOSI18WVHC/zm+8Ixf/vPl0BjwenjaAmClVC3j7xBzgKbAFFHcZwIli7gGRMpDAqrGRIOT5MiBEqr4DBIYqBU8+9YBCEXjJV8quA3AgqQCQKfYqcaUKbPBMNXaAqH4DNnhP3KuUPOUMJZQ+0qmSR4BM0kvIgWoAbnUUpAfoJwQHro908RQTTI3Qu7UkKEGTT3qjq6OI09tEukZyIA6xUOjTu2YISEzeW4AAo7Mj7mu6lla0c4AMEgpVYHThljkbgCCAZo7xUoU0U0Pz+hYAAqcKxEFCAG4VLRexAA9UEvU6WwBKPlEFQg8QYlAPIpYqxVEGgVOAIQEJLfbzEnWu5dqKiE3oJRG5d5P6wWGrjZukUEaA0khiBSj1AZ5RBUyDUCUTkpAGowWrxJTEAjwCqNurteGtpuYAT8lZt2aUG942OQ1cRSqNANyCJir5xp4XjTYVJFSQDTxwZcX5PQRuqVEEGFJjYQEEGJJPAYjJJuntsEpjAfnWWK+u0dVx19LAOkNdSzQFtvaRyvRNQrkxkKXKZMDfIx2/O+7/AMYOsQAA9Y09SAEFAMraorYAEOqlj0YLqKAHaad2A/UJiEOOlMIAQLOAsxI2+TifT8JEJ5QbOqi6IZkY+JVLc/smvwtwk459pR9otObQFKeDpZl1NVtQl9MBvxpAgESj07TpEAVLqC2um1E3gRJVj/RR0FkaDt+t4NfzHo4/AyklLUDwfV03+pUp1jb4zmNGubc3hmbRPFEp9KXD+gaEeO0063nXFqKL+1LvoLCGcA7QtDabsTYrQEi6pZopelnqgMkaYxMzwS517XOrT9viOz+fyfeF6dtWOi9k15bgdh4zxXh34OCePl5OOGivLrSGfx1cifW8JHMelYwynaEV33rQpc2Ne3/i6VzPl14fhiWm56X3T8QUMZzHNDrqo5TyT/aWNgVc6c8K83OMl1AEFTnmg7Qbiivz7S+XYVcA9OH97u3+8Ph4vrrb/m/v6vTV+Z6PP/4G);lineShape=1;" parent="1" vertex="1">
          <mxGeometry x="602.8849376927776" y="162.14307215191718" width="46.073090309130976" height="36.050269734266294" as="geometry" />
        </mxCell>
        <mxCell id="HVyeGtr5qmuluz8HAJte-73" value="" style="shape=stencil(lVnbUlsxDPyavGpsyzc90/Y/mCGUTClhgN7+vnIzTo/lsCZvIWhzLGklrXV2fPP6cPu83wX3+vZy/Lb/dbh7e9jxp10Ih6eH/cvhTT/t+POOb+6PL/uvL8cfT3env59vm2X79P34s/3C7xMuMQXfUMH9OX3jKOR/X3w52T8enrb2gVIe7D1VD+2dDPaJOAJ7TyUN9pWig/bJjecJFBgCOIyATBU/wY8eBPUpQYBxOZTu1EVAFCpxADBTDgBQqI5BYiEGWYvJRjVGqiANkSmNgOTIgbBGDSuPgEgCiKEndnUECEVwJM79xB2Qz4e8DEhUxyfkQgGEVZ9QRm4XB8PKys2RSyWQFBAlR3GstpLIocQFm4eSKQsARMulUmAelEvW6UoF+KAV7Y0PmHwpkY8WUEHisu9BPPcARxWQL0dKBnBuC5cBiWQ8Ug3EIEo5d/afAUyMnqBcGqlRI0UQJeVmNU9IPTOXAdIb9RlQyIOwKpllTFytlEHFKZmND+J6Ki8DIuWRraJ5qACgZB59EC0gkOnGzTFxEqHTjTnmCalPvMsA7mQ+AzJ50DU06uwtoAKATE1ACiSfumjajAIEUEP/7UcuiXYqUNMifShvAIJ6a6FkAEIJ9CVt975YAKoHnUDiLIDx2A3TkQJqM3MeFABqWgsoZgvwgN5KPjMU2xMQ+TTqMgHAE5TMaXoCI4D+3pSHhMgnncwbAOoajXxTWNFA0R4Rp8RVFFYt0SlKqB4KWx+8UzmD2jdT8VchVO7YmsOHitnKxIXbTTxMmUCB1SK1/RunTvXMdeRQeeKmXCP6xWr1zILgqdj7yaKEdI4aXbko0jI3S9wGau6T/4ONRrhH/YOtTJsvX9UsN+T8YD++HqHkMPegxYyIbpqkeAopm+ysLlhOp4ngpXfc92pO5lmN7kG503mrBtATYr+ubvUGUAOthGZFgy4dMrEpdDX7Xhuwo9fjTMd++9zqPqQGfCfCVlkCQJAuqbbaFTgdtFkahZ9g79M7umngTX+DNuBrF55bhQ8S52OXtts7BKCG97b3tVsKEopU52sQkn2daBt7eCAdKKPL7SYHm4bdnTQ9jia11XDtMgo81kuTsT9/c7l47DKqXacRKyZ7LR1wfo332PIWC4Gpp+YCh5Wz19DVSsNW8mJnkmz3Wixlir1HL7Y+YotssVbSErCbLrw78Gz17WI1plVpNl2L5ZsCzBV0sd5rdT8eabFAVACPR1qsKBXgRxrhHagGyaxw8I5V7cNIC7zD1ePm0WO8I26/H6w9DpBkY4/WDL5YFrkupS9Xvbcz2cEMa/iK9dcBzrHrk2VjD/zlZOUdtlch5W080XmaBklX+Kui3Nt3ACieaWqLOF8pWD2B+XD1O4mlvX74/wLk/vD4eHp/sv2/fWGiX51etvDnvw==);lineShape=1;" parent="1" vertex="1">
          <mxGeometry x="446.1631124028761" y="237.87617844429292" width="5.579464143384712" height="424.2223608242534" as="geometry" />
        </mxCell>
        <mxCell id="HVyeGtr5qmuluz8HAJte-74" value="" style="shape=stencil(fZbLUsMwDEW/JluNbdmWvObxH52h0AylZUp5/T0yIW5lEu0SJyeypHsVD3jzttu8bofg3s6n4/P2c3w47wa8HUIYD7vtaTzL1YB3A948Hk/bp9Px/fAw3b9u6pv16uX4Ub/wNXHMgKFSwX1PK+gh5N+V+wnYj4croCQoUQHRA1tAAcoKSBEwmkD0CsgEWAwgQtEAFchpHeAMpHPgAhzWAUo9UDKwESEjOFaAdw6cWyeS64nCc6UXAWRwRQMIxOtAkFbrCJzAGZ0LHoruHEkEIwdfIHWdc8DWlkRrpMVEZtKBwGkAMwSjEfIYnQLqJ4xW1w3oKtVNGoCk2KlPyhCNstYihj5CMSLUNnVbklYaSVchaGlUsZABcG/qKkcjhys1t1ajHaIZpompmWo562bJJtdsAhfTN0O0wbDcOYKoc7iMnmWPyuDKPUBGmepo7Dwq4xMNuYrWNFAHtLElATp9Xyb6muWwiyBqMbbkA7C2HGUoxhQQQ6JWBs8rywF6YSQ2DfdPeWJZy28O6N/ISFbTwOv9S0be+sHNI675P5tDzxPkbtKb9akDq3Pz/IFlSRAkbWY3LyznyxBT9775pyrgdUHDPJ/+3peLy3njcdzvp+PK9fP+fCJL09kG734A);lineShape=1;" parent="1" vertex="1">
          <mxGeometry x="68.21635455482294" y="259.2186487597038" width="3.9433542479056314" height="3.941098792215371" as="geometry" />
        </mxCell>
        <mxCell id="HVyeGtr5qmuluz8HAJte-75" value="" style="shape=stencil(lZdNctswDIVPoy2GAAiQXKfpPTITp9bUtTOO05/bl6pGrgglkLSTZX4m+PAIwB0/vB2fXg8dhbfb9fL98Kt/vh07/tIR9efj4drf6lPHjx0/vFyuh2/Xy/v5efz8+jSsHJ5+XH4Ov/B75DAECGHAKPwZXxEw/nvxdQRO/XkGlAyYmvWIoMEBFLK0G+i05ceAQC4NwApKLoAtEDNwcYAI2gIaQMUFmBog1TMkFwjaALn4ITHkVtaSoKgDIIgBMqiTuByhtGcoBcjJQ4qT6jPAU0kRElug8OdATHaHmR0/JJghqd0iOzLR3ZwzQBwzIUFECwRH1wSoNg/ROYJOPpglOkUnoGDdXQF0NsC8iEhBnLxRgbgA0AEiQTEaCRTnDHKPeCOQwhTxPCQnzxltlRkO7QHVN7RH1npDFS3gJa4Q5LjHGTmB5F3Wywsv+eZWBVrcUO/6SG0GrTVWb2gGEruFVwRIgJMFvDKDMpXejYWsqk42D16lrE4zIvmleO/6u/U39gYBbW2x0nxkauAbu1uE3K5faZ8RsF2/0p95KiYbB4B6lVs9VyaMnRMMQmzDqW3LUUdsU8PpDn3WP8wlDpCcZC0bVHCLBBNQMuvR67EMxcbjiS81N7xjvSarjx9PrVmmv/rnrUUx2t/39KyTl9HHz1etBbLHDrsH5g1Affg/n7/0p9M43s+/t/N8fTX+F+DHvw==);lineShape=1;" parent="1" vertex="1">
          <mxGeometry x="65.84687615203006" y="250.85527730931062" width="2.3062476959398737" height="49.51943607500414" as="geometry" />
        </mxCell>
        <mxCell id="HVyeGtr5qmuluz8HAJte-76" value="" style="shape=stencil(7VvJct02EPwaXVEABuvZSf7DVZZjVRzLZTvb36cRmTTZo9eMKpccfLOf0CQGmKVn4Z29+vzu9cf7uxw/f/n0+Mv9Hw9vvry7sx/ucn748O7+08MX/OvOfryzV28fP93//Onxtw9vnv7/8fVauf716+Pv6wl/PuFSD7MvVI5/ff0lzPnPDz89rX//8EGuL6ENsX6EWE/r8UN/yfNTCqVJQMlnQAmjCEB1gBGKCUBhEdIMowpADrWdADjUpA4Vf7YzIIci3jBDL+f1FrpYP4KdDzXXEMUZNbefHlK+vX7XgX39CD3eXm8hnddblM/P240e9mNCi2roJG8LUzwfCuCen5K8sDoZoC4MSvf1eQfA0HbTJx+pCcDSmMaAIZQOhzTPag21MgWYIRUGKDswuJLorlnYspVghQEm7sHadiYHQBa2bMNp9pT+rqTNXR2OtSlTsFDoppvUpVKDnf0RrrKLmy6NVQP+SLkXAMZZ6IRH6C0lB1DHCqHZRVapfDjWVPkNUW0phm78hilcGADmAF0ADIowGFCU8s3Q6B7K9ohbgOIAKrbZbpA7wOSxLsBggDQgbIkAeTvom0J3BmT9BnIzcJ5d+O51cZEBKj4DwPeQ5JaW8iUGJKVLmeMbhC4KsOvm4R6aEnps2n9QjSpUo8LP0Ruq9N7VkRJYnIq5tYSeGVCFelf8uTNAsZI6ntlSE8da+8YqDtStCZ6xZKA3dA3Im30dtqTiA+5hOBmKvmnvjKVvBRWJL7mHAs1xBFexMXhvTz8V14A9DApZ4NxK6Mz3sOiPjqLRBfapZRjENUy/Ab76LDTIRFFvaEwSQSYU58NNkyNbvlDcNHSJKNw313ZTWzsDVIyrlckJAFGZaN9480HoJgDNeW/TTqBB1c7xASywCOVrZUtddgB4pnCVrTITWERXAWCQpN5NqjcAnfIfZEQiArW+mfwxQxTKBwAlHLBp5e57fIZgqbDbs0u84amEDN25mQxdEsfa20ZFDkIrgtWHOyUEMQEY0V2chSx0aeQQjQFFeI1hG3E+ANTFjbZR86PQakvT5aJReu8JshP5lLqQYWZmlVkHlIlDPAMsS7I+CwsNr6FMdNaNiux+qcuUZjbmS7VJogsAsRm4BaXes/MboPBDyeCyLGiXCllLhvMp4e6rErow15i6+LYu7qwac2yVl1u6FIlrxLj99Ly6gsOdpZ5T+hkYRD47Jpy0NIiyMbYdYFLqYczWsUl1cwAQD8UvJgL1cPrdu+QOo3Lm19OW9T8P6FvKc1BXlQ9AdYhhIRIrHgovUM9+BuRAal/lzK9qTwZdI19ZNA+du5M4AKoqg04OEAugjNpl4EUnEEuZMwOGBlACUeZGZW8BqOwAgEp3516wOgAutkQcruoy3HS69I2Z3gLUygDpmCZHlJVHaRmik6ErbR1cAl5bUvbgktEltODSABCXXseqLm5wdbNoV7kAjQHKzawtOYCi9wA02tK42hJnHEN7DVc0/hcmGh1AK1+rTgbFfyZ3EwBQdbtlQO5YFdk4BM0D4sIgprMg1aFZQjiDUC2RdUzGAFXIfjmgbYRqB4Abqy0ZKxPSzagsaK/r7UEuyWoloiKRuKapLuIuMaauqS7oDDkmUIGuAnXliivIhqr/AED6DTqjCnfYUj0LjVivWB+EpgLq4uNC+daxEiVrsrKBi6OWBQDSG5tjiRamTjmo8o1NZqWtdUtWD3R9KBmqI3263L/oOnG4JnNFACgbrbpPgzNhN9OvckViJ6uer94QmQrYXie4pRoUUfLYTOqW8lWqnVwon7M4pK+q3A+2zi28LmcQRuI8a3V3VaHCdVFW/1gVW7qruDaZcazcc77klHw5Z40IqC2lZ9qQivT16I5VR6DmWCK2pLgDAGSiWefsbTCtzLpK1vpGhA+1xKSqlZWDohU9SeEKRtZkXbolppWmq5V1cPGxpC0nv1UEHgTQEai68YtSdEt7nws4ABQPLZ09XzFZdsDzWmahZf84c4yzITkcnpdJNaosb66+JRWyk2S65lJFeA1VKjeXyOUitbVEN/ej0ywIzb3XftXY4c5o1c1a35wymYEXEAVqsGVZdiguVQRAmWhNfEqrpS1MFLSWG51ZsntYHJWwIHRWNt25CAyAmnao0w1g6Cm4FjnsXtw03AxxjaVLakvthcpXi+sPRN2sTVw6AUBxDagGK9+e5NzySzwIMyT9WV3FyoCsJgX85EyXXuP75MwG+D4588zF/d8mZxybSUkHduMS1tqScMbFdYLWKan4MFxA0dX+Grk5BRNVJd3ilC8nWRlcFS5H1uW8rWsHX6QDa3jBpTRyS5VHdPOF5zMuU1jcDvqWalAde/XxtSNjsp6lPYDhZRoiMVkIMReybK9DPA8oXJBab1CuMrEzhgxqhja7nggAqq+zZp9ds1aR9TXrE/keVGk9uaLxIrp64p5MFAA1X5QS96ZMO7J9EOewXsX1ysVTrJeTzFuR5HCmKuYmd2lJTnu7cnGechAuuTy3yszBz88X+fziagE6Q3QVx7wnEs/XDrjwm/QU9nSMRHcdkuc8XVfsjdsUS2mFB07uiFYUESIDwFPbOigsSkTjAfrLmcr1mIsvc9z6iy9/3IyGTm+xnidUZf68OON5vY4fi5RGWm/KZhxR0N+cYD3l83oSYs1X8X7k+s5zbBf76dw+vJC3s9O6OM/OE5QX99V5gPJCH/7zl2a8Hv/49lnb24f375++ijv+nT+Dw09Pn9DZj38D);lineShape=1;" parent="1" vertex="1">
          <mxGeometry x="66.74012988563561" y="252.23739048851553" width="122.6234321489793" height="88.61812067143671" as="geometry" />
        </mxCell>
        <mxCell id="HVyeGtr5qmuluz8HAJte-77" value="" style="shape=stencil(fZbLUsMwDEW/JluNbdmWvObxH52h0AylZUp5/T0yIW5lEu0SJyeypHsVD3jzttu8bofg3s6n4/P2c3w47wa8HUIYD7vtaTzL1YB3A948Hk/bp9Px/fAw3b9u6pv16uX4Ub/wNXHMgKFSwX1PK+gh5N+V+wnYj4croCQoUQHRA1tAAcoKSBEwmkD0CsgEWAwgQtEAFchpHeAMpHPgAhzWAUo9UDKwESEjOFaAdw6cWyeS64nCc6UXAWRwRQMIxOtAkFbrCJzAGZ0LHoruHEkEIwdfIHWdc8DWlkRrpMVEZtKBwGkAMwSjEfIYnQLqJ4xW1w3oKtVNGoCk2KlPyhCNstYihj5CMSLUNnVbklYaSVchaGlUsZABcG/qKkcjhys1t1ajHaIZpompmWo562bJJtdsAhfTN0O0wbDcOYKoc7iMnmWPyuDKPUBGmepo7Dwq4xMNuYrWNFAHtLElATp9Xyb6muWwiyBqMbbkA7C2HGUoxhQQQ6JWBs8rywF6YSQ2DfdPeWJZy28O6N/ISFbTwOv9S0be+sHNI675P5tDzxPkbtKb9akDq3Pz/IFlSRAkbWY3LyznyxBT9775pyrgdUHDPJ/+3peLy3njcdzvp+PK9fP+fCJL09kG734A);lineShape=1;" parent="1" vertex="1">
          <mxGeometry x="218.21635455482283" y="268.2186487597038" width="3.943354247905745" height="3.941098792215371" as="geometry" />
        </mxCell>
        <mxCell id="HVyeGtr5qmuluz8HAJte-78" value="" style="shape=stencil(fZbLUsMwDEW/JluNbdmWvObxH52h0AylZUp5/T0yIW5lEu0SJyeypHsVD3jzttu8bofg3s6n4/P2c3w47wa8HUIYD7vtaTzL1YB3A948Hk/bp9Px/fAw3b9u6pv16uX4Ub/wNXHMgKFSwX1PK+gh5N+V+wnYj4croCQoUQHRA1tAAcoKSBEwmkD0CsgEWAwgQtEAFchpHeAMpHPgAhzWAUo9UDKwESEjOFaAdw6cWyeS64nCc6UXAWRwRQMIxOtAkFbrCJzAGZ0LHoruHEkEIwdfIHWdc8DWlkRrpMVEZtKBwGkAMwSjEfIYnQLqJ4xW1w3oKtVNGoCk2KlPyhCNstYihj5CMSLUNnVbklYaSVchaGlUsZABcG/qKkcjhys1t1ajHaIZpompmWo562bJJtdsAhfTN0O0wbDcOYKoc7iMnmWPyuDKPUBGmepo7Dwq4xMNuYrWNFAHtLElATp9Xyb6muWwiyBqMbbkA7C2HGUoxhQQQ6JWBs8rywF6YSQ2DfdPeWJZy28O6N/ISFbTwOv9S0be+sHNI675P5tDzxPkbtKb9akDq3Pz/IFlSRAkbWY3LyznyxBT9775pyrgdUHDPJ/+3peLy3njcdzvp+PK9fP+fCJL09kG734A);lineShape=1;" parent="1" vertex="1">
          <mxGeometry x="208.21635455482283" y="304.2186487597038" width="3.943354247905745" height="3.941098792215371" as="geometry" />
        </mxCell>
        <mxCell id="HVyeGtr5qmuluz8HAJte-79" value="" style="shape=stencil(lVfZbttADPwavRLc5V58TtP/CBCnNurGgeNef1+6xlpeypogb7I83OUxQ1KTPLxvn942U+T30/HwffN793zaTvJlinH3ut0cdyd7muRxkoeXw3Hz7Xj4+fp8+f32dEaen34cfp1P+HOxC0wiZ6vIfy9vInH7/+LrBb/fvd7iC9U44EMiDusGMZOWwUCYqqwbSCQZDVKkosBAKYbBIOfu5F2DVCjWwaAoBRB0Fgpj0C2QIoPmg1YzAC6VQtLGG5hKXjeolkQeY7A7KzDIvUzXLBVikNZqadVFHUDQLVHLI5WMLMClZjeM3DMuoToodyJcgyZlgA8UksMjcqtxf3Qok4AUqVB0VKWG8IlqcPiSAL74BBkeJFRr58yMR5zQRs3Hm4GWVbu7cz4jkHJgJh5ZWokLvKBVh1fskFNy67JYCziOCdLe/tYKoOLwFahSM6Xk8NB/IfX4iggUKTeHT+j80Os556eh/LCXcOuKWBXkiK8fCVg9gQQJIHjBZyrI/0gtOjz0P1Ec8QnzJ/fRdSNIdH6lyA7fULyNUnX+C/LHyu/jhYJXz2fr0Khe2o+b6wvj/Sy+9uuvEyBTwILJI4HsBjTrW1tU2I4ALcimmN8mrGehG9j3IJvNiHS1UBpJcd4m0CSO3ePbbQK0ocKLtM6d+P7CYsJ3VwglkKa0GPZNYCuSumjt1jyQgf1dfCFQc4lWWLewJDyeSm/O19XUdk+0Qy32ldwH+l28MWMkq8D1YDEsBcZr8DGhEVaM/WgKUPq2OrGDB3D6lcEdznCzkb6HzfAIEp96F5zhDPhvW0z1cED+4rcgpgBo03yZuDfh+y3L791Xqa3Am887Ov3T328f4u1h/lh82e33l2/N2//9x6W9unyYyuM/);lineShape=1;" parent="1" vertex="1">
          <mxGeometry x="253.72832489898428" y="262.7274100156385" width="24.070385537990433" height="42.616562569033135" as="geometry" />
        </mxCell>
        <mxCell id="HVyeGtr5qmuluz8HAJte-80" value="" style="shape=stencil(lVvZkhzHDfyafa2o+3iWpf9ghChzwzSpoChb+nsltO7mVKI7x3zbozFdB5DIBDAv5YffPrz79f1Ljr99/fL5X+//+/rz1w8v5R8vOb9++vD+y+tX/PRSfnwpP/zy+cv7f375/Punn99+//WdPWk//fvzf+wT/nizm2E1M8rxz7c/lBrq+PsvP709//H108PzI+T+Pc+30OP+fAsj3T+PT6vb8zWGNO+fL6Hun19nSOLzS4hpe77lsNb98zn0/XzaDKWr5+v++b2EJtafw9jX31eY4jxr6PvnjxJyVfeVyv78+QmXz89QJz9f2v3zK4zJ61HPpxRm3jcMF8zCAPvb39BTWOJEUw1xN2glTLWketzo6UMjRLWkHuLuFBWXrA0KeV08zvn/NWhhFmlAcWCnJO4ZBm3xPfwvVO8M1v6GgdgWnpcGh8LMIQnXTvP492kAtFGbXiHtYLGidO6cQiMDvSQPF3hDEqdk8bn70mwHwl4b9CNczmNd0jUQ0WsPoBGPkLo2WCETJOGUBOSVyJhREeXipmHQ94srUzofDOa+JCwyimP1b8jx2ZLKbpA0jmEBfY+HcfjK9QsSYwCAqqgtpFAyb0E5KwzG4EOaIvWUHBrd23kK1wYl9H1JLclkhdwdCWWQv9SSOr8B6SGqY52hEWikkMS9YYuVQKMdKenaIHPAAWWSWFJFPnEhrS6utuMQH/agwLsCWilJ9yMErw2AlC6JKgxAANMegAFN0Yx1YPsDT1LAV0/fPJ2vhiRcozrmUMYRIXcGdNNw+KhOaTEGWDyom14HNX0gk1HsAVm8UQB1eQ+Ir7kfaweXEFgM6tL2YwUfG+oN7bjXB+dr4pTaOCL4MYCUwQqLDIY8JWBEzPwGFQ+gzGPHYjCHJiKut5CJmwx5Sjh1NsiS8vXuaGs7+NC1wTjC5SHi5CmNwxFOX6phCiDDkhjusWkBld0xB4MFAQIGKgQCmtyDicR9SVBLVRzrSKHuYGxySdy0pQ8CsnlQ5WuDejjzedMajAG9hBrjTJPXBuMQbI8G6pQcIYPzqRw3XY6DSKzClxDyrCqbpEuIr7mfEuSDwqVZGO5NoIh4mPVYwIMEUs4HjKjkrVUGkIGKSyhKWc5+VApOgyRjejrdl0/ZdbckwlYokKz3kPdTguya6uIKu3cCe1cXhy1SfpB5fUbOJ0uiEpybChSmNMWWLRqI5mbp3DBIO1BaEUJsGQbEvMEys8KMxUUfKwjoACXl2nR2gAGJ6V4PpXl3baSYTPWpe84OlbokP/CkRaw1ShIKXyUSallaRfRw1KRp3JucsAwUxKYhzrN7QxZLgvwn1Td1hluVhShOKYubXv3QOw/3oITlGux8APuh9gCUI045ZYl1TS4uwUCRHxgMIj9Dgv1aXEGwN6hjXaFFtwcBAmsxRbS6qX4DsVbwAHVxKUYWu0jTXV3EchWyeoTInQHXHFooAlyXUzQW1CJGcXMU1DBQ5WUYsN7oh3vdGSRnoGqhcFdGMshptelxIYEkCoxQifKVoyR8a0AxmmQt1JZEx/oEBYbjV+tZyCWqek/9hslLshjVzse1nCGLduZ8rmKsKpUWo663UZ/EqEtySopex6hqF9krqNyqyfpaXIWD96mG0fcbTG6pIdkrSYOUQuc6n0RQ5bL3XLJ0v8pRdz9JX5I1spXYv5FZFdFFpiZOBgNJ1ifXZp4ZDG4D2ZIUxWpczLFugqIn9RAw57Hq3uN0zT58hKrNwBFI+Bk1VfohHungwb1VUW24jNK1jhvAGWqIDkmxvDyuWnHAgAq0oOsqtY/B9aWs+xWW0nbXyFH6ki1pN0hFyuMxXc9Fyrhx6vlzRbKra/phP9QoMxw8j9q6UfZbTAxQ+0Q7auNwrrJmAiVNGXfKnq41AqnboqnVHFyvS0srMldSx5VlLU7IoGT9hsHVtKKJPQyIp9cu0+HsjPNWPlZu1JhaWXFXGVTXZtbtzVmc/EmSA1i12rWZl6rX+Xy79ESEc42ppfRo3Kn4VpC7K1KSXgIeSLhIXCcy5SD2ACJFyrgvWfYx9kj0sDyrLtMb2pS9QaswUg1ES2kY8BTFPGYSbg2oxRSPXd1W+Sni9D2YSqVpoidtgcm8x/pgqlPh5q1ak9nQv6EnvenpQlQ3sbory8DhpS91V2VJMkH3ytlnDu0ameEeBFOVxwBbFHEge7Kv5tozVjsSEdfqRfFK1X5bZvQG8Cgd0CKTjG/9l0uD6tsz80jb1waDgcxapOoNbtrP2u1PDCjisiSs1VW7rKSum7pcUj9H7u6OlTZtiV01dRNPFZUkQxQGhQxwDAI1zIBQ40lTN3EWbUWCQIvMr3qWWr06Ajo04zMS7+aWngw50Btml3CPM6F6A0JUBZBh9f4GU3xiScX1+6GLFdcorlA0z0VeGzRXsGuysmQjOQT3VRIsxFdyrqGqYyW6LnDSE7Dr+PdjPGgDcm+oByWkjfzvFwd5pSrY2TUGhiSV1rOilpEsm2KDnRKWnphLXLhK5z3e3tqefiDIVNMLBnnfsY31Ccjwb3iiNrAHSnBAHfmG6BoVWRYQzS8IY4pUG7hVam5au1MZNO5KgzcoYM2FSesaMjmYDt7v4aEGeV2jXFzOWEvm0DR4Mnd1KQaSo7kGlGrgubEYmFWPI/up8yEhwNS5b2KpSm5x8zVZhpwFGE1Idz20XZw41jV7e8N+DwBKOfDcmLXa+KO+uEkKKMuZOZvB9gNq+g1UQGy6YWSj7U5uSNdoHNSQB2r+Eq5BIz/WbFGT6udc7WnQpRhIyfXhlhxBSJGp+tSyb/JU69R0zGnpqUeKGpff8bz+UgsXKPQgS2alMaN2I8f1uqyYRAf0WQaC6+JAk6r0GZkOfxOMd+vZPx9RoMbSIg/xN90JSDxIBO4qv6LCs1Bl6eF07u2VKnusDhuRqyXV5hpD1r1DJwvh4ao25IoeT553A3L5bHndPE8ohxWqyWDXd89DTq642WbsKKuWHjPmvOQoDQCISmElynmJC4MkWcgVh1dKx+0YfFIOofCJQsjI3jCLQXi07IezR5Qqv4b3vV9rfP48fvj2HcpfXj9+fPsK5uP/+TuX+NPb9zXLj38B);lineShape=1;" parent="1" vertex="1">
          <mxGeometry x="287.2814634799415" y="257.82064796628435" width="153.3010099473238" height="43.173424549853394" as="geometry" />
        </mxCell>
        <mxCell id="HVyeGtr5qmuluz8HAJte-81" value="" style="shape=stencil(fZbLUsMwDEW/JluNbdmWvObxH52h0AylZUp5/T0yIW5lEu0SJyeypHsVD3jzttu8bofg3s6n4/P2c3w47wa8HUIYD7vtaTzL1YB3A948Hk/bp9Px/fAw3b9u6pv16uX4Ub/wNXHMgKFSwX1PK+gh5N+V+wnYj4croCQoUQHRA1tAAcoKSBEwmkD0CsgEWAwgQtEAFchpHeAMpHPgAhzWAUo9UDKwESEjOFaAdw6cWyeS64nCc6UXAWRwRQMIxOtAkFbrCJzAGZ0LHoruHEkEIwdfIHWdc8DWlkRrpMVEZtKBwGkAMwSjEfIYnQLqJ4xW1w3oKtVNGoCk2KlPyhCNstYihj5CMSLUNnVbklYaSVchaGlUsZABcG/qKkcjhys1t1ajHaIZpompmWo562bJJtdsAhfTN0O0wbDcOYKoc7iMnmWPyuDKPUBGmepo7Dwq4xMNuYrWNFAHtLElATp9Xyb6muWwiyBqMbbkA7C2HGUoxhQQQ6JWBs8rywF6YSQ2DfdPeWJZy28O6N/ISFbTwOv9S0be+sHNI675P5tDzxPkbtKb9akDq3Pz/IFlSRAkbWY3LyznyxBT9775pyrgdUHDPJ/+3peLy3njcdzvp+PK9fP+fCJL09kG734A);lineShape=1;" parent="1" vertex="1">
          <mxGeometry x="123.21635455482283" y="353.2186487597038" width="3.943354247905745" height="3.941098792215371" as="geometry" />
        </mxCell>
        <mxCell id="HVyeGtr5qmuluz8HAJte-82" value="" style="shape=stencil(fZbLUsMwDEW/JluNbdmWvObxH52h0AylZUp5/T0yIW5lEu0SJyeypHsVD3jzttu8bofg3s6n4/P2c3w47wa8HUIYD7vtaTzL1YB3A948Hk/bp9Px/fAw3b9u6pv16uX4Ub/wNXHMgKFSwX1PK+gh5N+V+wnYj4croCQoUQHRA1tAAcoKSBEwmkD0CsgEWAwgQtEAFchpHeAMpHPgAhzWAUo9UDKwESEjOFaAdw6cWyeS64nCc6UXAWRwRQMIxOtAkFbrCJzAGZ0LHoruHEkEIwdfIHWdc8DWlkRrpMVEZtKBwGkAMwSjEfIYnQLqJ4xW1w3oKtVNGoCk2KlPyhCNstYihj5CMSLUNnVbklYaSVchaGlUsZABcG/qKkcjhys1t1ajHaIZpompmWo562bJJtdsAhfTN0O0wbDcOYKoc7iMnmWPyuDKPUBGmepo7Dwq4xMNuYrWNFAHtLElATp9Xyb6muWwiyBqMbbkA7C2HGUoxhQQQ6JWBs8rywF6YSQ2DfdPeWJZy28O6N/ISFbTwOv9S0be+sHNI675P5tDzxPkbtKb9akDq3Pz/IFlSRAkbWY3LyznyxBT9775pyrgdUHDPJ/+3peLy3njcdzvp+PK9fP+fCJL09kG734A);lineShape=1;" parent="1" vertex="1">
          <mxGeometry x="75.21635455482283" y="350.2186487597038" width="3.943354247905745" height="3.941098792215371" as="geometry" />
        </mxCell>
        <mxCell id="HVyeGtr5qmuluz8HAJte-83" value="" style="shape=stencil(lVnbUhsxDP2avGpsyzc9U/ofzBBKppQwgd7+vnIzXtZychbewq7OWtcjyez45vXx7mW/C+717XT8vv99uH973PGXXQiH58f96fCmv3Z8u+Obh+Np/+10/Pl8f/775a5Jtl8/jr/aF/6ccVEo+oYK7u/5SaUg/x98Pcs/HZ7X8kxhknfX5blSqVa+APlIno185OvyQchbfYoH8pGcDPJCDPTx+joN8t5RAgr51L+3AAL0UHs9WuwjhXwdoA6Mo7z0L1yUz5TyIB9URSBfbQTYk0MWM8loMaf+5DKgkoQRUIlR0BKFMYmio5BAFgWS0UdRbQA+1dcs9oSIAEKSrQ0IkAqJs17ywEs5Tm510K3FUTWBzjCRSuqlvgB8d/RlQCU3xsFnWD1lrp5ALkBAtuWcAB2pRia51Wsgk0rpx7+Xf0X6pJ5niwEJA5jSCFCNPLIgWEJVCuQIAL57ZDE5YZs9yahSy0UUNaY4OikL5LySbX1qHBNQqWpxjTZUDQwwui61ssRNiRywqjgqhucLeRA4fS0GkCmjE6pN1QYA5SYy2ZCpgtRQQA7WBlTQChBvAQW41TvXvbggcH/WI6pYQNkwwpwgW0b4aAEZZJ8qkIoFVNAdWqiTBQgKdbE0poACiLIFNlhAQidkW3IKcMitubPKKg6IKRugWIBDXsqdhlbJlEAytfSfSw671dqQsVuLHSbbmaioq51utwEzC1Rkg1gm2+IZzU2e3IorzqpUcWrIlN4VGy19ZF4l34YNPAESdmuZShSyhg6h2QJgiX4WUMUuAisyvIzwE7vqLIAab7aAWmFb1FmARyO0UaL5SvuymeD0iaBdoFA2swBOJgW4adooSKVCcTyBuQ/jlwFaoyPPhGWGumZ0NhtW7DV1bTA2s3qFgdb5x40aMXk0Fi/9qctvJBLbQR0bXOPUHPocfu37Zm7QFQ0CPJVRIb8xIVYbZDUB7ZTqUuOigMeGPLVcTaMKbEjSeXq9kAEbkrfdJ4bOIdd2xDrmXYyQ9XQLjQaQeq5f3nOnwOkJyGhdv0ymRsZNvQ9GqzWXkVf71rw4VfkAMJifgsDw7sBZ1ta0yCAtpnFVtyuG8oaB9QkaPsNUORlGLNm7Et1vBVWa3Q4FcqN+rYzxLVAdLdsy+ifBhtOIzeQDvKtqRTv6h+GlR6N+y3SISefbQu7Xex+8jcTfn287GXa/5Ka7MEgRKl/t91F6KgdN+qB9TeXNJVLsDrgsP90tRti8Vd7ok+D8Mctn2PlmfXJfoj9ob8H+n/xZ4Oo4x2u5BfhgPlTo/0/frm/K64/3q/yHw9PT+T8B6/f26l8fnf9twLf/AA==);lineShape=1;" parent="1" vertex="1">
          <mxGeometry x="85.79943373616061" y="349.4890152380931" width="53.03064138106606" height="61.733685902312914" as="geometry" />
        </mxCell>
        <mxCell id="HVyeGtr5qmuluz8HAJte-84" value="" style="shape=stencil(fZbLUsMwDEW/JluNbdmWvObxH52h0AylZUp5/T0yIW5lEu0SJyeypHsVD3jzttu8bofg3s6n4/P2c3w47wa8HUIYD7vtaTzL1YB3A948Hk/bp9Px/fAw3b9u6pv16uX4Ub/wNXHMgKFSwX1PK+gh5N+V+wnYj4croCQoUQHRA1tAAcoKSBEwmkD0CsgEWAwgQtEAFchpHeAMpHPgAhzWAUo9UDKwESEjOFaAdw6cWyeS64nCc6UXAWRwRQMIxOtAkFbrCJzAGZ0LHoruHEkEIwdfIHWdc8DWlkRrpMVEZtKBwGkAMwSjEfIYnQLqJ4xW1w3oKtVNGoCk2KlPyhCNstYihj5CMSLUNnVbklYaSVchaGlUsZABcG/qKkcjhys1t1ajHaIZpompmWo562bJJtdsAhfTN0O0wbDcOYKoc7iMnmWPyuDKPUBGmepo7Dwq4xMNuYrWNFAHtLElATp9Xyb6muWwiyBqMbbkA7C2HGUoxhQQQ6JWBs8rywF6YSQ2DfdPeWJZy28O6N/ISFbTwOv9S0be+sHNI675P5tDzxPkbtKb9akDq3Pz/IFlSRAkbWY3LyznyxBT9775pyrgdUHDPJ/+3peLy3njcdzvp+PK9fP+fCJL09kG734A);lineShape=1;" parent="1" vertex="1">
          <mxGeometry x="154.21635455482283" y="368.2186487597038" width="3.943354247905745" height="3.941098792215371" as="geometry" />
        </mxCell>
        <mxCell id="HVyeGtr5qmuluz8HAJte-85" value="" style="shape=stencil(fZbLUsMwDEW/JluNbdmWvObxH52h0AylZUp5/T0yIW5lEu0SJyeypHsVD3jzttu8bofg3s6n4/P2c3w47wa8HUIYD7vtaTzL1YB3A948Hk/bp9Px/fAw3b9u6pv16uX4Ub/wNXHMgKFSwX1PK+gh5N+V+wnYj4croCQoUQHRA1tAAcoKSBEwmkD0CsgEWAwgQtEAFchpHeAMpHPgAhzWAUo9UDKwESEjOFaAdw6cWyeS64nCc6UXAWRwRQMIxOtAkFbrCJzAGZ0LHoruHEkEIwdfIHWdc8DWlkRrpMVEZtKBwGkAMwSjEfIYnQLqJ4xW1w3oKtVNGoCk2KlPyhCNstYihj5CMSLUNnVbklYaSVchaGlUsZABcG/qKkcjhys1t1ajHaIZpompmWo562bJJtdsAhfTN0O0wbDcOYKoc7iMnmWPyuDKPUBGmepo7Dwq4xMNuYrWNFAHtLElATp9Xyb6muWwiyBqMbbkA7C2HGUoxhQQQ6JWBs8rywF6YSQ2DfdPeWJZy28O6N/ISFbTwOv9S0be+sHNI675P5tDzxPkbtKb9akDq3Pz/IFlSRAkbWY3LyznyxBT9775pyrgdUHDPJ/+3peLy3njcdzvp+PK9fP+fCJL09kG734A);lineShape=1;" parent="1" vertex="1">
          <mxGeometry x="161.21635455482283" y="398.2186487597038" width="3.943354247905745" height="3.941098792215371" as="geometry" />
        </mxCell>
        <mxCell id="HVyeGtr5qmuluz8HAJte-86" value="" style="shape=stencil(lVfLctswDPwaXTEk+D6n6X9kJk7tqWtnHKePvy9UVbEAJcvoJstYkVzsAuAQ7l72D8+7gd3L9XL+vvt1eLzuh/BlYD6c9rvL4SpPQ7gfwt3T+bL7djm/nh6n388PY+T49OP8c/zC7wlXIrU4otj9md4wOffvxdcp/ng4LeMT5aTiC6UE4gO1rOJ9olYBgC1AdpQCBDivAQ2v4CmwAoRCDa3gqGpATFQwIOozJKaKtuQo6TOkRqHDklOAHCkyAFQKTQMaZZDoGon1lm5SeR9QKGplVKEBnKFJHooGZKqA1saWJfmERwA5oj50y5QyBATthibyBodukXzVgDrn/iNai1mhEXfkHSyggBVSoWAc5xz0dGTiYpdoQExcVzQ1SJMv5KKlqTbA6/y5RbwDC2TK2qGSN1dAGigbJWXygCIpWmzyLG8QRWkuKW+ASAkAQrM1QwAO2CdF67cmtRaUYjG8qXujeoH06lvhXQD+8/aRQfOKpYDsU6ms8sBISDcpLzLNaE+ZolmikkfSEHE7C2hAqyXPHXDhBkRTZuvQ0W8gc7HMpCwBQBuBqay2VIC+WUr1qsogbXi/OnSFqRY/mnjpF2jQIJe3xHvKJt4TgzK50lEtsMK4uUp/srsFirqmdtqndIFN/dlLI9Fe60wAUoO9GUrwjCEA1vWiM8V4ad96hc6cJABjhM4kJmU4a1Y7s97Ikj5DZ5r0wQI686pf9Wc8EEt82TJwy4bMwO1hHxk59SbeAR+IsJPOgZud9H58thOPg76XUlS9ifdg/1GM2Uw8HF6E7i3x0jZr2bCf7O3Qic+by/y5z/FZVlMwzpeUEaM3rIfNF7xuvDzcbpNPh+Nxuowu/7e3T3k13VzD/V8=);lineShape=1;" parent="1" vertex="1">
          <mxGeometry x="198.29167621500414" y="349.7970737781724" width="3.8968018444220434" height="60.10331796970365" as="geometry" />
        </mxCell>
        <mxCell id="HVyeGtr5qmuluz8HAJte-87" value="" style="shape=stencil(lVnbchsxCP0avzISSEh67uU/OtO08TRNOml6+/uy9WhjkHOcvjlZWCEu5wB7kDffbz98uzlw+v70+PDl5tfx49PtQd4emI/3tzePxyf7dZB3B3nz6eHx5vPjw4/7j6e/v33YJLdfXx9+bm/4fdLjQdw3LU5/Tv9pJPzvH+9P8nfH+3P5SjyifAfyiUoJ8gO8PyupOPlsb8hAoVBKXqGSJKCQiZtTYKasQCFRYq+gUKHTyE5eElVwhU7ZGySFOrhBo+btkTEtfOH94kNQGhVg/6DiPVqZWoUezT6HaqcuQEHiDdRihhQaJe/SxpSAAuclrftMxMsKGk3qhQQETYRYvcKgCrxUEql36xB4QjGLfSmMCmuzKkmNCgpO0BKLeVg1gTtsXvdxGIkaOMG8PnwceqUBctseJ18MbVADgTOv9yU1CkAk8zr7OJgb0B3MiaE+a4P1ZgrDp0axkhpQQbyXClNt8A7qAydKFZmUJ2LtCnnm72W3NuoB9PYavKwg1P0JLFQRio35eFewXEIKJeJq3ivkcnoPUm/Sxi7g0pYIIdLGJRnk0oZzQaFAL1WJqWFYmEF6W+bUcGnGMFMjapgCg9QoeYLKrpAhekuL2GoKiKIt1QIuGaUiQtkyJyAfNYT2TNKCfAGZZOwQ5DtEAEtMjU1MQ01SIvYXVhizVb5CZtjs8f6xxMVsGAKAk27zp78vY/KUpZQpI/+XWehn8qAuzR0B45kU+V9nujzftyD5Fv1TIIWYvHp76sTjl+SLh2ulgeJlj718h7S89aMxnwf2Zw40jvNTprln9YjkeVL2K9+fSXu0Hw8VvUb/YPmQz+bgK/UY43ul3ksgfEh9dt/k7yu4vnLMB54A8FK88lJfoJ0wc+U/6/e/5IXjyCWwkZUe7S8Qz61bCv4s02GX5TW+v8J2qy5DrEL8rDXaY/kG3q9prV9U7zYtaeQ7AfdtOeKPMXYCF2gtJvTWpoATOi9tSoUQZP1lGDLzwEPp3pSc9ZcdOMma6khKA1bB2J2+ZymeSseYLHTWtqOmOqcUlxXW3yE32RHJ37piqBsaoVEVNmdjbwX23qZMtn0pcsPfwYKPurNuk4Y/oV9JV4n0amMpwjtd6s1iyahv19kSP3eke2guQ0abXtyPGJDzDcPC8DEaJAVZSMRCUzArB5baQoP2NLoM4xnO1tsgELYoBRJzi+OQdrimKbGv1owb0xi2WiBo2Jjh7dl2KlA+8ojAalvKeWMu+P4SeB8Tf447JiMGNOZzBFXLETTwSuyTDYQRzNf59AzlGRVm3AlcmRRtDIvLaLh4LHGrsSfsZXlrW739CY7367Ibg8S6TDd55H47nqM9gKFMPmxAEpxTbPAOK8cEy1d49SfCXdlXEWdzIloEGFGELdQcfF8pj+fc1R4MV+t9K8y31Z+YW9d4KVx+rvnQJsS/Mt+ufLy5Km8/nr8UfTre3Z0+NJ0/j1+W7F+nr1Ly7i8=);lineShape=1;" parent="1" vertex="1">
          <mxGeometry x="235.22500056995136" y="358.2000802271907" width="50.46537909648623" height="48.759680288568234" as="geometry" />
        </mxCell>
        <mxCell id="HVyeGtr5qmuluz8HAJte-88" value="" style="shape=stencil(7VnLctswDPwaXzHgmzyn7X9kJk7jaRpnnPT194VqUxVBean01ENmcnBsrEgCWHAB7dzNy8Pt835n+eX1dPyy/3G4e33YuQ87aw9PD/vT4VU+7dzHnbu5P572n0/Hb0935/+fbyfL6dPX4/fpCT/POGNJINMf/zp/4wOF8OebT2fA4+FJAVIDCEzBA4ChrACJHFrBUIkNIFryGQJSbgF5tEIwDSB5ihYCLs+rgMyU8Aq+dWuO5CIExNIAiiFTYBxMu0LxlA0EJG4BqfrtGiCoFcSteAVmDcjYraZ1aylkkZeYuAOgwGVKTttfsnHVXjKzPYFhrodaBYR6wK0ATy6/ZUeOOL3lxB15Ri7t0gjHTMhetD1KCibfUm2QddzlkIPlhXXEcq4nunbe1j/CZAv2b/XzE1ME8XU6IUKB/gy6dnnxJ7BPVNr9uEQGsZh1wtlIBSSccRRbzpgMM1p+Vi4VXjMImXDg8vNcr8kil0pdaXPIUgbP91JLW84wFRDiYHTMmIy7bh9Xno8clOQyKMo+AHvJyKyqEEUQYsn41FZFRx5QXhhb2vNKUoHnSwUp7fNNgAGeSk7WgAI8KjVBaQQT6324DggdIJFFW3JVQiwAAW2JK0s2AiQKqjIOtiSKQAPwoXOoTN/o1uxrnm0MnABiy0zjIRVkS0F5ydXYrwNSpfoMEJmBAKXqpgXAADaLbspttZgEJQL4eoEtVmAE6AMntwTK1qzVoHiJQZEXAukV5F4BcViojkXkEuaoXiLU4F89hHJTJA808IqbEjGqM75TX4k8uKqmUHeAAABTMgUNcAjQp2usF/BWQuDLbYVyATYvK6T25N9WBQYAOYOiHGOOiiRqAaLxwAUUS2XwLJJqU7l+QbsqeWeRBBtCV3QiBaghXdfpJNjdiV5Jis9zJq4DbHf7zCVhnc+lRmiWPJKJqOFMtVtc6EKPVFvQulCEZ0DdnVSgljuibKGQtLXsLqRzwv2j4s6kzfEKqtSPxL/TiTfoLt6b5ov9e9P8PzfNpsuhwSxI65HRsEkPp0bTrFr+t47Laku9dR5Hrs3Q0cBPU2Y0UazCfePIkms/unEmKvatP0dDV+Ko7Rnah3Y/3tcMvDbksNoeDRUcOfX8+XK4wt8QtD2Kb9fdiT3qmJOO18A+a4Ez2E+h1O0Hndd0HfzAodNEOmkAith0bSiXDlLiXwb9A4B8+Pte4f7w+Hh+LbH8Xb+HkK/O7zDcx98=);lineShape=1;" parent="1" vertex="1">
          <mxGeometry x="100.45804726461574" y="423.6208952867694" width="23.519188015656027" height="64.50325605379112" as="geometry" />
        </mxCell>
        <mxCell id="HVyeGtr5qmuluz8HAJte-89" value="" style="shape=stencil(rVZJTgMxEHzNXFu22+uZ5R9IBDIiJCiE7ff0MHKI3UwRJG4Tp8q9V3vgi+f1zdNqcOb5sN89rN7G28N64MvBuXG7Xu3Hg3wNfDXwxd1uv7rf7162t/Pvp5sJOX097l6nG95nXqTkJ5IzH/OBIWO+Dq5n+GbcnsDZEpsGz1TyMt4HirbBO+K4jI+WbGzwlkpZxhcmFzv/Hbi/BPK9PxnhE3GbH2vIgwSVTDm0BhwZFEGh1EbAUhNgwZpjiSojOMgQE4EbQsw1DUtB+NZCduSQBdVGxVF0gOAptXUQmwE0ktzXxSBR+QAIUifXEgJZv0zIuXp8DDqSBVnKqZ+FJN0ISi33xa5wmQxySRG8jAMIWrskAx6RSypoy5RRHSStbR18bfgz62YoILxqDFsNntl5kgI0brkXAJsoo1lQwyMaGP82n158QsOgJCAyJiiRSYkKIigZy6UK85k6KVeg6dFCPEX1nwS9GiQNBsSgd4/EEIEFvdykuwxIq+q9k9r/SAhVUE5VD0wDV0084j25tIwXle7KnKoK/tyrZLs+ynC7mTpbx0ZNlMB06k2FE6onR54XIF7lDzuYHxWvnASgFiqfVuQM3K/qFWB6VDtYuNL++Fb7FS4f38/Cu3GzmV+Vp//3z0g5mp+gfPUJ);lineShape=1;" parent="1" vertex="1">
          <mxGeometry x="102.60356865575136" y="467.5933202004269" width="20.730518754968216" height="2.8133595991462244" as="geometry" />
        </mxCell>
        <mxCell id="HVyeGtr5qmuluz8HAJte-90" value="" style="shape=stencil(fZbLUsMwDEW/JluNbdmWvObxH52h0AylZUp5/T0yIW5lEu0SJyeypHsVD3jzttu8bofg3s6n4/P2c3w47wa8HUIYD7vtaTzL1YB3A948Hk/bp9Px/fAw3b9u6pv16uX4Ub/wNXHMgKFSwX1PK+gh5N+V+wnYj4croCQoUQHRA1tAAcoKSBEwmkD0CsgEWAwgQtEAFchpHeAMpHPgAhzWAUo9UDKwESEjOFaAdw6cWyeS64nCc6UXAWRwRQMIxOtAkFbrCJzAGZ0LHoruHEkEIwdfIHWdc8DWlkRrpMVEZtKBwGkAMwSjEfIYnQLqJ4xW1w3oKtVNGoCk2KlPyhCNstYihj5CMSLUNnVbklYaSVchaGlUsZABcG/qKkcjhys1t1ajHaIZpompmWo562bJJtdsAhfTN0O0wbDcOYKoc7iMnmWPyuDKPUBGmepo7Dwq4xMNuYrWNFAHtLElATp9Xyb6muWwiyBqMbbkA7C2HGUoxhQQQ6JWBs8rywF6YSQ2DfdPeWJZy28O6N/ISFbTwOv9S0be+sHNI675P5tDzxPkbtKb9akDq3Pz/IFlSRAkbWY3LyznyxBT9775pyrgdUHDPJ/+3peLy3njcdzvp+PK9fP+fCJL09kG734A);lineShape=1;" parent="1" vertex="1">
          <mxGeometry x="158.21635455482283" y="435.2186487597038" width="3.943354247905745" height="3.941098792215371" as="geometry" />
        </mxCell>
        <mxCell id="HVyeGtr5qmuluz8HAJte-91" value="" style="shape=stencil(fZbLUsMwDEW/JluNbdmWvObxH52h0AylZUp5/T0yIW5lEu0SJyeypHsVD3jzttu8bofg3s6n4/P2c3w47wa8HUIYD7vtaTzL1YB3A948Hk/bp9Px/fAw3b9u6pv16uX4Ub/wNXHMgKFSwX1PK+gh5N+V+wnYj4croCQoUQHRA1tAAcoKSBEwmkD0CsgEWAwgQtEAFchpHeAMpHPgAhzWAUo9UDKwESEjOFaAdw6cWyeS64nCc6UXAWRwRQMIxOtAkFbrCJzAGZ0LHoruHEkEIwdfIHWdc8DWlkRrpMVEZtKBwGkAMwSjEfIYnQLqJ4xW1w3oKtVNGoCk2KlPyhCNstYihj5CMSLUNnVbklYaSVchaGlUsZABcG/qKkcjhys1t1ajHaIZpompmWo562bJJtdsAhfTN0O0wbDcOYKoc7iMnmWPyuDKPUBGmepo7Dwq4xMNuYrWNFAHtLElATp9Xyb6muWwiyBqMbbkA7C2HGUoxhQQQ6JWBs8rywF6YSQ2DfdPeWJZy28O6N/ISFbTwOv9S0be+sHNI675P5tDzxPkbtKb9akDq3Pz/IFlSRAkbWY3LyznyxBT9775pyrgdUHDPJ/+3peLy3njcdzvp+PK9fP+fCJL09kG734A);lineShape=1;" parent="1" vertex="1">
          <mxGeometry x="158.21635455482283" y="466.2186487597038" width="3.943354247905745" height="3.941098792215371" as="geometry" />
        </mxCell>
        <mxCell id="HVyeGtr5qmuluz8HAJte-92" value="" style="shape=stencil(lVjbUhsxDP2avGp8k2U9U/ofzBBKppQwAXr5+2qb8WatzZ5M38KiY1nS0c27fPf+/PC236Xw/nE6ft//Ojx+PO/yl11Kh9fn/enwYb92+X6X756Op/230/Hz9fH899vDJDn9+nH8OZ3w+4xTpsITKoU/5y+RNP378PUs/3J4Xci3TNIGeSHO2/JVqNXxfKYUtwFcSUcFKVAFgMIURwtSJQaAnEjzALAvSIO5pIQR0IjrNiAmimkAlExVtgHS9c/yQllBFIhllFcScL5Z0EaTOZEAC8wjbdTAhTIAWBR49JEFMqA4N6ojMVhICvBRJNERoMQNUrWWAVDtCHAlNRqMTKoF2qCNotNg1AM2xBAojG6qShEYoUp5jJzcMMKYMxohZgTIUC3URr9K7fTdclMebZDWU/B6IBrlkUwtUUD0FkqjhlZh0bB/O26YzgISwgDuShpIgJcaUxvdqhnWgFZ8pI0tBWnInQgzQGHg2kyEBYBB4MSKBHtAA4ET6efNxftC4OsIK+7Zq1CU1Wb1ClBBQhj9S/GAhDQEysUHAmmo840XgABCbRqSi5xQQYGIqyvV3iavA5JvigYoICEsDqF6QERekitXgkYb13SlASV19E1LcZ+2hAgroxVpyKTVxwF2iELRZVCjhKcfzh7QgFut0CV3Je2V5zog+HnMAKhTW+315DP+olmDV1zS/mUrRV1xna4E4mD01pUNkK024a3deiNF1QMSMjr0hrOgRgXF9f8BcUW+jItA6i1t0YIY1dbU56NFk4OVL3tqWBdDCWSA5gA2Q90o965RR1gErMyU0Wjjb8P5EEe3Ci6VZqLj0tRiUE5rn/EWIxka4qZRwAEY7kyyGtdrhn23io+0Ta4IYMO5B4Re2q6P67GPR/MwbdMJcGuaC+Nivm/A6Fj9/MMMxxnuhXSxoqBAryZpDr1fbMmPRCoVTnzse0Ox/AO5EIsfTDJejU2D30MjJJ5tncFtugxLzLQVjhqiwhJjrCluW7cxFpWY6sukDdYo2aRvkV0+9J1ra3UI2ckXYIDJu2Um9Aq1lfwreTT1WInWlTw433Ylx6KAN8rVEhDgpmTLW/T+TMCfJq/i/Yns5T5AXeQFxNfk3ewcKSD52ul1kUf8sfPdu0SEXXl63vLno1J9+znMflze0p4OLy/np7jl//3bm306v9vl+78=);lineShape=1;" parent="1" vertex="1">
          <mxGeometry x="179.17129255368013" y="431.79498113944396" width="26.069446437017405" height="93.81591523667544" as="geometry" />
        </mxCell>
        <mxCell id="HVyeGtr5qmuluz8HAJte-93" value="" style="shape=stencil(fZbLUsMwDEW/JluNbdmWvObxH52h0AylZUp5/T0yIW5lEu0SJyeypHsVD3jzttu8bofg3s6n4/P2c3w47wa8HUIYD7vtaTzL1YB3A948Hk/bp9Px/fAw3b9u6pv16uX4Ub/wNXHMgKFSwX1PK+gh5N+V+wnYj4croCQoUQHRA1tAAcoKSBEwmkD0CsgEWAwgQtEAFchpHeAMpHPgAhzWAUo9UDKwESEjOFaAdw6cWyeS64nCc6UXAWRwRQMIxOtAkFbrCJzAGZ0LHoruHEkEIwdfIHWdc8DWlkRrpMVEZtKBwGkAMwSjEfIYnQLqJ4xW1w3oKtVNGoCk2KlPyhCNstYihj5CMSLUNnVbklYaSVchaGlUsZABcG/qKkcjhys1t1ajHaIZpompmWo562bJJtdsAhfTN0O0wbDcOYKoc7iMnmWPyuDKPUBGmepo7Dwq4xMNuYrWNFAHtLElATp9Xyb6muWwiyBqMbbkA7C2HGUoxhQQQ6JWBs8rywF6YSQ2DfdPeWJZy28O6N/ISFbTwOv9S0be+sHNI675P5tDzxPkbtKb9akDq3Pz/IFlSRAkbWY3LyznyxBT9775pyrgdUHDPJ/+3peLy3njcdzvp+PK9fP+fCJL09kG734A);lineShape=1;" parent="1" vertex="1">
          <mxGeometry x="234.21635455482283" y="494.2186487597038" width="3.943354247905745" height="3.941098792215257" as="geometry" />
        </mxCell>
        <mxCell id="HVyeGtr5qmuluz8HAJte-94" value="" style="shape=stencil(fZbLUsMwDEW/JluNbdmWvObxH52h0AylZUp5/T0yIW5lEu0SJyeypHsVD3jzttu8bofg3s6n4/P2c3w47wa8HUIYD7vtaTzL1YB3A948Hk/bp9Px/fAw3b9u6pv16uX4Ub/wNXHMgKFSwX1PK+gh5N+V+wnYj4croCQoUQHRA1tAAcoKSBEwmkD0CsgEWAwgQtEAFchpHeAMpHPgAhzWAUo9UDKwESEjOFaAdw6cWyeS64nCc6UXAWRwRQMIxOtAkFbrCJzAGZ0LHoruHEkEIwdfIHWdc8DWlkRrpMVEZtKBwGkAMwSjEfIYnQLqJ4xW1w3oKtVNGoCk2KlPyhCNstYihj5CMSLUNnVbklYaSVchaGlUsZABcG/qKkcjhys1t1ajHaIZpompmWo562bJJtdsAhfTN0O0wbDcOYKoc7iMnmWPyuDKPUBGmepo7Dwq4xMNuYrWNFAHtLElATp9Xyb6muWwiyBqMbbkA7C2HGUoxhQQQ6JWBs8rywF6YSQ2DfdPeWJZy28O6N/ISFbTwOv9S0be+sHNI675P5tDzxPkbtKb9akDq3Pz/IFlSRAkbWY3LyznyxBT9775pyrgdUHDPJ/+3peLy3njcdzvp+PK9fP+fCJL09kG734A);lineShape=1;" parent="1" vertex="1">
          <mxGeometry x="263.21635455482283" y="491.2186487597038" width="3.943354247905745" height="3.941098792215257" as="geometry" />
        </mxCell>
        <mxCell id="HVyeGtr5qmuluz8HAJte-95" value="" style="shape=stencil(fZbLUsMwDEW/JluNbdmWvObxH52h0AylZUp5/T0yIW5lEu0SJyeypHsVD3jzttu8bofg3s6n4/P2c3w47wa8HUIYD7vtaTzL1YB3A948Hk/bp9Px/fAw3b9u6pv16uX4Ub/wNXHMgKFSwX1PK+gh5N+V+wnYj4croCQoUQHRA1tAAcoKSBEwmkD0CsgEWAwgQtEAFchpHeAMpHPgAhzWAUo9UDKwESEjOFaAdw6cWyeS64nCc6UXAWRwRQMIxOtAkFbrCJzAGZ0LHoruHEkEIwdfIHWdc8DWlkRrpMVEZtKBwGkAMwSjEfIYnQLqJ4xW1w3oKtVNGoCk2KlPyhCNstYihj5CMSLUNnVbklYaSVchaGlUsZABcG/qKkcjhys1t1ajHaIZpompmWo562bJJtdsAhfTN0O0wbDcOYKoc7iMnmWPyuDKPUBGmepo7Dwq4xMNuYrWNFAHtLElATp9Xyb6muWwiyBqMbbkA7C2HGUoxhQQQ6JWBs8rywF6YSQ2DfdPeWJZy28O6N/ISFbTwOv9S0be+sHNI675P5tDzxPkbtKb9akDq3Pz/IFlSRAkbWY3LyznyxBT9775pyrgdUHDPJ/+3peLy3njcdzvp+PK9fP+fCJL09kG734A);lineShape=1;" parent="1" vertex="1">
          <mxGeometry x="280.21635455482283" y="491.2186487597038" width="3.943354247905745" height="3.941098792215257" as="geometry" />
        </mxCell>
        <mxCell id="HVyeGtr5qmuluz8HAJte-96" value="" style="shape=stencil(lVjZUtxADPyafVXNPZpnQv6DKpawFcJSC7n+Pu1yxuzIdlO8mUVt62i1NHOIN6+Pdy/HQ3Cvb5fz9+Pv0/3b4yF+OYRwen48Xk5veDrE20O8eThfjt8u55/P9/PfL3eT5fT04/xresOfGZeyqJtQwf2df3Hi5h++zvZPp+cr++JFk7GPft++BvF1sPdSCrFX0dE+SYvEvomG8f0IgH2gSI0joEhpJOImefQILiXdB+QmXgdAjDSnqdocJd+zsAmISXweANlJIQAkvY0uZZUc9gEeHo+AkqSSGFTaSKOiUgkvfJUwxow8p0RizhLHQpcqjdQtFfHFAjIB5CI5W4CSJJVss4qgW6bNoG0AVNdfsUfWMpK1xp637TJ4CWN71iqJ1EGLOONSow3XqtQxaA2SiEveLYqyIBLlRlMpYyEUbCHka1nymCZt/RXbAG8BLUgggMljA8hcx6q4kd+IqjFA7qKyABqVGTAhJgtQ0kHgmo5fuCrNNsFVYrGfYAQvYFOwACquULJoAYEEUYINYmILoR8AyVmAI+wDoJq81p6GbUAUNVnCjGGAbPkNQGBZgtKZtGaqfSh1SisAqTSUqUXrkmNzN4tPFhCZ9hW7OACgDFBXAEgZXx2cSauKJ/o9SWOyAFY4xOBWPRrZF0BvZwGV9aiXumqgxuiNZaOtAIxLCzevXeItWlcxsJGCfgjBppWtM2UZIFeAQMgHgJXv2pe0PZf+e3xFPipknwZA5wwg9s16jxp2ojgaA+htuKSc3uqsemOKJdbT3o4gjHZPRlBZzV04mVmWvFVvpKGwXVrt8g2lYgsQdukykg9RebZLq60DAEzuserWZgFsifMqKdgYCqOGNG/tM6mb7zS4csgRh1b7GOa8Jw2d7LiaJh7b+KLkUVdz7XvsdkpXPEqNNg+KFkYe4cTkCPHSsrcsZ7JA94zc7Lk4xL687+mqcQnnysiaZ7Xl4uQamK7WvkotdaD9X3AmHMsQ+3a2naNspxs2IdZqSEi09oxGoS9q7/ZM8FDSlT1rzOTs6Sr0s82efbRXE2wQwt6cuj3dR2BvzmKe1gv25rCHgFg+oVP26oad6ZH/4I092zpR32jtqUwk28XuI7596urpY3s8vN9zPZyenuZrsuv/23sx/DTfqcXbfw==);lineShape=1;" parent="1" vertex="1">
          <mxGeometry x="298.60259249188016" y="430.78998435836945" width="22.879742653718267" height="87.41666057371287" as="geometry" />
        </mxCell>
        <mxCell id="HVyeGtr5qmuluz8HAJte-97" value="" style="shape=stencil(lVjZctswDPwav2JIgODxnKb/kZk4jadpnEnS6+8L1UNFhKy18yZLXBPHYgFyJzdvj3cv+x2Ht/fX4/f978P9++NOvuyYD8+P+9fDuz3t5HYnNw/H1/231+PP5/vT75e7aeX09OP4a/qHPydcTpTzhOLw9/QmBkry/83XE+Dp8LwAKFNIHhDKNiAJteYB2rYBkinwCGCKYAeuFB1AiRUAZgM6wN6Eug2IieLoNGdqaRvQ/HpRyiCqmViG9UlJA8gClTqsV+1RPru+UBmznDMpCKlFnMcIFTMROBwbybhDtZhlmLQSRkAjBQBplEeTWiQBPmikXEaAZRkENQtlZ5JSBSaV1JM0R6lBp6vtoCMA14JZzHFMXKQIfGhCZQRYGAQxNVFx1GPSCADRJ87YzqB4jAgurBxhpi2ILqxWngJ2KEJpzPRER+B0Ll3jFjtU4LS2/nkhABmYpJWq26FAamihyh6AdFUz1eJNgsqdO3NmgPYqPw/QrhEzQLrubAFkpDdbtwBCbICkPg+CdE+907F2Wdhy2vkQLfdoB/vsGiKWSsv0GsAI0FZstR1AlHLoOrfwASmfaURYRwnVQzxTcUjuDZBdPTDW1tijvuQS6ohWkGOLY9zUDRBXJQoz3fpUsaw4VKI2Z6gHXKhpv0Pu4rnFVhHvdEG6pF7uOZFggLiwMqTGGUDoNbhp0phpE2O+4PTog9EbykzxebACKkgEPguw6SiNYlw7G7cGAbcBJkYNfjSpJMCeWkhXQ3cBG9gY4Ig0iRLwoJXeMJdEAmluzR8cJFEAPsQwT1/zpGGzB0ObnNgbVVBLNK/jOCJao2eww8d8N+etwHZSslfWam0YqVLq0j4PoXYeQuQ2HR2roVXY1m0uZs8NPOdO5BS/BRoqjTvJjd7cxXbjuOHCWrkT+LxFFEeNyTO7zq5fMclEB9kTOwtm5kUYIfWnn6n+QZZj9IOPNdwGHLDPZbQo4sPMdN50BwGYMlnLNuw8dkovI7EDNaTyq2uA0EOwVQdOLi6cxdTPPKFL7JZiB3XrM/r/3LvenADYN01I3B0D42lkNUYKHtlKvx+YKQoPhuv1JmUXTjxO6eCss/a39hq9Mp6t/8GV+Wr9wHQlH6wDoob26YutKwD28HGP9nB4ejpdwy2/+3s3e3W6s5Pbfw==);lineShape=1;" parent="1" vertex="1">
          <mxGeometry x="511.3674707722596" y="260.6730700132932" width="44.28436585310533" height="25.45122413282843" as="geometry" />
        </mxCell>
        <mxCell id="HVyeGtr5qmuluz8HAJte-98" value="" style="shape=stencil(lVfZbuMwDPwavxKiqPO52/5HgaYbY7NJkabX3y8NQ9lIisfJm48ZmRxSQ3mQh/ft89tmsOb9dDz82XyNL6ftIL8Ga8f9dnMcT3o1yOMgD6+H4+b38fCxf5nv354n5HT19/A5rfA98ww5M5Gs+SkPzPzgaYbvxv0F3BOnCs4UAJwD5VjhLcW4jLehvC54ocDLeEnEdfiOprvF8Lt0HYWwjA9CHBt8zsv4mIocBe9hPJnJ+QYvYP2cKbgG74E+io/1+pGSg/gU6vo68gkSch2QRmQEE3Jd4XMNr7eQOXfkOWdLDifdNF0I5EDXTQSuVUqUQEyTTFIRkiaB6qx1sBUhS6n8YqHrpLN2NtbV1bpmQ4IrJzUhWRKctNQ5RFNkWCLY2ix8JMbd3RCcXatDE5LNxFjWJmmOFPEXWlkp4EJ3BoAMr2+MQB4n0HQeM6WVDVr3tlq2vWv3iJAHnnFlg7oIp0LvAYFLlDe6TFQfxlk3PpY8OdyrjVFmSwwmQ+/EukHdXda9RuhmgxLQMOyHjxIiUKmfblnNG3yhH59KENAb/XxWAgqpPwDkACdif8LIERpld4LJqSR1Fd+lfNHvCwTh9gNoS5uyHS+dHliGIW5mTyQHLEmjrQWKawmbxpHUIoGg/XgOZYXb8E5KCW+LR+yKPk2+angedFCnJ1vycP2mXn5FnqYdGA7+O8/jq3C9+H/0fx13u/nP4fJ9+6ugj+bfDHn8Bw==);lineShape=1;" parent="1" vertex="1">
          <mxGeometry x="485.8761784442929" y="311.8679306811259" width="279.2246350322539" height="2.2641386377481467" as="geometry" />
        </mxCell>
        <mxCell id="HVyeGtr5qmuluz8HAJte-99" value="" style="shape=stencil(lVjLctswDPwaXzEkwOc5Tf8jM3EaT9M446Svvy9UD2UDslaTmy0BIrBYgEvu5O79+eFtv+Pw/nE6ft//Pjx+PO/ky4758Pq8Px0+9NdO7ndy93Q87b+djj9fH8//3x4my+nXj+Ov6Qt/zn6ZqfDkxeHv+UmnFv8/+Hq2fzm8XtlLpy7GPhbiAByid+BIMa07cCLO1qFQKesOGkC3KQiPJ7cdAmUbUgqUQA6FpFr7TgGkkCnZDHKlCL5fqdrvl0SCMhYPUY1UO8BUi9CsQ6MOVhChaDFtmUJdd0iZqg2pdcoNYNSodEs8pgBCqoF6XDiAFVqkHH1IFeSgr2PzSTNohi4kC1gbCKknChbWkqmgFZiiRWnCLcMcxHI7R2IBDnl8bya3UAIhKaxsYZVMDbG7+HbQGYPorWTOyTokOGNK8eTjMCpz24EHJvMUq9QBrJcGnh0yCei4pEPJ9nTUNXEDNRdSHKP5tkMaVJsd8BRTB1e4RhUwQ3nQbc4F1nmyd2MSbiUaT7LNwHAmKULsakAJTGEtAVsahbHgbfs6eH+xDyjfNlr3Yo86TTeN6uNH8yvrNlUcPgngo43uZnYaAKzZi42/wGk3fd/zJ27Eb/FX7YDq1cc2f9UBggjUPEDaY0haaIVl0ZSyQaHgQ+qIE5miWyFQQ6ROo2cvIMlGU9qcKyTFsolVnKAxlPxklFHFNXu3K28C1CxAYeiAtZKFRVOi+Bsxe3tA0s/a507cHD6ovqrkih+iFdmr/LZbWcQJ17zYyhJVULEWvPDSlCvSUZm6c2iwzfpCqUkZo29NFrkzgtKkgC7oGoBTOSpPgUMM8yy/Ul4I196Hop4bLUNcexmvr9RjBJpCYWqu9XkopduFmKfb7FChVJsksyW3ZtXRiFdc3UQNG5tg8tJLY0KKVs+Dbmirio6gELF7gdrKIORtXCnbCVPxaY29PC0NjtQFk5R7aOSxP1XoTC6g3yplG48expDO0X73OkG1KeDRFJHbpBqcABJGc13tm0gui07VxS6FpYITv2FL6mRvD6UOL6WggJJl9o0T4Kkri48njhP6bfs0GHmRdgFQWu2dNJUte3erk8Y2t2pvGZHhUULtHUfLaLo1+wUfNvB0fGj4MkHG2epKRaF8P3nrtW2vPy5XbE+Hl5fzDd31e38lp4/O13ly/w8=);lineShape=1;" parent="1" vertex="1">
          <mxGeometry x="507.79001019458747" y="331.6147399365715" width="44.86979250015452" height="26.97045286137586" as="geometry" />
        </mxCell>
        <mxCell id="HVyeGtr5qmuluz8HAJte-100" value="" style="shape=stencil(lVfbchoxDP2afdXYkq/PafofmQkpTClkCL39fUUZE2TPnl3eFnOOrcuxJE/y9LF9ed9M7D7Op+P3ze/d63k7yZeJeXfYbk67s35N8jzJ09vxtPl2Ov48vF5/v79ckJevH8dflx3+XHmOAl9I7P62Bef+L3y9wve7wx08UMwG7ikBuI/kLJ4p53m87u+9wQslP4+XQMXiAzED81Pb7hOf0jw+Fqo9vtZ5fHZUi8FHaE9Rf12HF7B/FarS4SOIT62UuMOjfCk+B4PPVIH9ii/R6kEDGiGh2gPUIlcwoVpFFPLAJO9uCr75zBRwkKoVaUoUAiZYVeRCGXtdbBpKIYcJ2fqgmRcgVCVEK7yq0sI+hGQJjgRLQyyhMLFAAtvM6e3ISNxKsGKKmTzWRkcI3OrBSpNYVx5y2mfKOA99WFsmV+YtUsH7d8LQiobT3CnPe6r4gE7bWuJ5gWBvj0jzae0FDRlW+bEGJE8FK6mrMjm0wrmyjhUtxAsX1J5QeamOdZVYL2jAyniQMPSGCwFEaWw+SkB5GLubEjJwemyfVas9OGHsz0oQoO9xAFACMmmcMGqCLXccYWqGdW8YkWqBeRsmsLsLMkMQ7g+IQKuujSB3WWMwhLnWOG53ITcTZ/BdgPKSw87ak7SmgoCO/Ty1Hdbhg7QStc4e4YX49DOtpwgUNMTTc5PIunzFhfB0cvAUoBoeGvgX4frx+bZ42+3316fJ/f/9W0SXru8Yef4H);lineShape=1;" parent="1" vertex="1">
          <mxGeometry x="461.8761784442929" y="383.8679306811259" width="265.94206023344873" height="2.2641386377481467" as="geometry" />
        </mxCell>
        <mxCell id="HVyeGtr5qmuluz8HAJte-101" value="" style="shape=stencil(lVjbUhsxDP2avGpsy5btZ0r/gxlCyZQSJqS3v6/cjBekzR7at7BIa12Ojo53xzevj3cv+10Kr+fT8ev+5+H+/LjjT7uUDs+P+9PhrL92fLvjm4fjaf/ldPz+fH/5++VuWI5f344/xht+XfxKpFSHVwq/L0+iUGl/n3y+ODwdnt85cKferUOjGIEDk7BxSIGKbDukSmJDSpnGn5sOkWqyDh2GpCnGZhy4zCfXHSKJGIecKPVth0Y9G/sSKGdkH+z7S6cAAtL325pKpcr/k0DVGgRYomwzaEyxgibwfN/ioEkVgAsNKRqHrrgAXcva5u4dMki6JGrFhlTnmVcdhKm5HPQVwKGyP2GUFeEiEds+SCMGJ2gR2YakyMigDz36kBR6HYxbZwr2hJznk+sOWnV7AmdqCNxaRJt0KlRAlaoix4JPRzyBHGqianOIlRKAhqxpT+EIctCqd5tDDFRBSGU1op0YTLTaJ4vuigNaWHfpM2QAtc/WnmHTNOFou5zg/EuYHZr2CjuAIu2AJGcfQT1lxS+BAupwpuLfX8ASES2fzTfCPSjiGZUhoSpBu3pm6iie6neUzMHeisctwUaC4i+eJxTQCQBCCyp2KHVkGDnw3NrvHBoKKa5aECH9KuZ4NcURFFVBnWwOnRogojE04oqaQBPGUNqUZUa4OfROV0xu3bL3TEqC4u/efuG9rQ44kAbcYj1+NZRoCLLXOQHKqKv2AEG1+v5WiOmhaVaYRstS17GTRbpoIjhBt2u2Yzx4AqTc6xRBC69gYowh+AXODXat98kMC+pU7YGx0ZjYaYoCl0HXfWyTGOwBHJqyr2tchoJZdVZxk8lQMQ++s6M5dAzAaskzxcWhzGna0qfdllULzaDV2tjgrlIBz0/sXiR0oQ7qqpzuCEyzjmBtrpJuATJG8IpZ9WwHOa+wWioU/bqE3daUWbTrXfPzqTc7+P44LynLfFZ4bdF5dxEN4YIuRgpk1+U8LzKbF6OV1ERbSsfdAa9BeV0WQnnbUrCm0bOk2qOtljyuZd56tuy7j6cjKcte7VcsxbMX+22idstevHRHmFb76hoWsUzIqw4nKE7VgW1EkbHaZ39X/gB06hCclCokKIdEyVJ8FHhHK9FrnQ++NP3Dpyn98fZh6+Hw9HT5Lvb+//5DmD66fETj2z8=);lineShape=1;" parent="1" vertex="1">
          <mxGeometry x="501.0801178211243" y="413.76850005817903" width="37.30626520466171" height="28.505258507165877" as="geometry" />
        </mxCell>
        <mxCell id="HVyeGtr5qmuluz8HAJte-102" value="" style="shape=stencil(lVfZctswDPwavWJAgudzmv5HZuLUmrp2xnF6/H2hauiK4BC03hRlVyQWi8MTPX0cX94Pk8WP2/Xy/fBrfr0dJ/oyWTufj4frfOOniZ4nenq7XA/frpfP8+v69/vLglyeflx+Ll/4vfIQnF9IFv+UF4j/Xnxd4af5vIFn8LmCG0jUh1sHzlR4AuP7ePJAWOEdGNPHuwiOBD4p+IBgU4XnAxV8DIASH5IiDwJlgc9OwWcIdbwBjKIn42MdbyoC9PDJ1fnyJaIeIdcHLAoNCHXElMDGPsHg3WF3jezwiFiLFMDqqubadZFl0lydi2vussZi9G7e6qizLUr3CD7UBIKgOI8Jwtkpq9ZmAgmCGV3J1qUfEfyAUKvkI6CukiA4C1nPg7gSNxyn9Is2aJPUBtPKahCMbj6RuFBK/EFnRDBhj/WMBWf3mJt78MBJonyIIO6rUO6zYVBwddDBQNTTINpMdBB2NbLkyice7JTZgNcTLVoxV2hSZNpPaIZDdoCKN9rpwwRSvNGONyYExa3t/MwejEJoBzQTkkJoN4AcIGnWkBtG5opWVG0WmI19OwRy8gCvXAjLrNloqg04LA1oM0u0gkaZ5MGwYnydshCL1Xt4MW7ZVvp9RPFTaSCP3YfsQB8RL/cvbdY2enKD9Or3Rb78QB5hB6NOnJ378hDOD/9X87f5dFo3++3/5SrPr9afAfT8Fw==);lineShape=1;" parent="1" vertex="1">
          <mxGeometry x="461.8552773093106" y="472.84687615203006" width="252.94056910360837" height="2.3062476959398737" as="geometry" />
        </mxCell>
        <mxCell id="HVyeGtr5qmuluz8HAJte-103" value="" style="shape=stencil(lVfLbttADPwaXYnlvvecpv8RIE5t1LUDx+nj70tVWFmkrCl8k2WOuBySQ+4Qnj72L++7wbuP6+X8fffr8HrdD+HL4P3htN9dDld5GsLzEJ7ezpfdt8v58/Q6/X5/GS3Hpx/nn+MXfk84Jk4jyLs/0wtHHP+9+DqZHw+nhXml4JU5e0rAnivFqADyiQwAPlFrChBaP+JdQIhUqgIkCSFvA2KkkBUgc39zF5AiOe2hMCVwpByIDaBRrtuA4qjpLNRAGRypFPIGEKkGkDdPPloPhQEgExcNYHINABp5XRpySOe2AU1INCx5DAid9TlxpUd1H5Ao6Biy0ABYaqtqTXMqtwDVADxVQGtr/QALDwl5aJR0DClRxB6q8VCJEa2NmmGJO2+bAN2iWYoPx1B1pnMlD8pbAFm3qHQc6mkBBJ2HEsjjxDXjQWQBlLcA0hqAWKorEQi4WgvVsgoaJa50JV3QCqu1dK1eJK6goIsNWkoD0lq6qCyKz3kIaKvyDkBbhdZgPAQoxgIo7sEWZWc9eNxAUbMkEyMjWhsVLWSpECOWpONM4hwUMnauS+mMwHo/utCyIeLKWAVMEDLFPAZEA/BwKgrAaZ2RlkPLyeOAZKtPhlxFOhN7Nc+ABAe1DDnrQZQHpFrGaNSAJhsWmruZgs50yzBx4yqghWmcYqCDxmVDt9yivLb2mZpWLgBNUpymXBseKdKSRiyFhwqOJFsf6/ouGTap7JVWLCXVIHOyuVrtw+oquzHrYpJDJkSrrSXZpQtInLObMQtH4EDOqr3YozHt7CLNiRh+3+sks2gSYNTZvZu578lb9joBommghlYSWboEbpmbVY8aENT5HjUnt+O3uNHS5fsqumFuVILh5He91G+3PDRkXZeomzlq9wfvkP81l4fbdfXtcDxOt93l//Z6K6+mq3F4/gs=);lineShape=1;" parent="1" vertex="1">
          <mxGeometry x="720.8706008142551" y="331.86946610631173" width="116.9006450682632" height="13.274570106834972" as="geometry" />
        </mxCell>
        <mxCell id="HVyeGtr5qmuluz8HAJte-104" value="" style="shape=stencil(rVjLbhsxDPwaXwmJFPU4p+l/BIhTG03twElff19ujXVN7maMFr25G00lDmdG3N3I3evu4WW74fT6djp+3n7fP77tNvJhw7w/7Lan/Zv92sj9Ru6ejqftp9Px6+Hx/O+Xh2nl9OvL8dv0P/w443Im4QnF6ef5iZCO3w8+ntc/7w9+fUpufW7UGgZ0B+BGnSGAhz9Rp1oAgKl4gKa5qHWAUm4OUJkEFM2JUnGAJtRB0VZiKLobANQgSsPTOhJkqShJAAhkSQtJ9QCmCmqoQk18DX1+sgowTjgUneeqVgH25+r70BjW0Btlv0PNkKU+aPjGmTQKqMFY52CHQdLBDp2yZ0lsB1R0mZVz8YM9wTto2CFTQYAR5W0GQoBJal4apVMC0hiVqmdJG2zcWPhBO5SG7dBDpxNlYFEDJI3SEFRDoRp2YJgaZpdgUQMMVHRaAIRyhZ1e2QHUMPlhAYBqVaojslQUqzXHPjDaoZB68U2dBo0zwAjp3WDMdOu0P5KaHDNkSUMIKDXUh0ElRwAjLRmJix2gWmW+b64AisSnCwNVYhRklUQirQw6PVnUa8kaV1DRBgghMOAkMB1pIb6EQuBC4pW8E3KczCReARpKvkwaQsAsim6gQaoRkJAfLBhrPBJUa114OlNDBtI4nJhF6/8EtEbi/VDGrK51wCJbBce9AcTTanccGrAMoF4afAme92gN4880t4IQMPGpL5oZW7TP980FYGIBO+SUouVs2ChI34N6iI08l/WeR3NQn8CByQwRZrhWoeU6xzQ2pgfQdx3zIHyZQxXeu1MyesAVceuzsV28Pvsm4kD2cY9BY9NBR63r8615VTWaNnKao/HCKw58pRKSTCBLHA2k+P0hrTgUhbfd+r4JN97iUnytvPGauLQCfA1NUdeW87haz06GGs2R/Axvc463f4IJL/Ewxi1YbvNRD8uR+E2H8TBoeYuvYPgwPY7luNQRB1pMpLkknOZGn/LfyeAfPnbcWG8//nxZedo/P58/zFz/PX6JsUfnrzhy/ws=);lineShape=1;" parent="1" vertex="1">
          <mxGeometry x="839.7444025745945" y="299.75355030965386" width="22.183725650781298" height="34.74915121472884" as="geometry" />
        </mxCell>
        <mxCell id="HVyeGtr5qmuluz8HAJte-105" value="" style="shape=stencil(fZbLUsMwDEW/JluNbdmWvObxH52h0AylZUp5/T0yIW5lEu0SJyeypHsVD3jzttu8bofg3s6n4/P2c3w47wa8HUIYD7vtaTzL1YB3A948Hk/bp9Px/fAw3b9u6pv16uX4Ub/wNXHMgKFSwX1PK+gh5N+V+wnYj4croCQoUQHRA1tAAcoKSBEwmkD0CsgEWAwgQtEAFchpHeAMpHPgAhzWAUo9UDKwESEjOFaAdw6cWyeS64nCc6UXAWRwRQMIxOtAkFbrCJzAGZ0LHoruHEkEIwdfIHWdc8DWlkRrpMVEZtKBwGkAMwSjEfIYnQLqJ4xW1w3oKtVNGoCk2KlPyhCNstYihj5CMSLUNnVbklYaSVchaGlUsZABcG/qKkcjhys1t1ajHaIZpompmWo562bJJtdsAhfTN0O0wbDcOYKoc7iMnmWPyuDKPUBGmepo7Dwq4xMNuYrWNFAHtLElATp9Xyb6muWwiyBqMbbkA7C2HGUoxhQQQ6JWBs8rywF6YSQ2DfdPeWJZy28O6N/ISFbTwOv9S0be+sHNI675P5tDzxPkbtKb9akDq3Pz/IFlSRAkbWY3LyznyxBT9775pyrgdUHDPJ/+3peLy3njcdzvp+PK9fP+fCJL09kG734A);lineShape=1;" parent="1" vertex="1">
          <mxGeometry x="857.2163545548228" y="295.2186487597038" width="3.943354247905745" height="3.941098792215371" as="geometry" />
        </mxCell>
        <mxCell id="HVyeGtr5qmuluz8HAJte-106" value="" style="shape=stencil(lVbLbhsxDPyavRISJUriOU3/I0Cc2qhrB47TNn8fbhfaWrQ9RW/74Cx3hkNSU3p42z69biYOb+fT8fvm1+75vJ3Sl4l5d9huTruzXU3pcUoPL8fT5tvp+H54Xu5fn+bI+erH8ef8hd8LTqiWGcThY3nAgVT/PPm6xO93h4v42EjqAMgkcj9eGmUZ4gOFcD9elTgM8UWoZPBDYf1gR9RMXEGK1j/YAY2pNgAQ4pGDBmIgkr2OOgIEqtpSf70ClBKQqVZK0QMa4FADtTQCKhVQOJOdR5WUqSFApMijrJi0WUNHDsYK1cEAjkNRCiBDMS87M5kMDACZ2lgHSdSA+0zWNAKy/SQwXy2eQy69Q+5ZQ9gDEIemXcQVoKQgg2bSsdIiJKhHrafHoVG4C32vqXUcGjVSQi1q7h9VatblgLQWkpF0q5g0U3D9kHvO27IWiq4fTAZgvqokI+BiVN1GmIrsUxTk70JaPIkaAYD7VFllWmt5u+WUcvSFKCDDDOArAKhcTl3F1a6RCvBGir5yZlcFAK6Unb/NXmDOcKI0crDZJgBgS9EVzoTOaGllys1nUCBrDH2lXUyygCrtzSc2NUChr6ogDNdD9PsnV+gL24hu7FkDAoWulnoqxOD/g59hCfuU/Wawk1AGNv3fc9K/4+3i76HsZbffL2e6y/f+EGePlgNgevwE);lineShape=1;" parent="1" vertex="1">
          <mxGeometry x="866.3252539274331" y="308.30025174943194" width="9.103017812552025" height="7.01626224577808" as="geometry" />
        </mxCell>
        <mxCell id="HVyeGtr5qmuluz8HAJte-107" value="" style="shape=stencil(rVbZbhsxDPyafR1Ios7nJP2PAHHqRVw7cNzr78vtYrem5UwdIG/ymkMNjyE1yN3b9vF1MwT3djoeXjY/x6fTdpD7IYRxv90cx5OeBnkY5O75cNx8PR6+75/m36+Pk+V0+nb4MXn4NeN8go8TKrjf85cIH/5++DLb78b9mb0ktGzsBU7et6+C6Iy9g3PEvqJ4Yx+QCZ+m/i0f7xDIBa3AW0DwaJEAGmKwEWdkErJ3a4gLIoUlqutXVFRbhFyRGCDDFQOoAVIIQGO0gBaWO6/XIXcAJckK7ZFt0Jo4FnTJl3ltCVIJoItBSQoptSax2BuKdguhlEtXuApHKPWAqCQ/RClkJFK4PmgvyI2nVS4EzQQ01c0KTvVD/E+NUS0h+A913irAG1vbF2SmT+3LZPXpkUgNrugzFgiTWzcCskBIkvohU+oS1o1jrDZUQqmfk3ono9QP4rM8fBKiXw5tHSPXS9FtH50BlQjOe8RmARGJzTE42xzNUTmkZZutdYgQ4j8gWT6qP0fa2y3hrZ2UEUiG+lWSkMgY7ls7IlL/F3xEUIj/Ll7d/2x7dvnUkmeSn75edCf0/ZAWId3YcPy58397Pfx7Wz2Pu938NDv///Itpp/md5w8/AE=);lineShape=1;" parent="1" vertex="1">
          <mxGeometry x="866.3796842618676" y="309.2210570594798" width="10.702448741320495" height="3.55788588104042" as="geometry" />
        </mxCell>
        <mxCell id="HVyeGtr5qmuluz8HAJte-108" value="" style="shape=stencil(lVbLUuNADPwaX1Wat+YM7H9QRdi4CAkVwj7+fuV1jUHjuIGb46g9UqvVoyHcvO7vX3aD59fL+fS0+z0+XPZDuB28H4/73Xm86NMQ7oZw83g6736eT2/Hh/n3y/0UOT09n35NX/gz4xyTqxPK89/5DRPz/xc/5vjDePwQHyK5YuI9cd2Oj0LsTHygkLfjs6No89EMa9oGlEiFLSCTd9uAKpSTAaRKuQBAJQkGkAtVwQBbQ8kkgFRNSbwBSCKPAJlKNIDqKXgACCS26FoogL5VppgtoFIFKUmmGntAArRKoNwBMkXQaVEhWClpkoKkUYntCXpmAI0rQt72YVIXYEkByZ6Qc9P7VkrVjk8qjbfrRWtfO7XqhAQASBRtSrG0kb0OkJ7WmCghaXiKduKiyhsNkH6vq4ExQE3D9yyhGiapWbXmRA70wfFic0urdUSAMekRwQK0NQn5TKFkbUPl6kCrayQRC0hNLdcBjrKlaUoSt9p1XsnY7iVStlamZRUwQuKodFV7qoBXnYhOHOokDAR+HQB4LeoblqZP/Dvlpp0FwK2XX7wUY21OsiG//tbVqQ6gD6VnVScoAVbVBGzJeg+ja3fxxSU+Qmt1/f0TGRbMzVGWLUCNFXx/NZ1e2olfjPeQn1U+ujSk79TrHDGQ0IpPfLWt2uXhpbBSA0NyvrvjfR6vD+8L5eN4OMz76Mf/+wVUX83La7j7Bw==);lineShape=1;" parent="1" vertex="1">
          <mxGeometry x="868.3943671411196" y="306.38258334903435" width="15.757714431647628" height="6.305312897185672" as="geometry" />
        </mxCell>
        <mxCell id="HVyeGtr5qmuluz8HAJte-113" value="" style="shape=stencil(lVfLctswDPwaXTEkQRLkOU3/IzNxak9dO+O4bfL3haoyNUFr49xkC0visVhAE9+9bB+eN1NwL+fT8fvm9+7xvJ34yxTC7rDdnHZnfZr4fuK7p+Np8+10/Hl4XH4/P8yW89OP46/5hNcFJxT9DArubfnDkXN///i6mO93hwtztZdi7Etdt496XDL2Etftk6cYjH0C9jlQtvYC/Bem3PsTyIPzC5P0+UlU87p99e11s/dMvgCAUIi9Q0wMPKqVUu8RRyrgBu/eS9oQMbcsr11R+iQlaWlbA4SeFeJwmoRSD6haBwaATFJ7QKSKXEoU+jTpnYwATK5nkkblUOUcRbYA5FLR3hkARQAgkTdBl1aZNba6YoNG7Vy8bR9N6z96XQdoXaUH6BGogbyNoRTYoSVQ6DtI01BBHUokZwDcROo6IFvN0zsZkK8oEfqgNSoBhdOcSLI3eASI7fVFDBGRL5OrNksJ3aA6M9QhIBEQq5QaFZJKBfheyTQqh1u0mBbNjY5rLVp6IdN+SGD6qMc89LQAXdKcmH64UM81MhlxncUQ+DST0/gkHzWEFaZEjG7wlhs1wLzOgP4GZXxGwvRpQGjKeDEgGBWCKfRp1REUUFNzO+99LAoWV2VzD9DRHgG/xVMy3CjkgFbqbmKkz+fGxxuXH5+gzozblQISyNK4vikArQLDejiHAGJOQ/9kOESZarT+MAqAolmvYhsX15cfCr2u+tAWiav2w0z3HmrYsFpVqJGDucCxMHiTPhcsN8belssAQx1KpasAGJoDE1xbdG8jGpbdD8314f8nz9Nuv1++mC7f208k/Wv5vOL7Pw==);lineShape=1;" parent="1" vertex="1">
          <mxGeometry x="872.3564373120835" y="307.34437515174193" width="22.180543220332993" height="20.299336091710188" as="geometry" />
        </mxCell>
        <mxCell id="HVyeGtr5qmuluz8HAJte-114" value="" style="shape=stencil(lVfLctswDPwaXTF8guQ5Tf8jM3FqT9044zh9/H2hatgKkLSqbwqza3KBJQAO8eH9+PR2GIJ7v10vXw8/Ts+34xA/DSGcXo+H6+kmX0N8HOLDy+V6+HK9fLw+T3+/PY3I8evb5fv4Cz8nnqPAIym4X9NCZuL0Z+XzhD+fXhU+JYVPlXJBeOcUPgo+Q3xV+FAoh218IJ8V3pe+4yo+U9N6a19YhXtPyevzUKvgOJVCU3gHjxOZmsZHaiCcKVIMCt+oInzr2ZnFp6L4MLlgE8AgYRwWCipVkLEiFtKE7KgggsRU51j2TMCjVSygRRem4LcJrRFrl7ZMDoj2buHrtrtF0SJaoQic1CSK+ibIClItv5cMoXUzrhMycbOEGgEhUtGiZ3FYZ/ie2dkWBZypNmp5IQKYo0o5aTZMEdxoMUcpNhEBJEIIdgcmD0TLkZzRkLqqLdFeFxmJNCI0R8yWEFAeAmVdtmWlIPelXqXnBOQNXrgv9lu45W8fLaEgf7dF6UvdwFuEZkRnWJlGgskDbiajN80OtadyS7QtG40cEs0UvSVA0YlisQTUsSSvkRcEJNpRXmhIyN7VdggJAwNryI1r1eYB9aC7CWM/0F6SJlNA4pht1eDcu9J6Hy120MgRXiDp1GaSSQHWpSR91IxWUm1B5YuhT1J/W3ugCggyi1RtPh/6DVknONupfYXjyTiMLMY9tIMQgs7Dzjzpube0/xxYx/lRi96ZiP3CGpJ7VGaEYPpDlhuCCMnWpYyvqJcpUd84lo4BvCRjLusd2PfStl4EekhmeDSmy3UM9+CzbXA754nWRzuCF0VvL6K2XuykbFEjdzxx/zNsDy8f/958L6fzeXoyzv9v34iyNL0v4+Nv);lineShape=1;" parent="1" vertex="1">
          <mxGeometry x="892.1958041189953" y="302.8274063467974" width="20.89387625872928" height="35.615363240387296" as="geometry" />
        </mxCell>
        <mxCell id="HVyeGtr5qmuluz8HAJte-115" value="" style="shape=stencil(lVjZctswDPwav2JIgBee0/Q/MhOn8TSNM47T4+8L1WUiQtJ68mbLXuHaBQHu5Ob18e5lv+Pwej4dv+9/He7Pjzv5smM+PD/uT4ezfdrJ7U5uHo6n/bfT8e35/vL95W765/Tpx/Hn9IbfF5wkym1CcfhzecKBYvr35OsF8HR4ngO0/9wBsVGs24AkxHkEJNIAAJnEWQiUkUuNKnuAFgAQCjoChFLcBnChrD5LoQEAUy0jIFPibYAlUUcLEikDl6K9b0yrpSEiAFMcLaTUba4ClNIYQjaPQAiV6sikXCmC/6tPUUmQeVONRgOlUgHMi0qhDoAaSTMss2NeLVSBBVNPG11qliPAPEt5Hl1qhRgUIScqowUNkKqWRB4tqJAAC5WpyQh47wnrACucegCDQn+EOHMpgizZ+0ryWSqgcJo9NQwQkIVCydUhd/quAyrl4AH/87YOaF4+UxpA4VSJF0E3pE/1gmu1V2ZdD8GalguiUcM+tbFyzZ6gvKrPq9EVWmi+C2iE7LNCNAfgLvOtUrfkAYzJ5AXBsNkbXZUXMaDKpc6EeZYQmaS3oXkdkEtCxbGv9TRsAZqzUHHhEiXHpUKKAJniQqOMgi4Uxzpck1ztXWUuakQNOzGzdykgauhCQKW3qi1AEZ/WhFzSPrnMCpew4nRBDTQ4TC45PYRrgLCgt1zJ0qcAlhNHDXtFxEeQU9yst22dcpG9CQUmCnvJGVsKAGRenNQZtuPEfV6bpQk1V5sIPTeMTIB90xTq6CowSzaZ59Gl2kgAXavv3lXgjMgrIxxqS4sDq0Q4/QSSsco2P6GWwSRjvMnUhsYx70+KcDBpfgK1iZEBiWLsW8L73lAp4DUgLPa3gIYAXdl9CkqR+N2nQuFYzOIWE/h/W8b8QolH6EhhbKlY+an6GSZgHVu84/tT37S2JnQdOWTbZwOaMQPu1IkFVsA46VqR8RZNt9ZZxG2fBfZTMR2PMU/MBS5JWey3VnZQBbFemBcAZCEtgsb7rSwmGCMq0uZEvOCzhBZiYd8dp7Sihs1+grEGgnaAqcM7Nae+tW9Z8PIXeBtjgORisGkYFY79oWP6FHQbI/7QmQSHAJ++groOsA8fN14Ph6eny4XZ/Hd/Q2aPLrdrcvsX);lineShape=1;" parent="1" vertex="1">
          <mxGeometry x="897.7372597948558" y="297.04751872661143" width="42.214742629917964" height="41.32158653635838" as="geometry" />
        </mxCell>
        <mxCell id="HVyeGtr5qmuluz8HAJte-116" value="" style="shape=stencil(fZbLUsMwDEW/JluNbdmWvObxH52h0AylZUp5/T0yIW5lEu0SJyeypHsVD3jzttu8bofg3s6n4/P2c3w47wa8HUIYD7vtaTzL1YB3A948Hk/bp9Px/fAw3b9u6pv16uX4Ub/wNXHMgKFSwX1PK+gh5N+V+wnYj4croCQoUQHRA1tAAcoKSBEwmkD0CsgEWAwgQtEAFchpHeAMpHPgAhzWAUo9UDKwESEjOFaAdw6cWyeS64nCc6UXAWRwRQMIxOtAkFbrCJzAGZ0LHoruHEkEIwdfIHWdc8DWlkRrpMVEZtKBwGkAMwSjEfIYnQLqJ4xW1w3oKtVNGoCk2KlPyhCNstYihj5CMSLUNnVbklYaSVchaGlUsZABcG/qKkcjhys1t1ajHaIZpompmWo562bJJtdsAhfTN0O0wbDcOYKoc7iMnmWPyuDKPUBGmepo7Dwq4xMNuYrWNFAHtLElATp9Xyb6muWwiyBqMbbkA7C2HGUoxhQQQ6JWBs8rywF6YSQ2DfdPeWJZy28O6N/ISFbTwOv9S0be+sHNI675P5tDzxPkbtKb9akDq3Pz/IFlSRAkbWY3LyznyxBT9775pyrgdUHDPJ/+3peLy3njcdzvp+PK9fP+fCJL09kG734A);lineShape=1;" parent="1" vertex="1">
          <mxGeometry x="881.2163545548228" y="347.2186487597038" width="3.943354247905745" height="3.941098792215371" as="geometry" />
        </mxCell>
        <mxCell id="HVyeGtr5qmuluz8HAJte-117" value="" style="shape=stencil(lZZNctswDIVPoy2GJPgDrtP0HpmJU2vq2hnHaZvbB6ot2wSl18lOlvEJ0sMDgYEf3rZPr5shuLfT8fBz82d8Pm0H/jaEMO63m+N40quBHwd+eDkcNz+Oh/f98/n369MUOV39OvyenvD3zIVKuU5UcB+XOxTDvxvfz/G7cX8Xz4UkNvGeyeV1IHny3CYQqiBDqiS+AaIj9utAFhJpgBQol3VAPJXSAPoIlKFGSu1HSyKWdcA7R841RC3EDqTo6lCFPAJklv0OuJRmGUgUTIZKEQGecrYAyiCFUmq9cdNhmWCKzqaoACgqE1vgknQZyJSTlamC0pVIpdM1ADcp4A1QKGLg4v8rkOfir31DNRkSVQCI67yRKAKVtA5SLeBBk0rvvkQOZKiBfLRAwHbNYgHU1VomZitrACpNbu561KFXUm9GC8CWEyoGEMrooMnExhqVAjhdVVb7SnXOuVa4HkD9IH0/1NmOa+aT7hugvfXY6HraI0Cd0/V0Am7VjgvtSNHCIZW+DOSu0pLh8Z0SldbeuUIgBkqtW9P18Fye1GGu63WOenKg0oGptIXT5aCgBqLUiqSrAJrszm4CDKduN0J1qsOnmwr42enLXzuP41s4g6frBtAekA5KoxPAhuN9we48qhWQxkfiYuLRnPWFahcPengSQ0x8QNaJ89J4i89gGgSdaMY65FG8tpetVkHxX9xq/x+vF7cV+mXc7c4b+P3/duXWW+d1nR8/AQ==);lineShape=1;" parent="1" vertex="1">
          <mxGeometry x="861.8267230675431" y="364.82321613988074" width="7.869893364836116" height="41.113672998753714" as="geometry" />
        </mxCell>
        <mxCell id="HVyeGtr5qmuluz8HAJte-118" value="" style="shape=stencil(lVjbUlsxDPyavGpsy9dn2v4HM4SSKSUM0Nvfdz2pT491Tpb2LRBtrMtqLfmgN68Pt8/HQ3Cvby/nL8cfp7u3h4N+OIRweno4vpze8OmgHw96c39+OX5+OX97urv8/XzbLfunr+fv/Rd+XnBJSu6g4H5d/hG96OU/ny72j6enlX0WHyd7jZIis291sg9NUrhu3ySE2T6Kb9ftvYorE8BXqeQAfG1OwE8UvQ5AitwcQpVGPFKV2Cb7JJ5kNAZbgiCRZDR5qW6yd5IrqYCT5o29c9ftS5BsSjAc3LdHQtOcUC8+UYAJIHgJ7IQNiTTQlBaVOpcgqiipcW4j5UvNolQSQ15YOQA5SySAVMXpBChFCilbclJnWtTKeQSazVlqIDZxSZttnVYG1fc7IUuaXfKOc8lHicanNmq5f4S0uQ4t0m52NoTaJJNCL+4u9jrk4Io/OpcZXPxz4j7zxM0ZyigasYf2mJSiXR1TI4jDzKOuB+QEyFExvRAlEEAso1WWbitUILvAzCeo54qRRY0AFInsUsAdM58ATQ2eALKtQ1i6Yx8ABzYApsKtSt4AGkkriJ/mtKKdCumd3inFZinxE0zz4KaKLOiN6uH6ZTKJoE0MCrYSiUFaQ7MANi60NMi8AhQWNBTGbQAsrTo8XgGUueSlJZulwgF2hqnjJ/YBaCC1AEcaCCd4c0KhdwMAxXAp86DD5o5OksnUgzp4bwGBAdIg87pFWQzQ1s0JylSjbmQmcS5h+Kw2S1QEmmUr6sC0dXVfrkpNhQn32YZ9lBt14xO8ZE29qPuqISLrIFBn00GFFSKPleIfAdUNdV8NfKzlMHwVs5bkkbf96UrtUNzHcOISvg5zliKammSpezxnKaXR5tf2DDsKYJMgZMIwo3OlixdHYvDZNjVmUOYSxjdzQi30RoFLZiyGkLCxGOwvzgLYLoBZJBiAe2+9MutMzXRmjc2Sr898ZNjoq8IMwHbQGKDZtIKOibiUocazMCEqJdSAA4Z8GMmYfOe0EVdPB29wM80uYZTNxKWU7QWBW5QkCRH6ueF84OvMsgavXgLoYq/2LQNyz5Lkm72ndSn9NUCeT4h+sPEawOwbnb4k6B7iXGhsupltZGXz4BPpHQfRiDNZ+6LJd762ASQWg9qFI/J72ns7e3cAiwG3brSASESjWnIjSWyCK7ah+45FX8XMttHfJ1jz7NxWSpj6v69679vjw98nxPvT4+PlBXL9vX1yxL8uz5X68Tc=);lineShape=1;" parent="1" vertex="1">
          <mxGeometry x="866.8744442288348" y="381.49975393252976" width="24.608678043700365" height="39.767618241724335" as="geometry" />
        </mxCell>
        <mxCell id="HVyeGtr5qmuluz8HAJte-119" value="" style="shape=stencil(fZbLUsMwDEW/JluNbdmWvObxH52h0AylZUp5/T0yIW5lEu0SJyeypHsVD3jzttu8bofg3s6n4/P2c3w47wa8HUIYD7vtaTzL1YB3A948Hk/bp9Px/fAw3b9u6pv16uX4Ub/wNXHMgKFSwX1PK+gh5N+V+wnYj4croCQoUQHRA1tAAcoKSBEwmkD0CsgEWAwgQtEAFchpHeAMpHPgAhzWAUo9UDKwESEjOFaAdw6cWyeS64nCc6UXAWRwRQMIxOtAkFbrCJzAGZ0LHoruHEkEIwdfIHWdc8DWlkRrpMVEZtKBwGkAMwSjEfIYnQLqJ4xW1w3oKtVNGoCk2KlPyhCNstYihj5CMSLUNnVbklYaSVchaGlUsZABcG/qKkcjhys1t1ajHaIZpompmWo562bJJtdsAhfTN0O0wbDcOYKoc7iMnmWPyuDKPUBGmepo7Dwq4xMNuYrWNFAHtLElATp9Xyb6muWwiyBqMbbkA7C2HGUoxhQQQ6JWBs8rywF6YSQ2DfdPeWJZy28O6N/ISFbTwOv9S0be+sHNI675P5tDzxPkbtKb9akDq3Pz/IFlSRAkbWY3LyznyxBT9775pyrgdUHDPJ/+3peLy3njcdzvp+PK9fP+fCJL09kG734A);lineShape=1;" parent="1" vertex="1">
          <mxGeometry x="921.2163545548228" y="383.2186487597038" width="3.943354247905745" height="3.941098792215371" as="geometry" />
        </mxCell>
        <mxCell id="HVyeGtr5qmuluz8HAJte-120" value="" style="shape=stencil(nVfZctswDPwav2JIgBee0/Q/MhOn9tS1M47T4+8L1ZViQtJ23DeZ5pI4FktgIw9vu6fX7YbD2+V8+rr9sX++7DbyacO8P+625/3FvjbyuJGHl9N5++V8ej8+X3+/Pg07h69vp+/DCT+vuEacBxCHX38XMlX9s/L5uv+wP97sZyHRHlAoxXWANGq1B1SSsA7I9vfMJKnrgCpUWweodbxzEdCYonSAksYjlgFCsXc6Z1IQJbuBUwdImQqIUlWS3iRJpAIAmULvNGdiENaipH0eYiUGN5RAuTeJzSTgQ1ZqsXc6QZMMkEIPKJgazechTSvLADuPe4BSKQAgpH1Ys4UBASIl9gBUQGaxBg8QkAeLSVHvA0qcUS04pyskn6UplBlb0Q0WJXeDUAaJsxuKo4bFLUOnQy8CYokDJToQoQ+rCY8galhe+xKVShWRz0SA7wJkynVmEvDBlK/wzGkgZFZAoc7CChJngOoyLZRQlHQkwi01GJZocSaZV1jug6MGpndO1O4qoGxiPKtpWKIWpVlNIxEwF6V5H1DiLIjZKV+DUjkoqROBSdrWStQ9u8MRSAT+AxB6kzhAERi01ZFvlMLlB4ip9BUaKID9tXqRkbE8lh/pNFJ/ehHjKISLAA2+WTKLkChpnolSpAaYp41q8knIIM0xTDGZuIrFXuvYuUzNj8JnXXksx6kfC9SAdlu35AE6snc5ceyV9SNwa61J7BNhgcv4dXAFehO4tbbVxVUVes3sux8DMLCpjo3IjQ+KXgcv3QNZgOzNOhnbH0GemVJPPWNKBNUQiWdJQx1r8IODJvj0zIhtRNQE9/f6pZEE7i/9+W3qX1f8zX38W4NvLY+VfjP3ID5Yoff8GQYr1J/7icHGJAVSce+k9+/99vExVr7sD4frVHr7vx9Dbek6wsrjbw==);lineShape=1;" parent="1" vertex="1">
          <mxGeometry x="897.3699291390144" y="362.1064221211458" width="20.496071380060584" height="24.781215730377994" as="geometry" />
        </mxCell>
        <mxCell id="HVyeGtr5qmuluz8HAJte-121" value="" style="shape=stencil(fZbLUsMwDEW/JluNbdmWvObxH52h0AylZUp5/T0yIW5lEu0SJyeypHsVD3jzttu8bofg3s6n4/P2c3w47wa8HUIYD7vtaTzL1YB3A948Hk/bp9Px/fAw3b9u6pv16uX4Ub/wNXHMgKFSwX1PK+gh5N+V+wnYj4croCQoUQHRA1tAAcoKSBEwmkD0CsgEWAwgQtEAFchpHeAMpHPgAhzWAUo9UDKwESEjOFaAdw6cWyeS64nCc6UXAWRwRQMIxOtAkFbrCJzAGZ0LHoruHEkEIwdfIHWdc8DWlkRrpMVEZtKBwGkAMwSjEfIYnQLqJ4xW1w3oKtVNGoCk2KlPyhCNstYihj5CMSLUNnVbklYaSVchaGlUsZABcG/qKkcjhys1t1ajHaIZpompmWo562bJJtdsAhfTN0O0wbDcOYKoc7iMnmWPyuDKPUBGmepo7Dwq4xMNuYrWNFAHtLElATp9Xyb6muWwiyBqMbbkA7C2HGUoxhQQQ6JWBs8rywF6YSQ2DfdPeWJZy28O6N/ISFbTwOv9S0be+sHNI675P5tDzxPkbtKb9akDq3Pz/IFlSRAkbWY3LyznyxBT9775pyrgdUHDPJ/+3peLy3njcdzvp+PK9fP+fCJL09kG734A);lineShape=1;" parent="1" vertex="1">
          <mxGeometry x="925.2163545548228" y="361.2186487597038" width="3.943354247905745" height="3.941098792215371" as="geometry" />
        </mxCell>
        <mxCell id="HVyeGtr5qmuluz8HAJte-122" value="" style="shape=stencil(lVjLchtBCPwaXakB5nl2kv9wleVYFcdyyc7r78NGNSuBsp3KTV43swzQ0OxO796e7l/3O0lv76fjl/2Pw8P7004/7EQOL0/70+Hdfu30407vHo+n/efT8dvLw/nv1/sFufz6evy+nPDzbCdMNS1Wkn6dnzBl/fPg0xn/fHi5xiuJOnyjUgG+kjR/fiHpwKBT9gaSqMq2gSbq2RtUKgUYKOXiDFSoJWBQibs36NTApe3fIag5U87bBjlR8XfIg8oABkzDR6lkqiBvWWZMpkG1uIE8mEEb3qDNuG2+QXxlZGIQVruDsjPoiRqIkoV1VG/QKDEwKMTeYKxObtUS+7AOewO4g9GBfVg5JWhh5a/BpwF96pR8aYxKCTGUmk/DSCQgSKu7a1CFKsSrJ0NTSLdMEgrP8OB85unuWtpCAwTIPGr+DVaKivgsJL60lyfAJWNv9zlb2iAwKNYUfZe0tDfAtmql7Q0GDYA3pqi/QqHUtvGj0PBVZJUOqGY11iXgEdOMJi2en0DORp/t7cof0O+MI5oCPmN8i+d3gL9i7WUOKmjx9oIhAd8BKxeShylFgs7v8XzMSsNzxHeU4EYS8QP5X2OzlsmJrYIrKfqP/DGKlYBHHDZ8rjH+iACZNAd8xucHBqfJoC38iAVXUDwL1RbwgghT43RNcApYfnP0H40lqx+N5zPyZ1CK91XQsAxfa8A3MDUWfsX8CvJ/7ZcXfEX1MKbku9QbY/5yrE80xSyeOZ6PBsCCj/xC+K6zHVx0eAINrsnsl2t8eDLu7xPJ+l9QNg3qFFOsKdwgY5VcqfkSNWVeQM5sxmWf46xwWeF6IyWUOqqiSLKaKYEglTlUrrQQ6tIlJs20VkJZjk2921hA2kniWB0Ky2jpgj6k1jgKErymY4JCLnPZ2ZLUOehRhpuK5htBWiHV9GbF7FgcaIsLYMNpNoPQLCqO0vIGP22MTnBTqVFhlgL7ta02JRgk2ACMW9WzLRfsEk9FttJzQEkkNy3M3glX/RIbgDUxBi6Z6g4qUBjq8GVoh6lQoCyyHhd2iQZ1uB13KwNBjBY8BzwqJOtgKY5BBpVqeI1jFslSw3cOePQ5x+KjUbYo8qfHoYCXUcPXm70A+TPiNor3iItquvIfF1C9iQ/C8+znVzIHjTSO3ZHhQPjvz3X/xNuPy7fBx8Pz8/nT4vX/47dEe3T+DqkffwM=);lineShape=1;" parent="1" vertex="1">
          <mxGeometry x="909.5301881683738" y="370.7355105035581" width="39.81560734168579" height="76.95971186266661" as="geometry" />
        </mxCell>
        <mxCell id="HVyeGtr5qmuluz8HAJte-123" value="" style="shape=stencil(lVhbctswDDyNfzF8gQS/0/QemYnTeOraGSd93b5QPVREUF4lf7aEFYjXAuAu3r0+P7zsd8G9vl3O3/e/D49vz7v4ZRfC4fS8vxze9Ncu3u/i3dP5sv92Of88PV7/vzxMktOvH+df0xf+XHGZuEyg4P5eH3hi/v/g61X8eDh14qkXr+Q8Eo+1E9fPxwLlUycfHYmD8q6TT55y+sTxOZIXJF9zJ58TVWCvUOjPU5gqOL93VHsHCZOPAMCUew3VkwCAOrz4HsAkGQCEivSAQtPfW4CYqYQeoG4GOZSY2AASORA1TsS9l6rDaRcoGbcmyijvpB1gDpwQAw3FkzOR9lSBBn2deg2ZWzKuA9TE3ktcqYBI50KuT1ZmCii5o/USB4pYQ+5TgzMJiLTaUEz9hHbIdUBq5TIDNDIVANQnJg6JEqrQRNLXg+ghQRzq/HoGFFjTtVI2FTfT4C2AYRkFbGiwgEIJBE4BtoDUBlBxVWwc9Aki7ul7xQIyiLSaKGIBAgKntFXYAmDg0sB80prdOiC2ZF4AEPMpIAxUWZDR0dLMxK0oDtqejFtzs+oWILMFQBtSy5xlf0C5xCsARumtI0YaACi9y2DDhgZpTX9pA+AlrYc0tCwYhzpk69z1bjR2ZxvEFGqUG3XI79I68S2AzQ3BRoidlqaCQBr0xGPJIUBuw8uyqFGoeSiIDdpI5IeijijUcUhXpSqU358FyNCzRIdiANDRovQaxEO+L7G15cVYCad0sV7KlQIamGJrmjNAmQfEQWeR1KcGF0hM+toCNkbvQKE3OmlqoOmktolt1uBgR1G3OgNIbUhbByirmIFJ3YACV+z+o0Mfo/ln6IolwJ6lNhjq04kIbkDFLnySYQGxtElhrofQtpz18V4GIlOuBEeKZQBUyPfT0tp7aUG363RcyA8DEKI+XcycWKvR9M1WgS5yjPYyin0H0tCjydhbopw2UZAYzu5YWm4oas6OMhubtGut5oObumvF/sGbADfwPNz4hm6LrzH061YccZGj2B9ebQXN37UB6l0c7ZLeDiPqW+CZQN6Kow0pWM7ClRLtiofFk2V1fBitEiuOTB1GfuzIbG9fcJgyJcMiG3dBn7wp2xDXH++Xck+H4/F6p7d8by/x9NH1AjDe/wM=);lineShape=1;" parent="1" vertex="1">
          <mxGeometry x="942.8679306811259" y="316.8761784442929" width="34.44692038766084" height="72.49676522181392" as="geometry" />
        </mxCell>
        <mxCell id="HVyeGtr5qmuluz8HAJte-124" value="" style="shape=stencil(fZbLUsMwDEW/JluNbdmWvObxH52h0AylZUp5/T0yIW5lEu0SJyeypHsVD3jzttu8bofg3s6n4/P2c3w47wa8HUIYD7vtaTzL1YB3A948Hk/bp9Px/fAw3b9u6pv16uX4Ub/wNXHMgKFSwX1PK+gh5N+V+wnYj4croCQoUQHRA1tAAcoKSBEwmkD0CsgEWAwgQtEAFchpHeAMpHPgAhzWAUo9UDKwESEjOFaAdw6cWyeS64nCc6UXAWRwRQMIxOtAkFbrCJzAGZ0LHoruHEkEIwdfIHWdc8DWlkRrpMVEZtKBwGkAMwSjEfIYnQLqJ4xW1w3oKtVNGoCk2KlPyhCNstYihj5CMSLUNnVbklYaSVchaGlUsZABcG/qKkcjhys1t1ajHaIZpompmWo562bJJtdsAhfTN0O0wbDcOYKoc7iMnmWPyuDKPUBGmepo7Dwq4xMNuYrWNFAHtLElATp9Xyb6muWwiyBqMbbkA7C2HGUoxhQQQ6JWBs8rywF6YSQ2DfdPeWJZy28O6N/ISFbTwOv9S0be+sHNI675P5tDzxPkbtKb9akDq3Pz/IFlSRAkbWY3LyznyxBT9775pyrgdUHDPJ/+3peLy3njcdzvp+PK9fP+fCJL09kG734A);lineShape=1;" parent="1" vertex="1">
          <mxGeometry x="966.2163545548228" y="351.2186487597038" width="3.943354247905745" height="3.941098792215371" as="geometry" />
        </mxCell>
        <mxCell id="HVyeGtr5qmuluz8HAJte-125" value="" style="shape=stencil(lVjZUtxADPyafVXNfTwT8h9UsYStEJZayPX3aWczxpLtTvG2GLVnJHX3aHyIN6+Pdy/HQ3Cvb5fz1+PP0/3b4yF+OoRwen48Xk5v+HWIt4d483C+HL9czt+f769/v9xNkdOvb+cf0xt+XXFRSphAwf3+98BJdH+ffL7GP52eF/HeiysKEKp0vw8IXmq0gFQJoEo0W8IrCAA77npLsUnNBBCk6RVSlcBWiJKyAuQyNrkH8EkBSpbGt2RWqJmv4KU0BWhJIlvBSeoK0L100mn0Ieiy9iaOUaNL1zl45zjCS/R2T56QqY0izknHkdVmPJimi1TjaP1OvNfxJUgn8W0weeYF5EHikXDQCcQumVUILDDqaVIK6Zobapyb0CjzkHPTOXswJREiFesAUTqJT1m8jnejCJvxOQ1avsczEpUkwZn9hEh6HCRrbaJAjEPdugWawgANBdItmFy27QNAeqdbADtwxI96trxOsEjSg95tTWFgjBUTQDctN+rafebxLB03yrANaJKN1vzg+jYAfqQNDOIMpA+oUi0WwA6SnixTJwAra5CSV1siXEWnk7NJU4CTrMmXQUe2JSdeGwYaFxj5oEYtB1CjsCo5aYYaedjmXtLd5ADHYCtEeywA4InpoXHGw3LgVSor447imB6qtVUA2IwBPTgzMiTqGgDUavvA9LA4XGcEdskUhCVMEn3Qa0+jXZMJoqYr1FGUhSDYgYhGrEVN2ZekrACN+Uy0ggAgsRxgpStjylwQpnOoEpvdJsmZxjWew0cBOIKM5HAKM+trq5E4VnHsVFyNPqFTr8Tk5fUKIVAuFeRgBpNCBw1UvWhj8oEqCIrMmq19PNieZJpNoVPTwKGczOTA3T4me54gZXYxmYZB04VIbwHTrGaGJS+N1AjDV9byQVaFTaxtdWJ56sUAOHNXClQ+00BrpvowXrGXQ9C+N8105MTCTaZpk2md3gPCaoLDxSSzsnrL1Tob2zZg9tHFjbKwLc0j5OJ08GwFmJbuQ4rU9zzGJXOZqWNq3BaoJWuaZ49tfdo7MeITeX+ybUZ8JG2OtqSJj6x+9Z2hSyT7WY/1fIae712LeiYiNWc7jKsZs5fVvAC/6cQs3LhHzfFxDBA78dXsP3ACSdb9ghdl0q9gbz3R0VPwo9+2/h+PH+8f0h5OT0/X73DL/9sPb3h0/WgXb/8A);lineShape=1;" parent="1" vertex="1">
          <mxGeometry x="982.3554720575139" y="353.8338744774883" width="31.953596271022207" height="31.662152422520307" as="geometry" />
        </mxCell>
        <mxCell id="HVyeGtr5qmuluz8HAJte-126" value="" style="shape=stencil(hVbLctswDPwaXTEgARLkOU3/IzNxak1dO+M4ffx9oapUBcZEbxLFJYEFdoWJHt6OT6+HKeLb7Xr5evgxP9+OE32aYpzPx8N1vunTRI8TPbxcrocv18v7+Xl9f31adi5P3y7flxN+rjgWwLqgIv5aVzID0p+VzyvgNJ/3gAIkBkAVUh0DUoJCBsAZQnYABGxvSNJWRiEx2xwEltchIEBMBiAMVMYAipBtSFIg4hgQqXGyBzgsBYaa+5AyjwECgn3O2ck5QuKe1OqkjICWIq2aOOdjXzRKgM5+ArH5RobgMFp7QkOC4JwfBMi2XQX0KqZNWSyhwM5+Te9vi20Fg+TwydrVXQIRODgywJbfxhC6ESXuZUAI4t2QoNqacWzCGN2QOmVSE/coB+pIZV+Zep7NQWKr46gM2ZZZxAVoWXPolZk9ZarSuhuyy1KF2l2ArvSp6XDjKAC7SktWOcpycuwRW99vbVGg+Mr/uN+Jv2p6tmboKi3ghxvUW9Bp1Crt80ZpaGq9D0jNC3dFFg8QoVhSSwJx7LdsnGz2Elon3gdomS1LVR3HM3j90dqka3Ede1GKpXXH9F1Ezq0xtyuqG1NGyNgnwQ5ALaazbWUanWZNAZJVW9EgPV9V9XY/zurapE48ofv5B9fE7o9Inon9f6bSh38T2ct8Oq0D3f57P8Hp0jr90eNv);lineShape=1;" parent="1" vertex="1">
          <mxGeometry x="1012.1530036090132" y="345.4745831725169" width="6.727347718598139" height="5.214719468480666" as="geometry" />
        </mxCell>
        <mxCell id="HVyeGtr5qmuluz8HAJte-127" value="" style="shape=stencil(lVlJchsxDHyNriiQBBecHecfrrIcq+JYLtnZfh9MVJwMMZpWdJMlNBegGwu9S3fvzw9v+13k94/T8ev+5+Hx43mXPu1iPLw+70+HD/u0S/e7dPd0PO2/nI7fXx/Pf789TJbTp2/HH9MKv844oSITKPLv8xepkqa/33w+278cXhf2hZKzz6R1275RKKN9oNK27ZVKGuxtBSnb9sGWqyNAqIINglByOzA1tEMlaQMgFGq6DbD1UhwBiSLYIUZqeQQwMdohdx92QIZ3thPlcYNCOYArF4qjU5WYgX2i1vyNGwJEqu7GlRjQyMJcXZi5M/cygL1PjRcC7qzUxqAZ8SIkto40MmJnELNK1QmhwJhViqNLJcDzF1Ie7QsJFLKO983mYmBv5xmFnzOFiPzDo/+zcQisr52RM0UTZWAfZnfPgIYZYcIfPVSFGKmgUh45VxUeKQafHJuQIuFnL4OmnecXAYl91DT1dHYZMKeqGZApA2WKCddJ33iUtwE59lS1AEQghLLK2NOREPPC6tIWOCAd83octakRclWtSjkA99hvAfwdGKpflULzgIoBZWSrBgqA3gZwOdgABdGbuSf1pZvwFioeAIu5sXlF14ABTkEGuBKIVjygoTTTfHE2gCJu1B6n/92h+jwz3QFduvhSMnkJccMqxypwBQPKKnABiHraYUxME5mwlzh5ANzBuip3JIYtgwE0e0BBAGsc1QMyyMZGPo4eUFHLoCTVXxpVlEmjK1HLFcWtRI0qygVAhPl+OtJYd418jCKtvh02ACoQqitqpN4LbQUur46kyK23AqxA1FUJQlNGjSQucBUCrMh5trYema0yGtyRFOrBCrU70iKhX+4FbGq46UzWw/nUZ3MD4MY0yKwKL5KctViu22gV7mBzRRk12iIcHNRHutoVgOJsvh2vbN0HkoOdZ6w/JfcJ9vIFfAwKw+aHO80WbXcDalvVdGvrkRTYt+lybX3XEwvD0hP8tG0sTCBeNhiOZcEiiM6fVu8FBbYk4idh2xElVMsLI9+CaQZ1tyt7ge8jtVeY2R7zTb0/Kywg05Q08kfwnC2e/7jum4BdZ8F9Trwc3uQbZ5yz7HqBnX1BA5LxzemFEqCP+VNu8n9cdXchwROZw93DQpjbt60kyk4C3INyOQbaX5cWTx0B5aDi+3i7FRSxjfqjl8zPVx6EigMIHC0C+2Yt4fLX/AYyZ9atd0hnj+vGXIYW9gkVfD99Ce67bEZerS+oP/CvHdN5wPq5N6IL/6BaL70KLexRXRI/z1odQOunnmUX9sifyT9nGR9QLy6+7pk9g/WF4lgHEn5nvvWd/Lq9ffj3KP90eHk5v+kvf/eP+PbV+R8A6f4P);lineShape=1;" parent="1" vertex="1">
          <mxGeometry x="1014.0022428834393" y="324.9568965059418" width="60.348825072306" height="60.42839856735736" as="geometry" />
        </mxCell>
        <mxCell id="HVyeGtr5qmuluz8HAJte-128" value="" style="shape=stencil(rVnbchQ5DP2aeVXZlq/PXP4jVQQyRUioEGD371e9gzstafp0UsXbEI7bsq5H0onf/bi7+X57SuHH89Pj19vf50/Pdyd+f0rp/HB3+3R+ll8n/nDid58fn26/PD3+fPh0+ff3mwW5/Pr2+Gv5wj+Xc5HyWA6l8O/lD4Ny+/8PHy/w+/ODhncFT4FSh/im8JwpRoivCp+ZUn4DviTqWB6Nr4ka/n5R+JaI0xvwPRzhtX56pQjxhbW5AgUofw0aL+8dCN8MPlOH+J40vlIF9s3Ext06Jd7Hj/m1Fd+oIf9s7gGVAnCI1Khriw2eOr56gAelYE1QgMlKpGh8ohEDHVUm1kbuTKPuH2jFiiRe18ANvcygXd26UwBvEK/JWiS5E+WJxQ20Y7RIjA50KlqkKjeAN4xBrB9d5A3IleSAviEPGAtyIGrnyxEG5+LL2rs5wWwnWjJvSGkG1J4dWIsUM4wfSSd/0sPqGlCixQ80PlNBvtppaHyaAXg9GFz0SAYB8ouJYjL4DEKBnVdEKD8HV9AoAPmTJIdm8BXVG9GPlp8pIrzYKxp8BfK8mP8FP1A9kOu1fjLMRVEczvoDrB9SQLQ+y4y66/hAQ+uz4XomdMMUnGnAnfrRjPuEaZAdfNDiiwIy0H938chQP42yVmcsMPFWKpqvxAr1U6g6fAP6ybOarvhGCcXXZFcbfAHf55mSN3hUv5ML3wb5XLB8SAIuAH8WNlbt91G8iLtFJ39B+DAsHuWrMK2/wQfgP2Fmp419K8Zni08Qb9NtOdJPtfgK7Cvp1n0fkSex73B4EI9hWmcrD/SHESwe1aN4Rf8R2FfwLh4L5OseP4C/eXnaJI+vfG+bGWNPny5eUD/g7dVhPfX+IPEI4936W4P2En92+adA/7Tx0mbBeXU8IgLn471ODbwyn0j+h/nH5qtykK9sPiyz4rwy35Y5QPgr+HQlnyD+liz9jLgv4dntb/CI/2RXf8tB/WWTfzJVgJfskS0e8wH7XobtbZt94IqPMJ93258LX0J8vs/GdEPHIL3KthtB0g/LNjCZEVmN9nGxEHzXr81Q+rj2EhtyjpKzdH+mH5yjgD1ybrKDdIOInOfZS7zgERlearltXqA83eonTjq92xwZ74TN6dJ8aXkCLI6+uQswGS7NI1v8QXOaDB7NLOpw2Z8SkEea66ijRQwOvi/Ne9L6qZA8L7M9U1145pe9+UM33XvCB5xHsPTvQKXDNWA5QoIegyupYkZU4uWKoaOy9FnV9g6YJq+uit5Vk351S5DliiFM2WsVtp3d1Y02YJ1cRn5mcLwmm72hYtZakjtRZ1KiDYbeIbVZBqNaJFFDADdIcTKzkVHwcqDZbnU0WJ3GrL0rHm83sp3fbbxxb1zuLoDebemcuBaiu9FOgwYeF7hpysDrENcOLOsEiDfD8mVdAel3N5NsvA4Jdp1wsG5x+IN1jsMfrIsc/mAdFWa9XtMjXneFmTzX/IvXaWEOlzZ0C3Yz5vMD5jlnrXEwizDsrMMcFyx17QebKMOFOgz1aOeaHVMzy5yO4KYtORKG3/bUbGVHinQ7Rmwmt7LFTvD2hTCGy4+X3fPn8/39ZXW9/X+7q5Y/Xfbc/OE/);lineShape=1;" parent="1" vertex="1">
          <mxGeometry x="496.3100995290363" y="493.0024254365219" width="323.7411156299315" height="137.27396692754792" as="geometry" />
        </mxCell>
        <mxCell id="HVyeGtr5qmuluz8HAJte-129" value="" style="shape=stencil(fZbLUsMwDEW/JluNbdmWvObxH52h0AylZUp5/T0yIW5lEu0SJyeypHsVD3jzttu8bofg3s6n4/P2c3w47wa8HUIYD7vtaTzL1YB3A948Hk/bp9Px/fAw3b9u6pv16uX4Ub/wNXHMgKFSwX1PK+gh5N+V+wnYj4croCQoUQHRA1tAAcoKSBEwmkD0CsgEWAwgQtEAFchpHeAMpHPgAhzWAUo9UDKwESEjOFaAdw6cWyeS64nCc6UXAWRwRQMIxOtAkFbrCJzAGZ0LHoruHEkEIwdfIHWdc8DWlkRrpMVEZtKBwGkAMwSjEfIYnQLqJ4xW1w3oKtVNGoCk2KlPyhCNstYihj5CMSLUNnVbklYaSVchaGlUsZABcG/qKkcjhys1t1ajHaIZpompmWo562bJJtdsAhfTN0O0wbDcOYKoc7iMnmWPyuDKPUBGmepo7Dwq4xMNuYrWNFAHtLElATp9Xyb6muWwiyBqMbbkA7C2HGUoxhQQQ6JWBs8rywF6YSQ2DfdPeWJZy28O6N/ISFbTwOv9S0be+sHNI675P5tDzxPkbtKb9akDq3Pz/IFlSRAkbWY3LyznyxBT9775pyrgdUHDPJ/+3peLy3njcdzvp+PK9fP+fCJL09kG734A);lineShape=1;" parent="1" vertex="1">
          <mxGeometry x="539.2163545548228" y="538.2186487597039" width="3.943354247905745" height="3.9410987922151435" as="geometry" />
        </mxCell>
        <mxCell id="HVyeGtr5qmuluz8HAJte-130" value="" style="shape=stencil(fZbLUsMwDEW/JluNbdmWvObxH52h0AylZUp5/T0yIW5lEu0SJyeypHsVD3jzttu8bofg3s6n4/P2c3w47wa8HUIYD7vtaTzL1YB3A948Hk/bp9Px/fAw3b9u6pv16uX4Ub/wNXHMgKFSwX1PK+gh5N+V+wnYj4croCQoUQHRA1tAAcoKSBEwmkD0CsgEWAwgQtEAFchpHeAMpHPgAhzWAUo9UDKwESEjOFaAdw6cWyeS64nCc6UXAWRwRQMIxOtAkFbrCJzAGZ0LHoruHEkEIwdfIHWdc8DWlkRrpMVEZtKBwGkAMwSjEfIYnQLqJ4xW1w3oKtVNGoCk2KlPyhCNstYihj5CMSLUNnVbklYaSVchaGlUsZABcG/qKkcjhys1t1ajHaIZpompmWo562bJJtdsAhfTN0O0wbDcOYKoc7iMnmWPyuDKPUBGmepo7Dwq4xMNuYrWNFAHtLElATp9Xyb6muWwiyBqMbbkA7C2HGUoxhQQQ6JWBs8rywF6YSQ2DfdPeWJZy28O6N/ISFbTwOv9S0be+sHNI675P5tDzxPkbtKb9akDq3Pz/IFlSRAkbWY3LyznyxBT9775pyrgdUHDPJ/+3peLy3njcdzvp+PK9fP+fCJL09kG734A);lineShape=1;" parent="1" vertex="1">
          <mxGeometry x="516.2163545548228" y="531.2186487597039" width="3.943354247905745" height="3.9410987922151435" as="geometry" />
        </mxCell>
        <mxCell id="HVyeGtr5qmuluz8HAJte-131" value="" style="shape=stencil(lVjZctswDPwav2IIkuDxnKb/kZk4tadunHHc6+8LjUpZBK3N5M2WuCKOBbDkLjy8H57e9jvv3q+X8/f97+Pz9bALX3beH18P+8vxqr924XEXHl7Ol/23y/nn6/P8/+1pWjn9+nH+NX3hz4wLJHUCefd3fpA8pfnJ13n96fi6Ws+JJPYA/QRvA0Ig7ywgp21A9INJTCluA4TJSQeQBE2SQhw6QCxUgdNqcfE9wJEHJiWhWjpAcFQD3KH2O3gmydAH10eJNXFgh1gpch8lCmAD9dD47CmgPDOVPs8Rejwxrw8RM7FA5gVjkCMHPNDvOR6S4LYBmXJPbaViKiBpxP16ic2nje/73mOliaBaY8o9sbMQgxxwodwTu2hWAE/VhdqzqORWG/ezLI2VDVA1yoh2mubepKpPPCC2s7yoEWZNi730aaiC05Yo90ytmklgkkbdME93CCCsRShX6wODnqevhW2UIthBLXZuAAAfam7fWwESAhRKYn1wyKQ6ZDpSAmxVQM02rB7UwwQwOyxh2AJEbwEJtAx1OprEadECet9erwDQaaVGsYAM2KpB9CMAmeSpsgVE0Fi1gi1bU8vMFsAMXAUERG9Hech0wgBLDW0C2Ic0kC8gei8yZ1UPBSVO2e8tQBD55F5NI0CyoqEuzXOLrZYa6gPiUh0AsamCLUAxACEHEsfODY1JWvK3tkimMSWKiBtl6PcZ2jRVZLYAmLlEfgBkxL7PAspiwAIoUOPmZNXV1G7xkPs/cBZ5dUvNfYQO3mS3QM1S1U5m6wSa1DFTGZplBvRTDcoD/QqIq4pQm2rthoAbKmpj73RRDQX6Bge7QwmtMWyIRD9ouAyCxHbsqkhEBjnbZQSXtLeiVUVuAE1m6GIqotGQnlS3IV5tR5Ut0VrMNIEnUK/r+87tIU2VRGYe4jqQaCsnwNFzO/+uDjIFnfWqVbiadBTSPLBaee4R52o7qi1JZqjd1Ad7OHRQEos0lbMACjwRR5V2fVRThDuEQMHcG6h2Q4UzKCsFIEnsbUtNuDK9VT1JoNTjdr5erUea3t2xhwEtXNNcq4gWuN7cGOh6AcQeJvmUMfh9Hi56CuxcNj7KQjDSXNNnq/UM1mv8h6utig7D7TZhtR4pF28vSD64OvvsVdvH6/XH7V7v5Xg6zdeC6/f2HlAfzXeI4fEf);lineShape=1;" parent="1" vertex="1">
          <mxGeometry x="543.8679378978479" y="492.0736095957609" width="35.4732334683863" height="74.66095479458431" as="geometry" />
        </mxCell>
        <mxCell id="HVyeGtr5qmuluz8HAJte-132" value="" style="shape=stencil(lVjZctswDPwavWJIgudzmv5HZuLUnrp2xnF6/H2hqlRFUNxO3hwFK2KBxUFN/PB2fHo9TM683W/Xr4cfp+f7ceJPk3Ony/FwO93l18SPEz+8XG+HL7fr++V5+fv1abacf327fp/f8HPBlUSpzChnfi1PPKX858Hnxf58umzscyHP2t6O7VMgjso+hrF9DGScsi/g/YEppcY+1Ae79t7p9yfywJ4Nmfb91pArY4AtFBTAU0AAS9k0AGcoRxAiKso+1yf7lMmHxp4zMQPKVHybgUwBpEAS1L4/ZJiypP2J2F4CFFrCKZNBEU2UW03nUFW7CxDNhNwAiqHgQYgkRm2SC9e0j2SXWtJFhA6SFpyOqgASIB0lza2wC66cJJVgNQcGuhNA9B0ARCkxudBFCQNSF9aCAJ4sa9IBhFUA7HRYLehHM8BoQMYuGaWlSB50VCEdFSDVzIwA1msAoxMcBdYAmAerC0gAkIMlthrgEAdTg7iJUkJ5MB2HiBNnyCuXAuZgdJsRLWXMIWUNsKBEJUpOcWA8PLvRIACPa9p3J/wV/EhLJnYnoLCKWruugfrSXA9diTIuUdeFtYDuPZeoOiFUJ4ddQ7WZSA50byGdO/FlHCXtUsInyHzoahoN3Q8DZD5EVdOlNs/RBIp68zFwZsmQ041JjgAlx67Kf0sChEl2k75GEQkbtPpyrq1qsJyowZ4KnECsZ6J0BdS8rfYnFGKgpDXim2UMCcnU7Xpd9hJOQd1N12Uy1l1o177USbOKQiYD2sUy2Xbgyv6MilNOcK0mIlz2vK37+8oYEpYLg1cMyANRx3WLqvYGj5HuwmOgQvsLlakLxH4CugsbLsqS9caz3mhG9ln7gwQnJe6Sso/In0JRCaKWxMg+qzYEd5dNk1olTRY4tAuIKAOdR7LnAo96xgxXnT6iHiq6z5iHk6BXBL7Cf/QTwf/t5ce/7xEvp/N5+Zyx/b/+fiGPlm8f/Pgb);lineShape=1;" parent="1" vertex="1">
          <mxGeometry x="589.2164382260335" y="512.8679306811259" width="50.90738332967362" height="47.34973529663057" as="geometry" />
        </mxCell>
        <mxCell id="HVyeGtr5qmuluz8HAJte-133" value="" style="shape=stencil(rVrJbls5EPwaXQnuZJ+z/EeAOGNhPHbgOLP8/RRH4NNj91PJA+SmKCyT7KW6uqlT+vDj8cv3h1P0P95eX35/+Ov89e3xlD6eYjw/Pz68nt/w6ZQ+ndKHby+vD7+9vvx8/nr59/cvY+X49MfLn+Mv/H3BeRdlgKL/5/KFuJD/++LzZfnT+Xm3PDjxanlJt5cXF8KyPHjX/O31zdW2ro+uRXIc7+p6/FCcNALI5kTiWiCA5npeADG7TCwEE5X1DsNG5Ej4e7IeKRVX2Q7GSjnOWx0DxPW6Ahq1UsId+gIo8IMQQHRdAapLDJBcXwOpdCeVAGD1sgLgOAYoLnsD6BQgUQOkEEB1efVD9S6zIzXn1zvU4CJxHABtDY0aXWR36C6vfqgwNPODuJRWQJkpfgjIIAwFQCyRI+Xggrq0cEB0fo3WtpHUMSA5nzQgsB2y86KP1InjcjGXhqEJL2WEhjFrZUeCpxUAOUiCL4On1+BDxrEULV7vgG8YCSDl1R1ghszIPru4UiWCxRMr4cRhzbhBC8RK4AivuLVTTyMhVcbFOMnzGIDgW+8QsCdJ0YpYWmkmJFqyRn6pHbxLxNPIr75eurnEroBYXkkj00hqYfLoZqPJ/sfrk665PI5a0cWEp3Pbrndd75lmkBlk1/WV3Lf7aY7NAVQB9DAL0xalfH0yZEGrc0dlW/0ltIp02FNFXKYh2qu5sMwoPwY0V1YPQ8h5EhK965AYCoIdSbReQOUKxMmCKqLIKNEqIlGXfzAmC2tJM2o2fgSfkbiWrJVhaVPUHAPKlBM7vdBJpEqdibUr/0LMKjhAMgCSa2L1QqT6X0R7ugaqFwBooneo7A4mNECxTA6LGLOimDLHybTJRqiBFufgvSZ5kBpTq7JJnAkA64Q7gJXEQCOd37qvt0aa37FrUwCkHIsN0QkBQOY7KJ4BkUQW36IFNLiwE4UxACtVgpwzjz5VS0Z14XfQgETJ1R4J0lC443TXAEIngsGaFZo+cEA1bQblShMao83gO3RzpDuOE0VMiFa+g0ogaHrmuKMczffsqmmgUwVtiabHyYbvpDLU7n4nRxWg3QNUBehTHfwigKkQOBLTt9K0/AQxBRYb1ZiVT1jENOrwA1PQo1Kr0BAqQYcWMHzf2B1wgFULoKRQ2gi6kwELsIFJN6q+3JGJfSbYbobD1MZQfSvg2sXe0pV5TaDM5x+IfjXDGUMaBsiajRPvNYb2Xq00hmVM6gbdjUHqspo1ugcFwJ7kDrY9QX/Fhj62/xkjRbaDabAAYJ5GSWteH6kQK40WUR0pz6nOzR505fvISWA0uarl6HT4VovpygKtu6NRX4+E4EvsSFGnaBLaWI5hg8qHTHmpbD3Prkdh+n4MTNZLl0Ir0LWF2UsBEktj6KMAjYbGGCupQp34tE50ijZOZGM0pipQpjOcbOayIM/MZmllZvDWgSfa78KvynGoSWwmMEaUK2tI43cwQ1BUbjb5HWPWlWZ2iujmJDfoLRIBjFmxAnQafWManTWADQSTedkY4uDORD1oR7DhWDKDWbiavWANklDRJ1McHAOyHjyMpobN7JOev6Eo0SNFPXhAyaAPFUHXrJaplcaD0RpMIPRCPH2tsruGgD22oH4ovi+N6p9rDdwAvPUbD3dGzrAdgnkVQE6xpmY8PpohFksgGEmVrMLrg36rHKFC1pvHWaxnwxzz9ov1jOv9bAr3f5842euXn8SHS16zKtReJmFqh/udTuy8UWJleuTWeiOTWDdm1geZo/v3nSc02jSY+4ZMBzLGnoErT+Ov4P9fPMhsCN4XbvynBneX48P1Vw3fzk9Plx9F7P9f/woCX11+QZE+/Qs=);lineShape=1;" parent="1" vertex="1">
          <mxGeometry x="45.87617844429292" y="657.0195429498126" width="391.0401741016576" height="9.281334193852445" as="geometry" />
        </mxCell>
        <mxCell id="HVyeGtr5qmuluz8HAJte-134" value="" style="shape=stencil(7VnLUtwwEPyavU7pLc2ZkP+giiVshbAUkNffZ5RFxhrZvetUjtwWo7bn1a0ZaeevXu5vnvY7Z15en49f9z8Pt6/3O/9p59zh8X7/fHiVXzt/vfNXd8fn/Zfn4/fH29PfTzd1Zf317fijvuHXCcdkfAU58/vtQaYc/z75fFr/cHicrfeGvNOAAgDBk4kDwK0DYqBiBpPKOiAlsmGLDyWQKRqQwBcKE+cBENYB7MjzAMgAECilwQcESO19MwB7ACjklNOFLIgSMwWnAcGsA6wxZIxGoLguIzhtMorJoUyMbssreFNgmTJweyF1TAX5IMUxmMQg12P5zQK3iMiJ/OCEB5nIhkrWibDgC6kMlEiNVWuArDLnyYEwCSD1AIkD1AEpz96kEqnYTV+wrbzWAKVXSwl0BqRLg7xmCxkhgNQTQtQtgXKVxLleaZIjB5wWA0zvdCzkMSD39S0KjeQ1O4q9D9GSQwAphN6kgNVSALFX/BBaoFe/0FMuGArYByXgPpMBOlMJ1JvkfXuySiD1BQM30pR14pxQFJV30Ca5CJVMKsf3mXYe5iGy3qqdpQKqNWbNOGegfMfYanOSPrylRE++N8lmssgH27aDCRDh3h64tS8TQIoPCFmQLagXAeuaUi0DkpZKa6CQhUhRbUFQA4QtsVfKDEWmskupEjnkwEA3D3uT4DQXLFlkj/C/D9DZ+Kge1OAEZApBrXeAONHorsRAsZAiTazXo/cnYqPXIxKwLiDTErJMfNuU5319BPFJ0tNntR7lV9a7/v0Wbjlp6JAsrM8k5vYMczie0iorGcIqNIwkk1KuaUq0G9aHqbG+zB6p51y0v6j+J/pdFs9xZrNt6lvlu643yPcw8gvVmwii0jdcz4F1/Zzhi3Qsm/gYW4N/Id/LyC+kJ8JHp+OD9Er4krW/sPH1w64K9fYf1tt+vRQg5nvp1ye4f8l6Vc+ZImqdvN7vuBX4Wuek9cdQQgZNLcNsi4fDTdK9mfW4+yuN4bM2Bc4qrE9FrOwiuIP1SiRKo+naYKCydoYG0lSzki08DeWg+3wppIjnXqs62AiVJZdm8aypRtQvRk900rZnkGkZKdXeLYMBBHjdkNbRA5kUdPdRhxuQBwHkPnG1wcOA0OuXdEhokhAfyjgCohM2UYy+NOqQiQCDZNcxFvngWpM+H5TBJiWJS73TQtoMRKAeHqiu2sLxSQAqSnnq/Nd8UIev9Zs4D7aPUom4+EI7z5gfuiCTkgawfBMBuEn1BIgtDP/v8HU83v04fP04fH0rDtaA/3v4unC9wDCuCxcYjI9RxisS3noJw/ASZuGaBx++jvdI8gE0cuqO+JwHCx4jIfNDbTPs4KzuNN6LfXG90ScQlQqgKBa5BvxdZDMoiWECZty8jf4W2HKP8SztOPLCfOWN9YAv/bbeW55fLz/eL0nvDg8PpzvW+f/1pao8Ol3I+us/);lineShape=1;" parent="1" vertex="1">
          <mxGeometry x="438.36241720730004" y="506.7846187137982" width="18.13401542272777" height="155.0482078415912" as="geometry" />
        </mxCell>
        <mxCell id="HVyeGtr5qmuluz8HAJte-135" value="" style="shape=stencil(fZbLUsMwDEW/JluNbdmWvObxH52h0AylZUp5/T0yIW5lEu0SJyeypHsVD3jzttu8bofg3s6n4/P2c3w47wa8HUIYD7vtaTzL1YB3A948Hk/bp9Px/fAw3b9u6pv16uX4Ub/wNXHMgKFSwX1PK+gh5N+V+wnYj4croCQoUQHRA1tAAcoKSBEwmkD0CsgEWAwgQtEAFchpHeAMpHPgAhzWAUo9UDKwESEjOFaAdw6cWyeS64nCc6UXAWRwRQMIxOtAkFbrCJzAGZ0LHoruHEkEIwdfIHWdc8DWlkRrpMVEZtKBwGkAMwSjEfIYnQLqJ4xW1w3oKtVNGoCk2KlPyhCNstYihj5CMSLUNnVbklYaSVchaGlUsZABcG/qKkcjhys1t1ajHaIZpompmWo562bJJtdsAhfTN0O0wbDcOYKoc7iMnmWPyuDKPUBGmepo7Dwq4xMNuYrWNFAHtLElATp9Xyb6muWwiyBqMbbkA7C2HGUoxhQQQ6JWBs8rywF6YSQ2DfdPeWJZy28O6N/ISFbTwOv9S0be+sHNI675P5tDzxPkbtKb9akDq3Pz/IFlSRAkbWY3LyznyxBT9775pyrgdUHDPJ/+3peLy3njcdzvp+PK9fP+fCJL09kG734A);lineShape=1;" parent="1" vertex="1">
          <mxGeometry x="446.21635455482283" y="508.2186487597039" width="3.943354247905745" height="3.9410987922151435" as="geometry" />
        </mxCell>
        <mxCell id="HVyeGtr5qmuluz8HAJte-136" value="" style="shape=stencil(nVnJcls5DPwaXVEkwPWc5T9SFWesGo+dcpxZ/n7AUfFJBJ76eXKTJbZJYmk0wJN8+PH45fvDicOPt9eX3x/+On99ezzJxxPz+fnx4fX8pp9O8ukkH769vD789vry8/nr5e/vX8bK8emPlz/Hf/j7gktMnAaKwz+Xb2qhXv775vMF8HR+XgE5rIBEIQGAELcFUBoVBoBERVZAImkAUKitR8qdcgeATo1XQKIk9wFZqMYFkBq0Uq7U6woQKuBIhecVJ0A6MdihVJJ1B8lUAaAyxdVKIhQqABSK5kgBXrp2SmUBcKcY7wNapLbegSu8dBNKqx84kwDHtTQDYQMICTpSprJaiSNF4DgF5DWWYpu+v3eklFdAoYKt1NcUjWm6ct8PjXi9dIyUkeM0NlfHaeyBDB0JvLqhzlDZXy82uPOMlHvZwybdKIAL5zgZaHMaVUQY2YaRBmK+v14aVWNQCuj8wXJkpApCQvnI0AtPRrtHeJ2NfSriO+VPw9lUEWUHasY+cd5o30CVgotp5DGlHl45fqQZcIFGZFqvzGUabR+QbUwLT6/vAzTN1iOp2wMAaJ7X9dLK8Yju1Cay7pAqjNOYbSJnhvyoxNDWHbJaCfhBAWU1a8EcrwBDdyVDTysgrRyv7IGSLTp+1MqVDnZYL10zJNQdQJvRdRewXrpphoCE2wEIjqVkGUnLRAcpqgATra1AzoiumjeNX1A6Nbx59UPfaOFeAvHKMp2po5xO9kg9Q0/zFjkboFIGVhJnpa48Ahw3AM0CCrCSAkyKKgDJMGUhw90KaIAERGuNA6AUZV+tQoA5qlRqhNvYAphJPcfOTChctaAZFhi3RpeItkAMu6IdAhXvOXTpMM1+GxugSg+R4Bwh6EhO9iiAESBb2lBAREeqk91vASghwqShWwAO1+DiG2lDrezVOU4QINkyOvyA1Fi2YqPjdk93KM5KFd8hJQtoyKxxxw8wH/TE7g4w46rNh8OkTrYFHVugYJIdokFVThMiux2QntGUqz5HUYX4v4AhTwygQkC3gqnj1qS4CrRZbT8yHMkEyHvRcveo0mC9dhpeBoAi7fL/QGf49VjI+PVYKbn1B1Jsi/l3aj2/HotJt/5ArQabMwdyWNebYRjW28GmvQp6NEcKtjMfHQNKGMtDoyVB5GtroPY8AbX+Np61Veyo5Ql2HqkVSABrRbE31j0LAhQ3dIq4betTxW7Um7Gu5XmAm/YZVbTRvq9WrbBrG0OvNYoS1kbZDeag9FcLGlaJcGKrqsL02kpLwKIpzZ+v6+F8p9ioC5RQ0LEtx3FeaH99mbX3ah+0XjnEsITA3qtuXcp1/iVgfeOpNq7xEED8tGojVEUd8Jf2ZcVMFCM0aC9zaHozgkQn6s3eQNMuox26bYsinrDfyJ+bPGYQdXom09sNgQ7SRqVD89NmbCbTMqvj0HhaxYPdoeM7uHoveBSpciAZAhYo+JvrclRvN5QMZRb4DdDhiF2zx2SD1hBEX1qCZaWX8fqCHlOcChzvO0jVRTuAzR3Kirw1o1sdT1BX5GZrwsErmAJ4BRy8synAhMbBS152zwTKU+hBKFfbR1U891feTs0CGAGyk4N1+n4fIM5KFU55c7TPZgOAZuF9+vW9gGoz7uBIaXu3e+elk5s5HZh1zKXdpZHjkhvXHITGrzwjHwH0w/XV+tv56eny6H37u33l1q8uL+Ty6V8=);lineShape=1;" parent="1" vertex="1">
          <mxGeometry x="444.99741236946306" y="328.97093627424044" width="13.898506488730845" height="232.6333919926211" as="geometry" />
        </mxCell>
        <mxCell id="HVyeGtr5qmuluz8HAJte-137" value="" style="shape=stencil(7Vzbbh03DPwavwoSdX9O0/8IEKcxmsaBk97+vmRdrXeH58wmbVAErd980ZxdieRwSEnnJr/4+PbVh9sbiR8/Pdz/ePvr3etPb2/ydzcid+/f3j7cfdKfbvLLm/zizf3D7Q8P9z+/f/34+4dXNtJ++un+F/uE3x5xdYQ8DSXx98e/lBRm+/Mv3z8C3t29PwLaOADyCL1TwDg+Idcg7AkzxHIESBiZAlI7AmJIkQJGOgCkh1SvA1oM7TgHKcF+vQpIodUjIIUyCEAQkEaYhQByaMdJpxYqsUMrofUjoIRCVqlVtHSSkNkrNVylFEMmlm666nIAjFCIofUBPR/G6xMTncEE56a+rUs0j++TQ53UBnIcL6GyFU1r/bYFWla/7Kd9ufEaH0Nn49WgDcY3FjjqxBnGs/evzoXUvsSpaw0d34dGfg+lwPjEmaIlGB95kKWK45m/qT/g+kdm3x76l4zvcQXgbjwJsK486NaHfX4JA+2ViD/3tsy5sy/7/B4EP78QVuzqD+j/hdi3Zxwv1J/7Nr2neD8hLMg0JxSq/HeM9xmE8I+lvmN8KYOytKEBU48OkSpNGzU5yh2U4opzUeMsskbFcYRsrHoZkNYabgBdJQLIE71a8z1zIwVEpygyAwzkodwX018DALEUHjn6SgkAEiKhav28epx0yWuhrwFyQkAmAH2lOhFAl3VLvnsAm3QLYyCgEudTM0U36UYIJucQ3aQbm0PEDG4Askri1OnJK6lSjO4JbNIaLsVNmmVZcRF3YjhVKZD2zTVITCsgOcMJA2hiPsa0RnnndhCIuLlyxWWAYMSpdzFuzSV0qENkZbur3np8JeUlln00HiD7a3qgISoo73ShKRnXxRE7AKulivMlBTSSH0pD1jiRtJofmgcQS5eJGuDJHa+lLEjSwt27ZvQlAzCZWlfVsQewPN0vAUg8+IpTOFVaAekMV1nFucXX3tJMy1xyvs7ErSBrKGAQO2g1FZ0SoOXOcKukiZjYoacgx4jTmJ4MULAA08Q+yLKaYnXcymJ6RAcYdJWGK+S1aookHkZB91bZyJxv1BWQm2rlWmN0XFY1ZSKsMeZ64w3QKZHNtOqcBVApzsTJVLse2bvz3sLcKvcNkKkMnQ21t1YfLANN13bScigS55sD5Y8CEgckB2A5TucwOwJYQTYrkoAB2KTz+vcOwMh4OvY2AHM+l0UNwOKhYWPLACweCgpdmzRxDQ3R4V6JeetIK33sDccmHbGOM9fggOSeQGNakPmUC5lreF7qJ6whKKUbr+OG4KS1vhb2SprjjoZTImM0o6sE3modIOLefWDarY1mUV31Dk9Q72IZKCMJqFyprEdRkFsVwJqeCugVAYwqledmQgDzVk2Kxc2B5Yc+US8ZgIVoWhyxB5BlHVuZ97mAemGVEsvTHQWWAYgvaVKEZl3l0mHGJXb2hmN0n1YhuXcNRvfpgqWZDNVJQ29GtTIl44p5WsUJa2kO1yJWJUupUuMBAGU985pryHHSqjOZElDng32MnmnaVfcWAHRqB4044CV9Jg2guNZkAxSasnRNoOugpmStbitpADApaxTXhVPvYnSv1S5wq4qJSCJOC3DY7VFRR9tFEfOD6pvBWi19Ue8GaBxQMeJmp+WxuFpUZSOLOOuuOkBjrxSRlxQwiPOljnlaAay5mdwukQGILyVHZCmebGxgjrMnMEtjErU5Ey5OWAHp+E6cOyJl6PhKZhxx382sTBjD1a06npFexn2WOWl2a9j2sWKFvU/EUn3ybYGUURKfAfpSzPtXIl5nNuhuzqwzK9i6mryFKG431qzGnzDdHGjv18kY8zu2Stse/t6xWahVTJ8WOSwSEpaIZ7E5Vqf3M6O/YNvUxrNFuhALncaaj2XWsY/Yapi8jful4+t6+i4lMC+ajk0bbXIZ/YIBKu2l2yYspMHC/drty0xZuxzXeunR5X6mhYsriAcnvDKQkEy/sJZswV7J4Hu5dTpJlfiZnoy7iKry2GmGVl0XINP6VstfkFQnSrV1FAumhdmGdMfoN7XNusQTdaQKRRb93W3k1EpT4XNBvAGeC+JvviC2PjQ0iAo9cKHUC/vF1lEiyzrdmTXrWRHnU+ElvivGABOp8qTvZhrk6BonnT3L+L53yHRPdFnX2pNsmf6v3Xf3Sl+9++76ys/d93/afe/T7UZVflJu4ElUS3ssyTUHEOpL+gKQ2W0Ljs0hu8bbiRRwVa4qIqp/5qWNSnb+dlzaCmUarl3abGUazm0Y23YuE0zJAbh20DeGXoNtSbPz8RV5KQs9+V1l1c0LYNvqvLV3YeP++VwKLOu/ci7FLetXP5fin/AfP5eiqwSSTLY9hWt2AHEiPKGopREw+bHciNIh8wrcWAgAjRZypbnzcpNmIKUtULp2hI+F6PMJ1b8AzydUEfANnlDNbtJca4hgjX9yxNt2cuDUOT9ErgDonNoxdUL3TxltxxosoajhUAlMesFGXQO6CHaYn2/BQal4csUpb8cltn70WF32y4COzGdXHk5OzsOVB6HNmeL3BeitIhUzcLK40SkXV7CXtX98TZnABISGpyYTILFEK4HnW2Dnt8Dw809ugQEBP98Cg27pl90CG8i8cd0uuFb/g/pKNP/Z+OPny9nnQ/xmegtsCL5Pof05HQ+dWH5rdWQU8SfngQU7jClSgrBzd3ANT+g93RFxBraJxUw88RidXU5mvYWBN7ItbfAWPTi1bc5yr56uSmBytjd38a1THvK3G0+uoSsAkuvJRXfrSsH5eH6V/qnDuQH4Zf3esHV28nUAveF28snFN500XiUSulXSvdgUbjgn1AzAXCNiz7OcXHQfrjTiAdQaFvJngHJhWekryeLoz5y0Vf7ODmxZ63TFFzecfVNERQBzjb/zXRRnAP3h6asv3ty9e/f4zRn7/+NXZeifHr9mI7/8Aw==);lineShape=1;" parent="1" vertex="1">
          <mxGeometry x="445.56858199701946" y="213.23344707501383" width="12.500793475725231" height="278.30980673388683" as="geometry" />
        </mxCell>
        <mxCell id="HVyeGtr5qmuluz8HAJte-138" value="" style="shape=stencil(7Vvbbh03DPwavwoSqetzmv5HgDiN0TQOHPf296VqaL0anR01QF8C5O3YR7MrSuRwSOnc6ZuvH999ub8T//X56fHX+z8f3j9/vNOf7kQePn+8f3p4tk93+vZO33x4fLr/5enx98/vX/7+8q6P7J9+e/yjP+GvF5yqa9JR4v9++U9VV8K///n5BfDp4fMZEF0NM8C7qASQXGoToGTXIn0DTKlEl9kb7Os0A8R54YA8AXJzsgHMRufsYuaA2Yas451XAAVAcCERgG3cbEOqrnBAiTMgO2kcoDPAbCgUUGFKfrfTYTY6VucrBcT5DTGNR1wByux8UXaAPAO0usadL/oZcDj85SrNRqs4Yaskrs5vkOY824fgYp0B2XkyJXuezkaLUtew5+GUvCtk42Tx1lBdYoDg8mxDyC6RfQhthMsBiC6ReOjPm+MhiEtkWYMORzgAntoQAsZ0pRxguzAvaqZrWsbLj2ijpGcEM5trXsfoAn3o2JCL4UCQZjvJIkuUGVGQyWTkaz/o9WIhY4DhyjxBXMHHM+pdPcc7T1zTvk6C4z0Zb5RScDzxG3OrgPMX8nzjB8XnR8aJi0bwXCKkkSZencEzgrP19DA+svnHkSQOUneeuXLA+Rh9MXarw7xToLPUas8T4J40XPBqh4Gs+pKyLRakkk4O7A22xzNZ2S4yp5bDxGNRLQqYl3pMfLEMirkChHkbTE80ZoO5PaguT+WB5YAGDJoor3Qb5imVQKVmX9Y59EvhsSwIqMFVkmW6LwMg833Iw/kPQHOFASqGQxOuTYMrs/O1repq88a1whmguTp7a6tcajYUUQZozIaGnNEaV10FiwoDRKbrjPU8Atg+WED6ggDmGmoB1BDQmC8VF0Di+G3q8esrGDEFJ7oYQQCm+8o3LZNlW3RXvhHGvbLsnDDpGDE/d2diAqBhjDau+Vf528Iorq4UOXhf5fK3Fx0A8DQF9Tpo3rhiGo4ERDzW5FQDZ/KGlDCoU6NFcxbMu4kr8lydzK4RM6XvIihTY6BGl+TK/AbjBbaspY5myCnvsinZNsnsfMrzbj0y1EkKMGluAKgrzB3ZspaG+tDyZCV8XzLaYFGuxAbLspCoLcpZSZsLcqUFbSDLar7koeCUoTJve6ssGu7QK7fjQTHJlSGTb0doxarE4oOp1ojxFgeb3zYgYhUjw3dvjzcdMmdEpSxp6g7yG/ciIxjNMJ7NRzNGv44mw5UqkQjjmWSwKAGWV6e8ZQG6SnaZELKzULbr4yE502ZZf/1SJbEUYkGJFbxnVdvRq/uPVV4ey/c6fuMPHp/PcmavJgTnQ/YrLVVeoCI1ReTRQOdv6QzWX2gxYuOXhktmBKRY7Sh9fmxY9esoZm6PN/rAeC+cr5Z4r8wfdCjL0/OZfxpd4nyYrFsLIytoeQUMLXjhpZ1HvhX+fMHmdaD7+63jc0NlrTTNF5v/zD+Jdr3Ksp6Fdo1MFaCspgVULQv/cIJrHh0iKK0MWnQRGDTRLopVoSDOTKcwjuiFA3C6H6cotyuD1/rqLLbYnNpgtXNnhy1TXQ4c/Ijs24ClgHo9Crpa1wBvKLT4sGIGUqXJapbrrZipi3CngIAtV9NrjL1MuMM+WPHBesa5Yjs98ymZwgQ9V7hgSYvAqTxjmolgQ+VNP0uZDUrlQA+vYkL/tkKWVe8/GjUDsGnUyPKG/71RE9ZX/GjUAECw9LUUIMzoMM7QTgEhjFxH++DUS+WHdiCye7OWrFHCIq13g4kBcWiWU7uZ9dh1nFyd+9lMJSHT94Y52wE8hth05Bcv7S1/diiL9m7OFBaR18sMYq/H/s/mVMQvollpn+LIAOdmDrF3EXl9hiStrUVmGmX51fNBpHqqOhem42fWizrSkU8uvPO7PoT2MPzHIfRpr773Q+i8tg8a882KkRhpT1Ubio5M6wjjJWiH1bHAl+2Y2fst0pVMKCqmoiAckEbRcOrZMq61GgAv2GRKVsbdcLur9515zwRq0k0QJ79UZ0q7wr2NvHTnWVwmxXOYfruLlRERNbsKrf9SwlXqh0Wsk1wGUx2ASi9MpIqHT5tbdgbA+o+fKFvxJnBww28K9qMmuGzA7yL28nBREiwTGwDutW7uU6blWGVzY9MAIEY3d0LTcnFlc+u0A0Bu8XutBoBreZubsytgczc3Lcckm9u/5q1wr3Vzv7h767ysmxvM3ZcAwO9I941LCGjMNQqeD9dI65TuagEB9HhrOa2qh/y5aqfDcUblCcsCEqRgB7AGf0Lm2wEEU+hmSrpuHDdaC/ZoN8tqTAqHIJuN04W9N67x7Rf09wD78Pp7gA8Pnz69/Jzg/D3+fsD+9fLbA337Dw==);lineShape=1;" parent="1" vertex="1">
          <mxGeometry x="447.82292959600386" y="119.17147314970214" width="11.093794288204435" height="119.25418642726538" as="geometry" />
        </mxCell>
        <mxCell id="HVyeGtr5qmuluz8HAJte-139" value="" style="shape=stencil(lVrLchw3DPyavbJIgs+z4/yHqyxHW1Eklywn8d+7kS2OhuBMb3xb7RIaPBsNcC7y4dvjp68Pl+i/vb2+/Pnwz/Xz2+NFfrvEeH1+fHi9vuHTRT5e5MOXl9eHP15fvj9/vv399ZOe1E9/vfyt/+Hfm5x3satQ9D/GF97/98Xvt+NP1+fd8eBKm46L8/H8uLhepuMB39Tz89kVmc7H6Hw5P19dDrM63qV8fr67bNRvridibnAtTgKpDYcdCyTn8ySQq+tMoDg/B6AUF5hAHR4cAjU4YSHrrs1OrYnagCDXOWq1OGlEQFydja7VRSaQF4HiGokbAl1XG4QIdFdmLxW4gWSeBJfTLIBUJSqJOJlVQqSFPSHb1EjdVRI4KePnTQBKkmpAMsv8BEm0PBOK3dQbnknqAQrU2UvAC5YaSUY9bgiQXWQqZRfmikMNJuKlVCwkNRdI3FDAYcaMTOOMIKXZR8g8ok/2NvOEQlIOIy/fzzN9MhC3Gf0b0ye5NDu0j6Afn4c7TAAirU2kvQkAMK0HItCtABCnEUAqYSiwCQBfSKmV5MIcM5Q3Q2FgbpohD8WXSCGU5prpPH30uuNOFUYj29IoUhuqjDawCSTeC7M1GrVUiA2KuXMcUh3/4ligWS+hmDKzAT4xGMnpRQujb2wCYaTvsUB02fRbZCsxuontJCiQSNzakm2fqJBCIK9lW9CoEE+Sr5XlCeA1zEtLN9TWQyquNVfmTpJBMpjRfSiw85JnxMoPkN4HjsShg7QszKqS5Otx9I1derOO3lFAc69CM/JMAKhh+i2sIoHreXTXDQQqrTgINAMzW7s7Fiij4W8CQiPdq22fEih6Q6AbbAU8M5WarTg0XM9U6tYGJRlcwPAepX8scAvDxRjQ+BMMLiEOmSUfBAxUhkELjkm334BuB66syekjDGwAmFgyQcCUXL9ndTWjBqeHEChz5LRPcjeZeQwClWAlBGT2a0FNcaOjUQlAwt0ajFsLJaAqsPYsVkGLAHAm3xEwjK/es8EYLfGeDcatkTfqNXBxa0r/MzVQo4FH2iSfDuN36mFOb0AfI7prAYGSsYHsqEYxmHK/GhgA22DD+go0uVEusEJZifesNmCJCqKAv8AxarTzJ/yiwNIhoBJtKUsPUmBiXqq25OAltgPRPmpwJvCCyAOsdwKJCxh+D5XYyNGXGQVeolgpFjZ0CGGRjhY2MIQUwvqUk5m1TBos7ZT1mbVMocOr8koj0OkeR5nrDEzNjxo85cYzAdKZgg0Exa748AQG320hcbCBLU10gpifgEFKmNEy+NHerYzfR7u8wjDImKv6xCwR01grnE5yxoZIc0lnRZNLgUZap9FlY8fqoS6bItQDAwGdqA0IFAr3OrMvuNSJABSwDCuO/D3dO8yBA4djcdDNhtlepbEzP92dGHbSKXrrdsasKZPLxGjd/xh20kc6nm6YTGfPFFthosxuFQ5keRv0dvyHTaPrEg78hwVu3fJBIBABXSMmK8DQW/eUYm1ghCkt62JMQayAdNU6q6TrYpJLusw11yeVLlt0XWzGpkjvf3QhbQQ6rWlpy96h0MauS3XTp7ex/2xtb7YClS/udEI32Nqp0Xr1YDbYG105FIgL50OrZyWq8/Nc0503lPWCRlkgu6ARezGwY9fHEuHgEWwXErpduYIGsoWo3pTNOnXe5PQublYJ9INe3iU7QIA7NKZSGIuMfVdkLHG5lYoUZqrd0AIK2RyXR7HsJyBS0TLSZkOAxl16MCYyfbzlJe9XwmfnvT3PVtjeQp5aRJLO29vZOxfSfmwvtjLotFP5sTrbzhe61Fwm1iAUgdfzfpTd2XlD82gL8XboyRRLvYXSOG4gzo6btwfo1sPbBTG+oKbGX3nz4e5xfHh/yeLL9enp9o7G/nf7Uga+ur3QIR9/Ag==);lineShape=1;" parent="1" vertex="1">
          <mxGeometry x="48.871550525454495" y="120.86887250268569" width="404.4420728697298" height="8.826151493271595" as="geometry" />
        </mxCell>
        <mxCell id="HVyeGtr5qmuluz8HAJte-140" value="" style="shape=stencil(nVnbUhsxDP2avGps+apn2v4HM0DJlAID9Pb3lZtxWMnJAfoWFp21JR1dd5cunm8vH693HJ5fnh6+Xf/aX73c7tKnHfP+/vb6af+iv3bp8y5d3Dw8XX99evhxf3X4+/FySI5f3x9+jjf8PuAak5SB4vDn8CRQzv8efDnI3+3vrXzpRl5fEKB8ika+UuxQPrKR71QjkI8k9j4xYgUi9WYBmSrSQAHBAjoFfKVgVeZIXM4DqpBYnTkTgyvVRmJ1UKuKAEAmSRYg1IAbaqBqzZqYKjBrKf6EVOYrTgMCsVU6derASjl7ZmSmAJTW9zmq5kIZmDUlYrGADnVQbnardInQrKwXsI4rSr4KAMmHT2nE6IRI1cZzEaoMAMEngKo6JAhwJ9QEqaGAYh1X1Qz4BGclJTwjHeLMKUeAUGgAwJ58LcwYPOsHSw1NVA0pXShVC8hUQNbgRtUq3SoxOCFFKg6geQmYNVXqTgehDrik8dVdLo7zkqcB3QdQV7uhJJCoWCv1Ah1XOjVLvl6pgQBSbjpq9A7rQ9UTbLqXQBFcSf0arJUkzpA6DRBiG9OSqAHyqRFdxIkGEMh8XWZNPgLapONJgCgRrB/0SQE6DIB4AKKG9BMnNKCD1MnNDaAjgNaH5QRBSgdfRWMIFECB6EuMjiOQI7IvQQMA7Nq1pOVFa2DXHiiFxa5Aa2VfWcyE0nc75WqUyfqx29kAUN1VfpfoAQmdUCmzB6AOSwOiLn5AFUV4UmcLAFbSiPQhJ9Mz5wKCVwDit8xG+J1+2LB562pQIcYNFrs2lAbafN+WrijmCsUFIMiuGhBrVKOQ65P+747qciIiBMUc+4lABA5BGqRtzWVo5lA/rekVjU0fBWiDVBygUcaFlF3uO9rtXKl2g5aWOaS0NgM+SI/Z8Fy7kRwgzEuebWhsCClbUAjpCOESjaYeNKSMEcLmb2VXRA3+MsppNsyowWefLDXfNqB0rFTslRquizpAx6WxjIitSzNd4Yyiw6jVYLTGqJf2o+XovZECvkcczT1IexqdbkWh0wO4/5JW3xhPVN4NTGXS6oy8n2YSTNthEmY7wYH3q39t6I8REfhXo8YSaMygIAiK33+MIRf1tz6MxxQN+BCXC405HRgodl91so5nQAMd91yjl3EqYvFVR1MHam9TmVPIdl8CdMjBt7djIwO8ljMltyTCxTw3P7KOrRJKp+IbPQ3tCJQeOx93QoRdlQLEWumN3ZsC3JjxxnZPAb5dwPtDBVRXEuCCUuVdCcELUJWPzqiwt8jiewu8wB3vZyefAO80FmN08ozk2c/PR4VOy+cZJ6/ycAPQPIcC3HoU8QUWd4OVZzV9p3zx2RffZ+xu/cId6au1y02E2J4t+pYc+0traf0IH/7jg8Eb8vrj9evEzf7u7vBxY/t//zVDHx2+hKTPfwE=);lineShape=1;" parent="1" vertex="1">
          <mxGeometry x="40.003844034350436" y="121.87617844429292" width="9.770819815284199" height="256.93890902021155" as="geometry" />
        </mxCell>
        <mxCell id="HVyeGtr5qmuluz8HAJte-141" value="" style="shape=stencil(lVpJbhsxEHyNrg3uyznLPwLEiYU4duA42+9ThEBl2KSK8c2WWDNkd/VSTZ38m+/3H77dnZz5/vL89OXu1/njy/3Jvz05d368v3s+v+Cvk3938m8+PT3ffX5++vH48fL/tw9tZfvr69PP9oTfF5w3YnNDOfPn8okRf/ng/WX9w/nxsN5VSWVYbyU7ut77Yb2XStZjP2ZcH6UYst6LdcP6IjaQ9VlcHPdvpMTbgGClhBHgJVcCSJIUIEm2twHRSVAmrRLJmWORPPrMObHpNiBFcWkEBEkEkGGTOgJS/2QNwBvMCChSPQHg69FKnvuhwEoK4CjzSuzPuwJwaLKlUrSVfJJIDl2NOMXtIrEQgNPkDoZ6uoJq4xkCzECsVIOE0XEhiCfxAEAZHQf+Wv6Gqs6QpRJ6N4DaUqXkq1GMHVOAFc+sBMCYAxBSjK0LQJC42ZICpO77mwCVxmAlZtYZUCVvtjQCEjLxxkoK4Gk8LACR03sGZIkkRBeASqvPDMiWs3UG7KmhAKDG67aUxLzKcTlL4FYKY4giedIASj3kr4Da88gaADeNEVcM5xIq0HiGYnkAVSljyUI+Z3nJGjQC46mLF8McUXUZBaAwu86nRoFgZvIS1CGiJFaCsi4QhbcC8JMZ8z0eQesuurUxuZZKrYQkUccihypmyRuQGVUZrVYcOXRAAzaaFWXPsQ7L6RYRhmb53iNJqDcEcSQxtbKs3hBp2sAbYtWASviNLlGFHIIwE34Hr4O60ZEcOsTOzSug9EesAbWH8BWACCH5Ho6rUQMS31ItGsBqFqxkqgYwevupOwGgMnmSdWt8SCRrhNGpbPMKG7oV//MQVaeZjZVS58HRDUw/9JTyn36ekhLWO7IfO4kBACzZEPSOjs/KfeC6Jjxwm6mHphLDBCBJCZ18tROAeBlJqbjpDAyQe0Y5mpVYCfGpBE3lzU8DJA2ILLFmLcoa89iW4IcJwEQZ1LSZPM3a3DZu0PJ7E59et0vtFSTcwD6dWSvlBvitSyJOzaq0uKzXs34sdp16DFBWcl+5fmpLWmVgAT2FJ0oPqVWmN/HH2kbKremBciyehNimS9pjdSYOc1NxDp3oNxJqUPv3tOWxrncThw7GkhdYBK4CWJos2jRFkfo697pVCNN4hsIzJEqtMhI6SaYBkCzSGAWFTz/a2Eo1t5GqvSaZ1Ru4tIICdlNHz4iH5lZNP5pmIMyGAlaN4UaWpKDHnxvhA8msiudGWkEyq+jZiLdUtFDayEMAFFs3AnQB4BJ3AeCeXgC4TF8A+CBgBmxGDQsAH2YsAHxcsgDwgcwCwEc+M2AzVFoA+NhqAeCDsQYY6b0ZvS0Ae2qMaWYzPmyAsRHbDCgBUHlpMwIFQHU9myErqKbqw2aMC4BVY1xHewBwUzkuGE5v38l8HHYzP9guHg/jdKpjqm5XPZ/HxNgvYo5XAgzgdOfWLh1IiEISq9anXWswhRt6Z3EFJK5kptGECzSmvdWiG/0Q637QTio/tOslsiV8vbjAYrO6oBWo3UzetNyz3A1Re6HQ6y6nh2iRtvNGxxq/oTTTbR29hprGmPx+1WhRaOhky+rhhaFc8DpgDG20k7a74ZPtzpLDcvJ0kMTpq2emBMHCqk25mewEbRy2H1hHTdj4cWEer/dPZUtZ+Jbtvy6cy6acr7zK36/HH/9+N/Dp/PBw+dnB8Xv9OwN8dPmNgn/3Fw==);lineShape=1;" parent="1" vertex="1">
          <mxGeometry x="45.86793068112593" y="353.8761784442929" width="7.5054157183253665" height="305.8604542314504" as="geometry" />
        </mxCell>
        <mxCell id="HVyeGtr5qmuluz8HAJte-142" value="" style="shape=stencil(rVfZbhsxDPyafSV0URKf0/Q/AsSpjbpx4LjX35fbhbam1B27QN/24EgiORxSU3x43z+97abg3i/n0+fd98PzZT/FD1MIh9f97ny46NMUH6f48HI67z6dT19fn5f3t6fZcn76cvo2r/BjwXkKZQYF93P54Mi53x8+LubHw+uVeaGQO/Nats09U0rG3lOSbXv9HUtnLwzsK0Vn7CMJWD/mfn1dANgnJrbr+0gFHIgTibcAIfbbgBzagRsgaMwCyICj1LnsoQ+lDDEqLQp/BdRIbIOUIsW8DRDlTAcolIHTwuQtjZJAp6VSqRZQySOAkC/9Dox80N/BADjeAlQbVhYq+Ehinc44D96ttdgQhW9uYdmnuRRQzgoodgfx5AC/FRAtXSXjzAk5G1f9ktAOlfIAqJgbwWqMFCgy+ruLkgQqiK7K5k41mKRCALNNXIWyOgKyUMaAbPOQfTvkptPR0pXJJRxWS1delWczcdaHtGZmkxoDoKCwKnNs4ljbA3J6rcgVoNTAALGAnFqF3F2joa2xuYX1uvoW6U0nrPbVShXHtWtakmCXnsXSHmnW24jl2HLjKg7/C8FN4K/K2t/oQp3bfKvPJVvWKn4eSJN20tDJK0OGa6+O1ocisJPO04DdoWgXApnQeaN2wlGoAi1Lw0Sme0aQh3lkGmoooBmu9iOldtIIynoc+jhAaoxTpQJQTxmmVj2RAycahmK1R2Ooayp0ZY+o6ijbilZprdA+2RQkXAqOQmcfYMqG+U2TzoDXQ6XFdcf77HVMR3PMcB5fmvLf56/3rRfdF88M+86QLmUPjKb0Vyq0+j/ewG6a68Ofy97L4Xhc7orX//vLoX5aLpbx8Rc=);lineShape=1;" parent="1" vertex="1">
          <mxGeometry x="44.87617844429292" y="664.8679306811259" width="88.33984552298853" height="4.1970873786888205" as="geometry" />
        </mxCell>
        <mxCell id="HVyeGtr5qmuluz8HAJte-143" value="" style="shape=stencil(rVjLbhsxDPwaXwlJlETpnKb/ESBOYzSNAyd9/X2pOnJXlHfsAL3Za44lDoev3fDN6+Pdy3YT3OvbYf91+3N3//a44U+bEHbPj9vD7k0/bfh2wzcP+8P2y2H//fn++P3lrlm2T9/2P9o//DriHOXUQMH97g+c+/vg89H8afe8MGdK3pi/PzhrXimLMS9l3dxnYjfYe/Jp3b79HRt7jsA+U8jGPoL7cCAvxj4heyGpxj7ndfsY7P0DSQD2QnGkP1EA9Cc9fuSzEiP7RNHwk8gDOaRKbpRP8xickAPFOAJqf3IekEhGgJJcAEe5UB1jFjNFABANsiE1QqclWZVmRywAUEjGE9QrB5wuoYfpBCjkGAAS1TEO4mCkiwrBADwFIO3KvS4sALkCQKbiLaAAlqoKgS2gApYUkM0JgTLyoZKM0pDYL7kGqMbp0sWyCigDQEMZQOC8c5bXkklAzWtHjDlatUhir4sBqPpwIN6L0AlQYFNQQBrF1EKDr8TZAirIUf3ZF3slwVdyo5hUjx6JqfQLnACBEoicAgytpVBAPswAxixNVxLlDdNqnNZSJTjShlZhKNc5cJpyDgfOSEMB4UPi0ytV0ENneUvuWXtlAhUdIwDgXI6mSzTZMlB7G7uy0Gi9LdhrU8qqwFFpLpb65EIg4hiIBQ//CzH1iEYEIjZQrRaAqmXrc2wBaERsnXQqfgwiUU56XlQaB7JUW4gZuVtvBSfIachbVBoGTrecNHoNcN7Q6aKMQ5Y2RnSCzi95pDXjSqNzn4lDkt7uz0+WxWZpPC0Ta7Mrj9KIDOuxDsdpPEEnywgmGp2+zQnMfV5eHe9HLbGHkZ73B3Zw3pgXlAYA4ps3IAWguW9esRSAxul5h1NARi3C7oiMl8RpBVVSA9DqtOGqvYAguC6ChT2DIuZ6PVlsNGhsdTabg8DUcXY9CRH2N9dTfbGSoR19am5eYDuc7blvXNfdx7sL8TL+ZtgJJzq5t4jrouXhNjmJwcGM/+DblIvm+uHfi5uH3dPT8b3P8nf7okcfHV8S8e0f);lineShape=1;" parent="1" vertex="1">
          <mxGeometry x="446.8761784442929" y="656.8679306811259" width="173.76528719872886" height="7.128201261749155" as="geometry" />
        </mxCell>
        <mxCell id="HVyeGtr5qmuluz8HAJte-144" value="" style="shape=stencil(lVrLchw3DPyavbL4JnFWnP9wlaVoK4rkkuXY/nsD2eJq2NzpiW7yGj0kQQBsNHlKd98eP3+9P0X/7e315e/7H+cvb4+n9McpxvPz4/3r+U3/OqVPp3T38PJ6/9fry/fnL5d/f/1slvbXPy//2hd+XnDelWCg6H9dfpDuJP33y58X+6fz88Y+upIX+7JvX12Ki33dtxeX6mKf9+1DHMNvAJ0sIDTnBQGVrCAG1xYXZTKlqCMkBMSwD0jRZXBSc9IJoC271lwja8jRhY6AQqaUq8sFAYkAir8BCEIA2cW8AIhbSxv7ugF4MkL1wydbgCeA5BKMUF1nIxRXBQGNbFxtI7k2gEqitXnnOwIyyZ+mO72MEBkgO98Q4NmUiusA0F+IW1tzOSCgkJ1u3bWEgNgIQBa3ZlplenAhIKCSKfU4JrABsCn15LKfAcl1NqU8isoGkEnG9eISTCnSUtyvgbABZBLeXYsK1KXgKlvDunHeCfOSYDG2T7ARBGurroqVGf0eRKvuTCTRqoAKI3iaDwpI88a1Ok6MPQBkXNMpsRHayK8BqMJH0OI+73StrrDQaKOoXAHZBealhuW+XgvP7pTmjNPyTBOojYQcgNLpCWTROsdSUfLB1yBzeNuZxHfaz4su8Sg0wuzWLCMc9wBxHiG3I0Ca3aont2eFbInWnEcd2QXM0apkokcKADaTtdryEcoMSMoCySlqKTqvQQlR5iO0eR9SGUf9HkBmtypHE1ZmBA+UpISIjSDINZQ2Vj4CeClmSnQV0OaqoUy2M7dqbM5uDZx7K0Dm0AiVMjI9DaDch0TZjAICjBBGDu4BgFXyJah9mp3UaN0z+zmSisvEp7LQ4kyPK7XH0Ob2AUtSHA3Xnn2DPXaFfT+66sHek0xTzlLm+fgRhbftlXYFsGdpo0QQgvq64bftK7aHnu+vjE7t3Z61DGoPB6en5Vfta8f5sHiWQRrf7RP/PqSkNvhkv4K/ru8dwKqKDTA7NPCUF+zaAg9QwQQIlKPaBoTTBwJa8EgOIwJv23ckCYEyKbVvmDCMxat9QX8yemraAwYE1VNu2NOE1PkksM98vUtAMw5l6gzae1ZAdb8i2jN/CtKVQ/ulAAVu35cCxAqijPNn408SnzcTkkk7NsDs0HC04I72kX+/YYIx9csSEs54WoGs4mLCV14gPmbfMIDCiNi9E0awYDG6a0oDzocmZML564nNT2AQdBI/kQLyxHzECKAh4OKM2sf5+402fmof5gLXqSRgjAbi8+CECZgwSioL53CYAZUqjwqA9sGI8QGLm31kQcFHAPHHyD0fAbQc3QYmnBj1nrcheaoAd0HhJGngcWkGqKU1WbyjWdu4QkLVWiBo44TWIgVk6F0DVeINMMeSNbt80XC/oe00Ve1kHI/bhp1LZKghtNGc7kpkc3hnGRxmt9mFnibSM9k0NSgZ2UUuwoGQaNLMgSQwb5yJP3xKqEd5Lv70EZv/V8DqSDRr5vmwMKnKpXtz6yLzsaPNQgOa18TXIKO52kiVlXlJxnXGFcBjyRr2ead7Omqowa0m6DL+4sdt3VYy5lOC6m2f4DoInOh6BrMm0zJuUeLZlEyqhOuHRFm2+gTawKPbhLKs4eC+ImOfowCqMSeMVmVO7BTtEZm2XQMxL4WR8hsAXbTHUik8ltoi8ymAtdetYbemAHqVVZCd2w0hA2RUvEzCYHdfEfmYMl7WQTaPhEwBmV2LtkF2NgBG6WtBJiCN5oNdvDYEMBXCrnaX+2xGsOzyeHkmwKR7O9FWALvP9kMI3ABYPtgV+/IQgd3U5nWnOz1Q0hqtnTb/9hBhfX3BXoO0pfIJ1frtMUVBAAu+0Jb7bKGCjT0I6Qhg19OLYCBC17y+aBGaoOuLGaGPO5YXORtJYAcATOZwALzKFpo7iwYv/BJrEflNQuD26w6TsF4EErUvZMNu2bOQuzWfSP25rjfQ+a/+ZB3Aul+8+1zjgT/R+ugTsGN7/eP9vdnD+enp8lxt+//4Pk1/urxtS59+Aw==);lineShape=1;" parent="1" vertex="1">
          <mxGeometry x="615.8761784442929" y="449.3282596682802" width="220.6724776987694" height="211.80380965059385" as="geometry" />
        </mxCell>
        <mxCell id="HVyeGtr5qmuluz8HAJte-145" value="" style="shape=stencil(7VnLbhsxDPwaXwm9qMc5Tf8jQJzGaBoHbvr6+87WWceiNrP1pUWB3jYbjklR5Ayl3cSrz/c3T9tNcJ+fD/uP22+72+f7TXy3CWH3eL897J7xtInXm3h1tz9sPxz2Xx5vj38/3UyW09On/dfpF74fcU6cm0DB/Ti+qF5a+PXm/dH+YffY2Sff2Zci2ph9MfZ4E5n9i/fZPuvscdHeS22dvTZxJP4orfT2Xkp6275I7ONJUUol8QRx/YKjckC1KwhVYn4bgJC0DwlJyMRDzFJrB/AqleQoZdHcA/imqYpqv2uixD5HCb0DvFBi3yT1OfJzlpc3LYrvN8HRPShJQjH2SuIpWXw09pEVURWtxt6TeNCDydo7UhI1Sbbxv7T1sn2Rli+wb168XhBPS+JsPL4Qe5RLuiCfrUoKxl6ZfZs56vfqwbuBFlFwpKDhIAdjH9iCm0TbMJkUNBJa+oIDzwRWQW3mkBMAb0hENVqiBs8kQhLg/dbXKHiGNiUi7teQULas61EV/SZooLyVgxWn7Oi2QSuq2YY8B7kMqLNYnOTMzzu/DEASDQA7zTxk2zogg0AEVoferzq/WQYM5Nt4t+mp9k8AlUAACe1pPDTKd6lIbhaQCMGkk4CdATLJElTbqQVUJpr4vWENjausMxTgOKvGYFVtckGKKbSFvBay1WjhkCyACRtoyA0eWPVNgMEDYwGE5M2iKx3AsOg4AJRNeEirswBGfRjQzMwJAFs0asPMR5MHstMpWL2dFIxkCfVddFj0SgcNADrjIYChIRzroGqJqXFFGafIV5VcBqSF4qNrcFKH4mukvOPQD6s9Gme2PndBmCm6ofqwCEL4aIg65JUpBFouDiFFUhsB9e0twJNFXw4YCV8p4SNLll0d7SA0teHvSeUYC0Q7C0w6ympjGLEmpWYhqW3qaRZggCytZzJMGzRLzfao8uKDykVzug1SOAvUfg1oQiUeMG0EM/Up1SxErH1I05GanQ3TnMSzyZXN0jgceiO8gaYVg6g5bfDTKk6Tdglz1v7a6TMY+/+nzzP7P3D6tPv7b50+QQr2OoUNz6BaI1GnjnjraGhYJUsl006us2qf3Tc1doQ5Cd4JkOmtnzrbMtPFIemx5C0LTRrHuDrZWQTEyDxAAk3Xg70rG4TLPJ+dX11y3Q+DfDjmIdlCXbl8BaBedLuLkHyf1pXrYwB0kHF6RoKHfh8q1IBdp6Zhsgh0rgX7R2cBrB0W7ti5KvtiRRYANkP6NJ9XzgEkrR4EES4BVHt3sxLRuG18yVHCYM9y6u3AubJpzg5GK1Vx+WeRNXs8vH6Duds9PBw/4Zz/336zwavj9554/RM=);lineShape=1;" parent="1" vertex="1">
          <mxGeometry x="806.8679306811259" y="406.32606559319356" width="8.874381687243158" height="116.78477066437563" as="geometry" />
        </mxCell>
        <mxCell id="HVyeGtr5qmuluz8HAJte-146" value="" style="shape=stencil(7VnJbls5EPwaXQmym+s5k/mPAHFiIY4dOM4sfz9FKJTEpl49O7cBcrOlLpG9VzcP+u77/Ydvdwfx31+en77c/X38+HJ/0D8OIsfH+7vn4wv+Ouj7g7779PR89/n56cfjx9P/3z50yf7X16e/+i/8c8J551MHif/39EFLrp0++fMk/3B8nOX9LK+uZSYfwyx/PnFDvsy/X/P4hZvy4rTN8sFp2ZZPTuskX5ILdVu+uRwn+VxcbdvyAT+XJ0BqrnmiQHBtPiEFl4gGurggqlMhgDa+HgDFJQkgNhfKBJDiItEhFVdmq8KPmZyQcYE5LEJ0hYRFCcNL5zhyjRgJXm2zGzJ1c6mu6GyjESib8nPchRGIt+WzkznPuIEgn9XIR6ZvcbkYeVUiv8SEd0I8jKyKzcgHJh+dt/f35D7I8mrv49nvIy/rG+SbuGjt7yORjyO8rvQlZagV5+19hMnX9f7K7tNW/0ZWtpAe9vczsT+quKmjMg7c8pep08kJz5c0x0OlRS43V+ffDzIy6DYguGwAyHhi0RQXjf0o3berYrEnSHRCdIhhlLQzoLpAdNBik0YDzXqNw+hnAD4hbla1dVczjQsVq7TWEVlbAJ0DFWZgDRwAMYBIS0UHzFaKebTQTYCJVc+tJK7NJySQHFLdYVZTLdKOp9P4+tyeZBSE24BseQt4SGRKF0tcCszAWAL8OocGelAlOkRvWzKaRCBW6oEw9+SaBtG4DRDLdOq5TW8BZFa6hdGntwA6exqFPzOlxfoBlV9Y1VgIKkpzZIDgarYAlqLwgwYLYEojNNoCaCxF42Cw1wAWrSjGht553p9RGa1dG50r0G9StIBKggmELi5KFJJB6ICGBQOQiNadya+uZkqLq4vSrDCh4RiWCoAnrgZvN9W47ZRv75JfALyj1PAmQB7z5WuvBKsvZmVK9zqT3mLWG1WAOw6AsJzAQgM52pYTWPDpMl/shLemxaw8gdDkysy4d3MURlmUYJ7DzBVlAbBhHp1/AbBShgyKS46yYtlzdHU1qzO/AjAJwTsEANXowHsQAMUAwmDLWwBTK3sfZaUvLI030dYemg0mcAE2T4Zqc7SzDRLfodhqXIQmdUjWD50xEbOGaEeszsmY0mpn4s76mA4yKNsZEGnGBXh61mGHuXbA7IfOjXcAsx922DcA1bDvQGsllDY53ZkmyYdupdmsfUYhVQN+yOaEyP2QLWNSvr3BZNjmE8BXPCMby/pG+JXQRmW+kvA9aWffs+Og1U9Db42vZiMGQ7OVRspjSXgZ2SM5IOvYSFxWAoFEEkZ8M4vK4B6/V2iH3yu0/9sK7Yo+XXbCbPOBA8wArXSkb9m+pWRKLMAKzAogcI+hyRumjZ5YWYpVu3/qNiKFFDlvGlp/WWDPNc2Onsrfa9Ag81zmIt/kg8vbTWag7QbdyJsu3vj+ydtABRNpxKy9exhylGgqIHDasophSstC/vee2XRh5rw/9Vg2vJk/FF4eXM4A/hLZr2Q2AJkWVCi9AoTRYG/5GgDKqEsdFegKwIYFkNSaLCCxIqO2KXcAO2HdDnFAGYPsK2+Uxiz+SpXFhuqeTZf9GXeavyHPouIXHsB35PHH5bX90/Hh4fRYf/29fZ3HR6eXfX3/Hw==);lineShape=1;" parent="1" vertex="1">
          <mxGeometry x="816.8549757554781" y="227.40959725911569" width="9.774695959434666" height="185.0830329153349" as="geometry" />
        </mxCell>
        <mxCell id="HVyeGtr5qmuluz8HAJte-209" value="" style="shape=stencil(7VjLbhsxDPwaXwlJ1POctv8RIE5jNI0DJ339fbk15Fgj7xi59ZDbes1Z8TkktdGbl4fb5+0muJfXw/7b9tfu7vVho582IeyeHraH3as9bfTzRm/u94ft18P+x9Pd8ffz7SK5PH3f/1y+8PuIS1LbAgruz/FFEM3/Xnw5ij/uns7EvUpxg7yXUNflQ5SUB3knvq3Lq5eqIO8ckW+ifpDX/uKifEzSRv2bRPL9ZOaN+vsqQQkgihsNCI1qlEJXoANioCbHLHU0OSUaM63SwgDItXv5MsB8XgZA9ZIjibKXOBrdPLXB0giMbkU8OSFLGU1oTRozoWflmXwlPgpSRp96xxMviNd3ATwWwhWNzIEJ5ROpHCfZo3wg+rjJQ7X7eEUecsLkPan8kzfOIpypPvj9Io7UjekP8lliof4BfYwKiP7m/4jyTH+Lb0J5Jf5MkiBeTpTobyUDzFWtKFhRRlEAqGRygmbxU9knYkKsksecruZlAshOWsMTPCnjEiSMXqpBMonam8YnQOx0eRlgVQhG137mRUCb2LQZmZE4WB3GioDGARVSybooS1U3FxtPvoU9IfuyOMJGC/lUBLDsM4ADviu9Ytf8OreEzAJRMPvsDWMw0xgjVyilGgA5xmxgJyQpEymxkjNABEDqJbIKmCIdWByMZ+CE2JlnDdDArSqVZJ+ZmCIC2Ey1OHECsOZvgDZVkOc1ClOqAa7UA4yRBiiJAspUo8oBaEPqHW8VkBFQuQ1lqmlG38uAADaUa27NigB6QplopnQl1wB+qunMeClP5FpoG303wNqBgtF8Pq/TpFH5uF1suB7jYJ29khOsjcKSVBNNPmvUkHzWFRsJnI0CreAJlXjJxpkc0GhHVPIJbWh8FLD2MDdFkkofG8DHBvC/bwA6Ezxpg953d5wPkkyhilxX+eXFsmaPJpRGTdBpHMmZ9s2oeD2SlM6RRl2wxUQvSqogtj5cn26EHB3oY8EJyTIlMkDo89Cp8gNde7TgdFHoAWoNYVyTYg/kGvm6APKJhNlHzLxEY5CRuHIfTVbEoe4zLTNLIfw6Y8WIY1GmW8LJE2/igeVnZ8wzz7DrStxnE91xFMehSAlX0dTYp6MV3f1YvNrHtRXxiOL863VUxhomjaomEE/snvV919BXxe3h7cb7fvf4eLwwP/8fb8jt1fF2XT//BQ==);lineShape=1;" parent="1" vertex="1">
          <mxGeometry x="637.8812296210301" y="521.6754876246252" width="50.1000834390818" height="49.88449184862793" as="geometry" />
        </mxCell>
        <mxCell id="HVyeGtr5qmuluz8HAJte-212" value="" style="shape=stencil(fZbLUsMwDEW/JluNbdmWvObxH52h0AylZUp5/T0yIW5lEu0SJyeypHsVD3jzttu8bofg3s6n4/P2c3w47wa8HUIYD7vtaTzL1YB3A948Hk/bp9Px/fAw3b9u6pv16uX4Ub/wNXHMgKFSwX1PK+gh5N+V+wnYj4croCQoUQHRA1tAAcoKSBEwmkD0CsgEWAwgQtEAFchpHeAMpHPgAhzWAUo9UDKwESEjOFaAdw6cWyeS64nCc6UXAWRwRQMIxOtAkFbrCJzAGZ0LHoruHEkEIwdfIHWdc8DWlkRrpMVEZtKBwGkAMwSjEfIYnQLqJ4xW1w3oKtVNGoCk2KlPyhCNstYihj5CMSLUNnVbklYaSVchaGlUsZABcG/qKkcjhys1t1ajHaIZpompmWo562bJJtdsAhfTN0O0wbDcOYKoc7iMnmWPyuDKPUBGmepo7Dwq4xMNuYrWNFAHtLElATp9Xyb6muWwiyBqMbbkA7C2HGUoxhQQQ6JWBs8rywF6YSQ2DfdPeWJZy28O6N/ISFbTwOv9S0be+sHNI675P5tDzxPkbtKb9akDq3Pz/IFlSRAkbWY3LyznyxBT9775pyrgdUHDPJ/+3peLy3njcdzvp+PK9fP+fCJL09kG734A);lineShape=1;" parent="1" vertex="1">
          <mxGeometry x="641.2163545548228" y="771.2186487597039" width="3.943354247905745" height="3.9410987922151435" as="geometry" />
        </mxCell>
        <mxCell id="HVyeGtr5qmuluz8HAJte-215" value="" style="shape=stencil(lVvZkhRHDPyafa2ou0rPGP8HESxmwxgIwNffO8tL9U6nZnLgbQ+puw4pJaXUD+XV1/dvPj8+5Pj125dPvz/+/fT22/uH8stDzk8f3z9+efqGnx7K64fy6t2nL4+/ffn058e3z79/frMk109/fPprPeGfZz2boY6lleO/z39pYeb///Drs/yHp4+X8j1YIvnRhHwNJZN8i0I+hd5JPtpt+WkhlpN8DV2sf/bQMsknsf5ZQzyfTwkzCfnE51lCE88fOP9E8lmsf7SQzuvPwcT5jBJKJ/k5hXzax/ciP8TzuwWLLC/ut8+QK8l/v/Dr8j30xPJVyJdQeb/KPnv08ibW00Yok+6riP22Gmp5+HH7ac7+4UDi/KuFwv743SGuy2P97O9dPR//Pu+3hyrOv5Ywzus5Duy6vPMXOIRYT5lh2knewhxCfuzHbfkUQxcXViq/IKVg6g0wsLNFJ7iwMKESt4ccCjAScUbYYj6fUWrbaq8rjDBIYYQorA6XOs9Wl2Yowm1gNXY26xw3MF1XqE4hhywMFX5CgQaPaGoPh+MeCl26PhQSLWlKbMxph67Dl6MMljgTsqVlLFqBo0fV9xB39DoUuowfaw9nfIeHlDvHejZvuGAU/rACcGEFeUo9JIJUC02ZBhZAGBk3qt1yoHl+A2AnKxDI+9QPBViruIdS2IGgYOJYS+O4AORs4pRwTelsGhWZi0BiHGKsrDBVaIjBKDXSMIMtTtpDl8kaFjCcwlBv6NsQDoU74QSwVVlB5UcNDnT2aTyii5tGgCa4RwhWptFcBgaFKS6uOajEIqu4OOQk83xxWKS6uJX0nPfQsgSBnncIPBSKdKDedgg8FKrMSzpC1tlFW9vwfD1RjXysrctTQiaczmC8zk3sYdRtm4fC3MnodYXuciuTIWsMxtZ+7Oq6Ap53XlIHkAl/QDmSz7aEq1TJycxsfMioi8AlFEi8pCrvARUYoTeMpQr0noODIooCVUPOyS4K61IJ1nRFDMoUleWuKvVsSzDHqBQymzcKrSxMw8pGoUNBBxQoEPLBfpW1YkmV3tAlkGHTdNPLfoVpWHS1gO1q99Y9jDOQzbjN8dZNt/MbYL8qisKWMikU/YbuFNq231v+YGfTwCMUtk5XMS2DV5REZp/GMaiaGIeYz8a3DF7BzGTSA3ev9jAa72EZ/B0wPu/Bqqwf4F8ExtZCUQFlMpFhXabSC1TOp2RDuihwjlzUdK4B6K1nmLG5c+Xrgd04IzMLSbMTfKxHxLiVa2SnMARUtsR8AxRMHOvKyKZT+CnGIUWAq8D76o3JduF1K9Odze1apffTXbXJDAtVWKusEMW5os4jHnDZhiJC8k61LxRUwoQiiD1oSNtYzA0da5fHuqgn53JZOHV2aSWcWrG3qF6ppjFNdyXjQs40i5DGzmsPhbKN5bpCc8ZXdj17XaEwGgMrVbmbHO0ANFYFhL/oJLF1MqWMwN0Ux8oJHORVMVC5FlhxXpXrXJJBXsW3xKU05BXnHrlshbxKol2lgXirOMfI0RPyKqs/0O0iAVCFieN8VlYj90v2g4xEnX/aXOGFvErb0r6dC3llD5lbQpBP0h5ssrwqSQpjL+SV/ZQdwC7OU2F1ZSYG8gq1vPyUCOHXM3d69YP71VmCP0/T/LO7L5Npi7cHk5S7tzeTPQ9vz7YDzw/6y5T4ds0fVcbi/X3ICtjjSZd1lMerrmOYw0Nd2Hm87Xfs5+fkO7PgkFf4Obl7gfOUETVu871QGCpgpCsepuobxGwuTE2Sr6tB42xUYTryDmKnLEqnRGbDiUrSt5aY9IOCKZguHLcXZaBwuu1s7yIVkq2C4bKzovsjxt3RNV+g8vDEWAcF2c2rXO8jw5S8fHcFUdNvcBS1ddm9QLXCS+q6Z5vdxXV507W6DHNIkqN2JjmgkNQbzBEEOsa2zD699qBYc8c4Q0GBgGfNTRPIPfLowrppXe+XyAqKuOxu2MSqZKd6YyBbNIpa0nDt8yJplMVr0illmSyPzCQ4gEz5w6LZHVSqunR0ZmtXPqXeMPfIxWXAVQRyZJ+eTU7BzOxSAOCIUigbqy94SEU2vTzvUNBjCVgx3QN2parGleQTH2ySBF9ZzvkeFm+oeXmKD7hKOaw1mf8aTULl4jWJZi+Sh5yuVob9ZvUGRyuOpDfduVXQTb+hcYe+HxHjlmlQfdGHZDpnZo/rXb8hsbV2Tb4uy6FNV/mGMTjHXYNcwjRWr4J6PDk0DTN0cT3do6i5TxVlBwaGQM1qKKiMbGEr9TxNJljd5UttyulFnDrNxDQ9CIRD5J5nl3Haz8+tvq3YAxZALto0VK7n0aaLjED4d6c2rG5GNDcItP6iUofIbaeWJONUJxPOeITKZupgqISCcqDadsm8Farp0YriRis0a1ATp3DYlfK4YlzHQUEZXxmbhD8UhoxApbm5nmOQ7bpC4by16uZcyVxl4aCVLZXIcF+1P6xhpvNNr7kexcZ0pmtxlWomJtcrw0xNKWRG73X3qlKMjK2oWWQBbozeRXckUR6TTxeTHGPq7KKwLmUaqbtB3S4HFKFAWeXq4QggS86ni57FhgK/Ielux+QUDgWzquPWPdAIZJf3sLg0N5WpatGcmCxadKJ6g2OXFr+m2CvX/cO5qTjt+xG4SklTNLalVO91zih1SHqqf1Fe54tLOgIVN1qRkuRAgXyRKkXJ4QJaqeN5DO7fwm4icYee4zaXjskBGkAWPb/Ktly98t2GMoqXycUXeTnKONmIsp7Ri8w2JN1nd1Mhel4IaRqFwrgR81belirJywnAwlzGgQQ3M89G8up+e+emge75r5oos7xKziPfr0YVJPOEvXq+fRyf+bzIq/i0Clknr8qXwVH/zqTg5IIq6iG7xOP2UTMebso7yTphDqZUkp7hM57hyxLfzDWpsuzxWOWBvCLtx9z5F5mPr+kNfr4aGDHjNLDIHg/kaTijyB6nHS24F3n1HdKaoGG8lQOOxqOsVX4XdTHT86KgktL1AqomZBPJju+CjgpKRtR1QDQeLLNqMzdDfW/9ieVVq8Mcadn0hf3sh5x35fHDy1ej754+fHj+6PTy//yVKf70/IVqef0f);lineShape=1;" parent="1" vertex="1">
          <mxGeometry x="106.41039767058669" y="748.034531388995" width="124.36412619104567" height="150.13467238075714" as="geometry" />
        </mxCell>
        <mxCell id="HVyeGtr5qmuluz8HAJte-216" value="" style="shape=stencil(lZzZkt7GDYWfZm5ZvS/XjvMerrIcqaJYLlnZ3j7oTJFDHgw/1txpAUh2N5aDA/T/kn/68/Mvf3x6SeHPH9+//f3Tv7/8+uPzS/7LS0pffv/86fuXH/anl/zzS/7pt2/fP/3t+7d//v7r69//+GVJrj/949u/1hP+86pXtzCXUgr/ff2HPrYc/v8vf32V//rl94t8zFf5uaVK8uu/TvIjbDPi89tVPm0t3cuXbdarfNkiPL9sNVzl61ZBPm9Dnt+2Me/l05ank8/0PWWo/MT9H/0q37cK+9+3dD2vMbYA+zm2PlS+w/7EsEVZsBlEB4W4jesJzLCFAgp5y0kVegOFslvMoRC3PEChbrOpwoRNin3/70PBrBROIc6tX49tZtylFLcUVKHDLpnhtXJVKFuCgzPLS1MVGuySmd6UN5izgqma7ZWkChkOzoxvdlWosOhshjCdAqwhp/15ZwU4h2zRxH8SrCG3LQRVoG3NfWtRFSgC5LnFq4vOtkUKkWF/3lkB1lDSHlJOConeULbcVYE8rrTdck4KFMaK7dJUBYpLZWogNoUBa6hxC25bB2WqtHW3Sx1SQz0c8qRQSKE6n24YKmvX7Lk8jt4wXDAu+6reVWhhD1snhQBvaNHFVot8YHwtuzck9LhmKd2F+w7G16rLD4xJmqVkSaIT80MbLquPHUe8rzB32zyl9QmwocetCI5p+Ek97zDtBHxQwW2rKSQ46d40ZRkUKxDIet89+FDIGIwNagY5h4RgzLCmhHtTiLCtI+5J9lCIuGh7npi3vbOAi9qe5Ktp2KpQwaz1+gZD6OQPC3DKGzp6nJmaKtSt0y6N3V0OBTMWUpiKos0cCxifOaQqJMxA5vKCi81DKC5ZUBGg2w2GgvFZ2JKkaF5O+WEFxusntY7gxBSqKFgWpTdUzaIWCwk6LChyPTiLtpW2tbk1pB0Q3SpcXdQyBtU/tujcVIHQjJ2DIDJLYhNi63QZyNJkA49b5cU18lULbeSic6tXrGGpfsJJmwOJLdXMgaxrbK0Jc9wK7rJLcf+Xu7jUhioQSLRYLYVfDVjSWCSt1zcYRsPYGhToloF4qQ9NKAYbKZBZYIzXkzZgSrtkgbF0VaAwY3FuyCeZ04ItWZwT6FAKuqiFLYneJSPQNayRoyqQT1vYkgxkBUIhNNMUwpWIyNjCVm+qQKWlhS2JfFbkFAKJUcsBK6MoCNSp6D4PdFELKpIUTYFO2oKKUFFWChL8qY57s2Jz0iflLVdVIBc1l2/Xg8sVyzJz+SBvKNuARZsHp6EKdNLmX4IEcsYgsPxLziHt8fx9haMeORQiryFqFjWFQGuwQCZrCEiamuUIuk/Mstq5SspKY8sQ+excwxXoLqYQttV2XaJ3avxJR4w4FCqGyuywd8pMhEStdhcJRm8IGmZSRLLbFIR1SAHZU1OQejqOHRvcrUGgQ+w7l3LLYF3PIbad4r07OGHhYsXEbg4pOS5mBFhmSwKlY0JkbHFOgkDk/GCxWsJMDDsZeedxJasCElLm8kJT8As8S8FRqSg0OWrZu7AnKx5YOxTHSHduO0ytjDsahQV6wZON02dSq2s7vXaXqqR+q0jvWS7MReQbfX9zeJi/f2wtqzzspxUtOXxEPmpD4EE+K23A39+qFm4P8k3tv+449I7hSvo9yOq5BkjdDfyO33LnG8AeDDZLH7BiSvbsVkEo1Ztirwf5rpz7g/xUMPhQQUbN34XLO9ceKntVfFcOamWEOWAcjNFJnkrmvpX4Efmh58vyVsNX9V9iqFaHUHgLBI32fIlv3OVZFIHGT9z/ofZZsahbXV2pArcG9r/kBfQiEnpriB5ICAltk5cEnBEtzoMlepOnfGrywgJlLFTW/rvnP1Ccuj9IHA99PkNRk0+CLPca4VZeEBDWiiavAAjj5xjKU4QnRlf85SBr7uRlPwPGZzvfps9H+aj7c8wl3MkLZg3YaZ5JS7iIhYDJZ91/5H7Tx+zB5LV+Q3ubvmZFe54uv7C/rHgoZMaTP3b3fPKXuXMpp3jC+UI4K45XJi9UScL6efnj9XsizqT450e0T//9gfPLB+WXPWt8w3ibNH8VpvWz4uGG8WHJS/9mB6R33yP44ehk33L6Wt9RPbLiW1J5xjPCwg7u6jU3l8X5qLhOJjbQRlb/fZB3+XrsG3yHV6WeGtzrPZj7N3kaTOjHlN1JHs6rV423D/JZCbOBtMtqP+p6UT4oHh44+mT1UVB7pnzUupI044MzDwPrC6s3p5MnBj+pvz/IB6XXWb5OHat6kO9K6vJ6q9Uv7vnElBftfk3EJzUpvp3YQqlRz3di/VUPXvJEeNFc6yLirwYXI2bU0tSi1yQnhJRSFdLEhO3s4jigyE3O1Ya6HnLkKsNPwpkCUf1r1k4WXbCjmIc7B+6gZNffiG2nSu7YVk8xUypbfK6cw2TG2M0kL3DMjLGMYRq6eWCMFW1l5qSbpuNUED/5qcoHwmmdtADGhhWTtyWDLNgFSntFflKgGFOKYt4V5InUrTpFZlGDeselK6pbjSmaDJ0a9vLDOP8RhQ6FiI1aC5QCrHPCk65uQt8UcIK+atR4623d5RJtoxZM5tXNIayuKHXYg0PjFeGapVvtu3IXyPK5trM7FrCtuoLrcKk7Blkq9jxwAL15CmrwLk33homk+SKRhTQMjGr9WEHEYaT+3uAC1ZmGa/WTuHBfRLK8ISMz011nZ01nUykS9aRXCx0WvbjkrAqDiqmiQ2ELTPDMo6SsNf9Nn9TcLo2dUL+t30VhIjixglDnozhULgZFOiqHOd5SQNLySAjhVs18DTMWC6lpti54iAK35Gd9bxKOFLrSZE+zdkPr+MqNzjk1i1ppgFdvQtDSoXHXf0696NIeyLWpYL0VjMbTVTONb6GtbZIpSR73toOYV3O1cIuEX9eGW5vMiDbtKK1JNPqk6lrOiYeAi446WHwmp14jujIqXdj6kputrnj9YdHGV4dYRAXNw7oJkj54vNVZaz+oqLvAJJ3ewaMOo7vSOyKXMRz4HgkdyMK3RIHx0D1xU5IrZRBdm1x5X/laY3T8QcWw0adWr7YNOIfZNSuuHidNejalPC0p0Sjc6lnLonmIpHsScCJaN8CkUyoBJ3m6vw4UkYdtrq+2BvGJGHPWal5OzLYFRgmVK+3x/SGhbh+u+LWsXOnkscqF1psq0O2eFjQrWnhuREe59t18uMbd3QW8iQ60Bm6SKmDVlHfrPylQy9vgkVC+p9R9V1wm903E8hXXJZkPY15N27pzInI1rC2LmBMHANfstVsDFchr+tR9EoXvNX3qDgJHDIe7Hzd5TLIr6bWMiegcN51k5oqkV3afNHA+I0fFP5PvsefwzicR6Hsj6M8K8Emp7VTjSYF6Pm+M1UmBsMPqiYppdF5DdD7a8ZpVnO7ie0PAtMZf3Z1XsqXoA1PFTuCaZnU3tKl1HrNLcjwrE73HZeThps4qzcTDU8q3vpWC72ddJaVXd59CsfvxgYhX3dyVrBnYUNXX1n0/MDt3F2NNA4DVBW1VrN+kAJNwEHohMZRv7jc+KO9Enf0ytEqkT9R60vAu8VbJXdXlxklSL374jZWkSe3hN1xc7//hN2Ic0W3yhFOTOuS6GYy/seIvuOKPOOiNEJOn5rObtV0XaPH5zctTvlR/eZAvOmv78D1uVuBhvUXjw8N+ut/ceTgvl8ce7OHjv0n0JG9/ePsBpN++fP36+vtJ5//XH0yyf3r9saX88/8A);lineShape=1;" parent="1" vertex="1">
          <mxGeometry x="102.6762954707765" y="756.3588066092257" width="139.08110131230274" height="159.18862598263445" as="geometry" />
        </mxCell>
        <mxCell id="HVyeGtr5qmuluz8HAJte-217" value="" style="shape=stencil(7Z3JkjS3kYSfhteyxA6cNTPvITNRIk0akUZSs7z9IIZWXdXu2R/Imw66kf0DlZlYYvXw+Kb84efv/vjjt9/k6+dffvrhr9/+9/d/+uW7b8q/fZPz93//7tufvv9l/9c35d+/KX/48w8/ffuXn374x9//9Ov///jHGBn/9Z8//Ff8wv/8Om+lx8gxK1//++tf0vVI6///8h+/Tvjb939/n/Dxz88J67Ha1+PneKwu49sF49tjtk/j52N2GF8ea8j4mmF8ev7cc/x4DHj/sR55yPg0YHx/9M/j+2NWGF8efcr4XmB8euQu42v6enzfy9FkfIL17O1RP+9veyzYr54fY8j4Ce/fr0dpv2N8G7pfezysf5uP9nk9M67/fp+ZZHyC89DL48oyPtP49ihLxtcJ48ejVxk/4DwPu4/7BWF/R9bzVh6Vxu/3HzJ+0fm0+14fDcbP67l8r/3NsL9zL/fn9enPDbkfX5/b/7q/GdZ/9kf7/P4T93eux3WpfCP5mR7p8/pvgbvgg9fe/88vlPKjwI4t2+HUHh1ERIj0z1uQ+mOQjJ7PI/Y2gYTiXtR06SvRLdi7phPqY9AxSo8m31BwWUOuV51QacKW+0UnZFjWUVUS7Y3Dq5MeK+sElKXLNm4fFjh8fesWnwAf3atKo9MT9tks9g2wSm091+R9Aly4rRCWvVKnCVuByT4kVGmtqIraExrokJYe9dIJGVapLlul9Lhgp+sWWjKBpUZtj2vZE+Cj68cnvuQeyYA9fn5+QMfrU8vz/r7kfKHf3yLj8/tU1At1y6TPm1ZQwrTrKbFeeraTXbEPturli85EfaqZjw3ADWvd5BHa1XGqdX0Oh3pUWX86ovtMd7UDSW/uI730POD48Xzdl16mW7wP9FK/gPZ3n7elfgpeyax21L5hZFiU9bRD368kSLoynob925UknVaa6bT8NObvJ2xfQvRyeQqa+wnpKczf1OyCj96LOE3zF5owVKykgXJlHzPxV9LCi7bP/SUG/PV0Ye4nZF2l/Rf8hvQ0nz4m1Kd0vZ9wqY8WRirsQ5oqHPe6VZow1ALb16HB0Qh7S8Tdei7D/YTyaJ+NkX1YyHEMHfn5Qhf2XPZ1Ea25zy+5dks1TmGVsJVs0vGkxqd5RhWXaD739H08fPB4BibextMmdxUwhY9dt98v+D77TE4dT65js/Xf4ohUoEZyQtyQStZITpw4ct3VJioX7m9X+VtYwjdb/4wmS1cHoXzEOr56H4kMTJRD/bl6b1KFzv94vu2b2Mp4/jVSkdmVfTQRKRfub1igojwmS4j8DE28KQ+Uo/Upot78zEKv1J8u3JsCpG/eLyDhovAC6ZXW00x5U+IZbtnWNs0s98IKUL3A6+k930/oqpO3HwmGSxwMNb0KrNE+9mL6DnQy97VqFmIly2v7NhpibTR+qGBpGFKul4ZwG8qhbWrWzxe/4j2u5pByCG67NlVDiBRS265NVVcl0fj9cxoCvUhOV1UEh/FmAx7GL7NV8Mb0pFcso97uxUPEi/Rqe2YI3sbT74+b8aSX1tNveJ0Hur9jq1EdP2E9R9EcD8u40VTsNo5bNY1QTkxJjA8z6U1gkZQeWS9AqBL6gutmAmY9ptpOKaFq6t3c+4yuVq+qjdPhFGULFJdnaPp+wha78g0VP7pNlaOJY/XtI2Twpl7ppLaiJnL4IWQyXupE7AmTwkTTorINPdiIK8kq9edC30+oGuDfE0i81GyvNDCltPWNWi0D92ErtClPmKjBt8aUJMueQNGWki1QvJ5u9peBgaUTKEsR1mnXCRRZ3kpe3Lm0UI1vqTV8AocedOO2j0wTXJAttu22AX7pPlB0PJJtNoFs/mxhvn2WKK6ZTTmEjQ1HI5SNZYvoTod9KvvQUF+FevJsEe/DMrlEfsLeaUnybcmHR6PbFa0cxjKbLWQr3bjLblzlO53tG8ozVful2WwaCJ8wNKQeWhQ+ukwLJ174hC355BvWU4d9JVolRDPRNdqyWyyrgSHaamG1gSe1LrVsx1MMfhlU1/H0PhG0XzqeFHTXvNJh/FRPYTDY43rqpd+2Pv3GsyORvY2kpvuF47ta8ofx8+b9Cfxj4JCBCdltqC77XrKEi3ouA8XQsLQ4r39Y2npf0LNomgSZJ3CIRMYnejqjqTpjMNjoz9D/u0ABAXE7AeFd9kYRbfldnxzZZPaONLGUUZv5pqUPCMhvPBXhWrBDqDGpA2goaTI2fBEKbU5bJYYN9W6pKw5WblEh0es9gYy1nswyqix8111yjFK4QwOoh1dqfvgYfLbluxhr66lQvpLvdj9xUS/NQ7H86qaPOdLXs77/YXzRpDvL614UTDIx0rQPUbWkMh+6qZEOcjZ7U7NxYWoywIJybdiAup1A8s7fKOQdI4A0zZ04mmVrGvKOFsk27YQxslMR4ouPqfo4hTNpHkrhCXH1/ZXoJldN/qTCyahs4qugKmyXqZGCAac6b3IhBJ2t242TVWpPe+w3BsoDPUATkvnLA9HpZT0j72/+Mmm2MjTWv114CpaXpiC9fKHPUor6IDkhbrBktWEO8ftA4AsYgNV5tiRW5khhJBol4t8w1ZoNfpYHJ7FMCIRopTBE1o0LD5pCKUnTZLHQlOpb6pxG/h2+IRnUvnSU3mnoR0eqil9JNq5MvHH7bM7PFyhcblqlS5Pq+9LS8U5TJd92ugkIGCnXrBPoLG0pJJHCWlHch/qQb2CE6NZo4gbHKlHa2DKEex9ILqVLHdU4GvRKl3rO+/BhXY7mYAp7GR+Rzbfrk/H3s93PTBhxXaEDHnBa2UPFvPrU4G7m7MhU+GBmMLYhdAMkxuAkUQsJTcNAP5laIPkVKa+mEwgNmCxNeJqQNc9/eqWsGNTTR5sBcFjVPUE1FW9bqqY8+VxElFU2jg/ezYSO2Zqbb5hoV72s2be7SQbx3geF3hX0ewKCIk9orAutNKFMNGLCDTGRSgZxIOY/H76a0Ve9mVAxcnMzofPhy5oUfoHMv9o4wZRvI/ykqQSUfdC2STeuVYwATD177cNjvPd8FGMW46kw4W48fIAFhPf7k8d9qVgNsAr8/qVCsnHA8NKcSB141UxqbyeIMn7JTJHCmG9V4/sWUIS36c2vLIGHmqhRxwG/vxQz+ar7+OqAitd5mmCY9cMbRTHb1CWi4rNtZQvOuDIqPl+ahahcGha7LN/QEAET29x0AoUW9z7rKnU0aaOaQmTX4FdamhqJeAB5zulGOpLHtnWSxKqiZgTOarHD3c4VFjKBj0aEC0RccNimJg21t0NZUlZcxBaQlI+vVX2R1jGYX7sWqEcJNMV5PnJGHxMWYp0iyykl6hem2SLNKTXnHAIMrSdF7R9l8V+FzyQ2H3FKjpxn+YaOQsBD7X1i+Kw1y+UlhjmaMbwnYKmklRkOFpV16bKOhNbCTf47YVRyiy0BqY0LE0PVbNsX+vHLG9d1AtY0mWf4yvreT7Di5M5Zjy3IxAjYE2int/kuNej78JEnFt6tXKCGh89rG3rjJ1Qt79kXiML6L9qCtwkUMHBT7BW3/yqSpJX9GesnAnckr5ROrpvKVj58UVks4p6rYpPF2xoXci3TJ6eajmb2PCYm9OS1wrLeoO+ZMaQqYQ5GwNA9DpcKw1QCRY66UXj/bX9KuioeQFtcFaJaD5V0XeFs8clk4RoqastlUm6RH/h8N9vF+Lei0fYwlBjpKKQeobJJvkyVwu3Dk/tK5EnwfB88lMKG8W4VI9WlqoJuzAyz5bwU1uy7SUejWPY8LCsCI19qEvcD/i1pJciWYKgNsymGioieannGzmQg1YAYW7lh9ctUq+Sgb1/3620C+cRxv6TeZ2EsvBpn054w6BuWmWIXAwuX+tHjwMdgxajbssJc6dJA5sinfVBsYcbyz4DO2wQSZFv0KpqPa9/2WZLE5J6AlVFd/bFR0And9uewV0IHzpDw+6OR52JqhOj8BElBxzfQhKypicGytSaloBoMQSvGiXUw60u3b+BAZrHCy33jyC4pFlvdQiDTK11qivWB8eFs0rt3DAV6PW5vaJvkqsG9XhB8k7NGY8Mv5sCSBJQ7oxPTUi0aUBYyWIfW2m0dRxBUD781Ju5IRf2xQCnTE4yScFsCZFMGUYco9oKwsqUm37Z+MNVgBa1bOmPIMes3V2YRC6CgWaGYUB564SpXkgSaoek3UFwp6pDFguPoWzbGiJZQ62YT3o01VuBWZEJBPF0U+Ms3MDjBCVEa+9GlmFHZEc1wE9Q8VEdb+LpxKZYT0wTnIun1ZGIpcVDTPnrLsUOYSNzizuC1OmxCxVjAPsweMSEezTib8oSOgm8fNQ2xHIo9muJW+kJ90owgZFwoZtrSJ4ReJ2xm1tz14CRrrypaw5ihCd1sk4q4jyiWFtukoem9F1HqzwazFQ4jVBiHKo6ilsNYeLyH3el54UePYXUWCY/3MG9gcrnxNBtxFqZoLAqPmxVr6GZTuTQbM2UODZsG1+aBWlNWaWDgZCWtCZhcj7KyAvAWU8Kspsu6Ejooq9sTOIG9zI1bBfV0uiyHvRhVux8hF2ItTM/s35Oo49tD72dUdbP2I0i171WRaPF+Syp62YdDjIc18Kv32ZFLuhitPK3afe8EaYh9JZcdDrLJtpSQAPb+KpRMVu0e9Npc3iS2wGT652GZ6ck1LMOIV+cBW2+RkC2rsChiaDh0rBNfh3hNe90Q9FKsLLCj5dqTullbyyGL9TK2Qw6HNg87ZMzqNqt8G2x9uz2zrQ0yRCP9aPYMUjZ6GG5iSLcaUU8/kIQaKrVzgKklRSx2rq1rhvbbE9BM7BZ2KMy+s1TMdIYI9axqMXLfdLyrwlPCSqMiITNE+8CIVDdh3NeJwkZZ+Jm7bRQL9HE4dEs+lRoFPbltkwkbymBo17A49ov7/ytxr8Y04wlnUqTGYAaLaRCbyRnRad0EZsa4w/5nFffsXG4tOsw2JtDCtDTNzOhnTaNJ3X8hW2MWTbruZ1J+7fXGbxPIRxlTJV8sA59WiW7Oilx6w2Bz0QgDPnoYEvHgEPSlLvjkioIt3NVHSSw1jDBxLzQRU/Wq4n7fB7L5etY852CinIiWihbtjMmx8pdgwyIN1JUHapsOqHarQn4HRzddx42MYWmnwh6HLKQxRY6EBWfVHIjBFIXV/KzIEVK6rBn9NPeRqLZx/SNV+uUqTXsC4buyBe8H4s2bY3KYuyfOUtdVwoLzqU5+Z9KlZi74y97/yjLW05pRP4R1ZMebnPzYJlG7TPazxYyaDizuX0C/94AR04R0U+zIy2EU1PPCcrDoJSETuDRnuGxlu3UYm/HWQGj+LGu89FEP/JWtoWQEA4XxLPYNE6P307is1sUOuCnF7eJj4G5p9msV/Ia9D7JKi0mEX47ke4SJuA6zcaqwbB3WgWZOxC50Sx3NgcI4YrpiCXS2BJrxKnAZicelo2MMM0+IdT8zu/iXHT4OUzRD3L/s/a/yA7JKg52m8NhF8g0MDQaoyyQf3YdqqaPBdd6vGoE3awbzNN0Aw9zuJYq6zDihUEuUjTkkmeEUsnGHxE4tNoGt+2qEy+GAMxWDOBydu8I178Yy2JoxHEx47BQIcWj4hWo3cARLJ5BV2S/LBHGfnmCfMVsDn1BvoDmksvqwwCC7lsM6P+wrSvVtI1sKb+GyOtnTvHCnnc03WqjRNwwNSM2KiZ1tOqg101A/TJetzA4xrUB/MUVyeOym2DHXdKkZuiegA26lQ6swS9ddYocUyrCORotpboa1DlzcKW5YNeA6WJUGP18Xd7c0ppF1YTR0TL2ic2Hcexg4dE8gPt+x1EicfOMiS+NP4KCaplIX261WNHlIQ85sacjriTj6akIyq/LwSoJM3mfpEEkUYbxYGE/jM4j7QB99qahcHCgfxnGxCnq7Y6oZugrfh6kBqZBL9ASjhl/cYyOuqCQhE6LchwH6FpO2jqHO67pYangScvE+/O4JhglZTFJ24+0uXiVjNds+EFLQW7He5KYTL3j3mxbFWKUhmALiwV6WfgNH1nszttqFMbKejR52cIDWOMcikcrhUzUSOYjQrAvnqJgMbsWyNAWLONplAdp86mQnGY6RuDVds5bSLO7DaTLrnoz1AI+K/8CthZr14upMrh5ITSteRffYECGH8oTmSLLCPtAwHH1F6d2WpdcahymSWpWjI4TEmz6MyQC9rkoxriinalVqMMFXX2okRpaRBZlnmpCD10irJ+/DsKqP2VmLTgu1DDzewzqsTEZLh1VpGgite/MUtxY9UCdrmpPRobGsl340mg6WB5odI4l9KX4pkpDM8qsZv8IcvA5HOnRNsVY9k6mQuhEVDS796pdRak8M0DardxvcMCEqei1hQWImyh1ELrHd+iKteA+qcbhIgv0j48ZVo08bCeOtN+m1dYLyaAKPyRObCeOowj+ET62y8QDgdiYBsiqb8Y/0dWp+rSEvTlh0g0mOhCHgbuXN+yxhU0WrGN9aFLNlwyY0xi8tSwZ35mj3rgmD0RTFqjOZ13ncWsacLVOAx4XHO/7ZsA6UdHmBLd70NGnRUOOG3MQwRbW0Dvetm9bQc3Ls3hG0+y9k/tyA0Blo43G+wP4wkL783uCm5kVZtkZy2VK1VDIxjFR8LLY1jC0nXpItAYWrctfmbsjNcXBehyVdmM66Nys+TrhxAbu0/APKpUuxcAcNdAOO4HL/ZtZMZ7LpVpTNrnMlSkB5DLmJEJJkTDPM0tKKeuwnVEszbie+olHeZmo3w9FoyxT7REEWStEpghjvvSw1hX1jbKcPVePdWkGMQ3563mVeKSDlrWm4N+4wstYAsFKMrCn0eV7cJWQofilUFsmlZS5NYTCpQZ9nY7iqQarmB8z3foL1vDq4ZfMDgfgeiqfiYxPGhyzNsk4nURFET7DTuriAelWFeq6BEayV1RJY3CJ0mcOxGLMeq+7BftqHodJ7ZQxITe/Nwbz806zKyNJwDkXjGhPFzFhWFsjsSFFHaDEBjM1Y697ZuFVQVg00K+JbHQu3141M6UDbGc4YMbp+RS/uCmMdmAYXo3U73mHvk/lzmXs8EAbTHDfDIa/WNa0zDp1Uq5G1MM1+M2R/kLWQNXPdEM6QGRpBBIsZIwp4qOTri1uYGNahzyOUx6j8KGFRLVV7QOaUpSHgzoq9GFw1osjMvaJWJdPyFEMMhgVFE0x6d8405Wk0z5wBD+4V4alj2ztXY+ZjGhLnL9xXiuLe2UoBGncWfnWa+ZhQmau+GeUZ67jgSjbCDIqcpGL03BfzkFhRd1T90Tc4IWFGHRcMNVNXCXvmJs28NsZgeUfbfTRIAzmJdptohmZDSLXF7XCWlQIwaCtunBH/UEygmHvcMwqy0tSa6dxVpYwbT/HAQ6K0wQ3xfNWIGnrHDEe9I2JFtvqmWZrOZI//4qp76ul/cdX5hH86rrpqUbgzVtrqsvAbDOARnDbEjzRvsjRozYy7Qi4Sld1eiQuIinOHZ25rbSVK/cJldXupMYgx9IOoLE5YhAYSW+Ng/lQjAu7oNGVLpDb2FJNRHLSGJlwaGjlpFS2yZDHjMB3YXhIYTCv40dFjKekE7nKli5QxSWOIk3Yh5nG/kCSmWkJBmYrx+bGgfLVsfFtU7N82bFEbaum0lE2gDbxv++gpnx/3GstFQcONgW3eTqNzMUMelgq+MLoUO111AlERFWM9DKpHmmC2fZiIzH8s1yfKo5n/WHnhuNjNiUn7gW3cOrmGr8stR3Uf2olIbtkERJFd2nK0d3SZWjba+o6Y+HaZqT7ZzLVedJ17ueyPzvbR5D1E3CTrPmDdV1F2jb3TFAsN216WNaFKLIZTiytKat1wzI1t+2BiNLmE98Hyro0hKsUFWUNrKboOmoYj7yHsAGtgQ4HHbOzEjcPkN9zyCYvSs5GwtYTOwKvh7ptSPDR0kthP5XLr1LV6unLlcTRmNXZVSogkS7nUyb0Wve3VwH24aazFE7xzF4/3zmA83trd1ENRsMqkoOwkCKZFcQ7cltYJbeEONGvBNbAE38ez5vHxheslbfzF6DQdXyZXS2qpe2EHoKumLdxhqdv7ZC7BUHFdrkMnQ4mI7b+QEvSGstym85+wAW3W8b+7AS1Fbv/VgPY3rOo/YwNab5XOLHnJ+N8yI3C2NhMVHt0BaZUsk1GYJmZrZImQlMMqWTXIy3z7coK80jj5tfoN3PAtGVK2MvGGJ1cqO2B7p/PSJ2BHrKzZmDL5LGWNL2ytcAip6BMqc+fb8S5cfp4Mi1vY1d47LUGYU3/lqSnZzEX6yXyRV1+tr2xgwWVsIUARw5w15J4zglHi9+SKMstFJLk+C4G0MLOXh3qdaWIWIGTE59MayUEOeYiJmjq3fDKwYmpolhcLFyRmIy9WQp8KWoXFgluJm9ZV48tN7AgH2b68EpfAVCPTSUxEU4eRJSCyti6j98HYc/OiBQyFNetZNTigMoyDj1k9LqMGZc8lqyvCHRu6RbWYPqybQp8Y6ehVXTVOFnQDmE80kroj45iguanwStz27HYCFprZGyUuCO9W350Snjlf08Qta33ToukLE90VEy2UP/djlw7M2pfmntOBe+8ySvRT9ZEkVRe6bAEQ0PGHYtamFwEvzjJ0L6oD7wQxmUO4WEtf5tAzbp7BNIBV9dlkqgYDMs5Tjaky7uElGM2o5DCDN4xzPC4+XJrbCVj6ZW+UuAGWf3JiN9jXNDHNrW9aYgpxPxXhth64JuQJhYH3SWMLMYF7qEh8Mx3KdSyNchJezcTjYYI52qcJyZpSFK7/NKL12AemV1220wfDZZhOoMPXrE9YyojUb5dmaw/fEEFZfyW2HospEXyCcY5HkIUMWqOITZV7bC3NsCVGABbrNJO400xxqTE4O1XU908c7y+WFUncxjwbEVZiqt7cbR+YwiO7c8Ts8nuCJGrSwqrxAOnaNyDWs2ryNTFPw3aDVT9MzvwX9V0Scyw7mjRxuX8uWjwQfcopWFAVXhSRJXK0q5ptr8jSVxMEU5WYMvkmWFD5aHQz0CtC1XI3YXyYYJzjITVICFi4OnFDq2Lo6lTQr72RGuWEbevmZCCQzPBCYdHDR1dr8JaYLqxWC9pwQ6vaTQNxnqouTVGnC93tQJxnnXCgFtILxIWKzUhoF6oHrwxmisEIMKjdjbQo2ZiA2ZU0v4rT2d3KxJi7rJvCbUjlF36VAFTYr3L+T+ZtndbWhDksutLyTXRLelFDj/2w7t1rmIPMEdhciT6MjgLN+WZVfYfxliY4jL+sVoBtyKnqg9sHVeuJwandwP0L0Slq2EAti+FyofFVjEosJQ4DN3OoGKdZrAQ9cdWjd6Y9uJ3Z6gQO6iw21RTmoX+vOraN7UErUklcPJeTllSFXU4JsKWSPTFlT7KuT4lLDOMTP+/DKaltTWtywbRIKorTjIUm8JGRu+bDKhm2Oy9OpiZ9pcL0scn4BMNjQvSC2PGRVsTxohEKAxanBm32+I5oDc1PVyb+Vptlj6fsWtf4dKkc27XfL1zCrO5m4RBSUw1SMpcXq5MT8omMOg1NFwYFmgYv3B+uq4QvTKk5lEs4MznMNHQNV+bvCyC+QebmcClrHDIQdjTBmL3CkWTMhYoJbgmTxg0ch+yoNC0ktzDdmi+TvodSzWSRncZRkWLhLBYsURpg8S862dlIEBPzPWVrrLYwvblvytKoP2V1vDDgEMtqav12riOYWmV2KOu0ngiNq/6zwXuR/qdWLXkpmBvc1qYAfZhnuU49cxdaCM6le+GZjpKhKeMxjm0Q7guhIm3oeWOgZbd2cMwO0C9Drp5a27p3A1IlOqpqVo3g4d5G7QDsvfGGyNwK3gv1vg/d8vLn92FvtzY9z4l5Zqq32OQyHYsfNkxrVIMOcyVgoPE13HBwL5e6l3igs9VYM9Lbi4aYlXMY/Qu76+sGv8FpdOWC5Ha81SibGR/SNczI9ICvzj+/7ffHjUKi8xn9+X7P+RwWJp3orQ+jjuV6qmAR0/Wk8xz01QpjoKT17JYyuNCYntPiwmxorUtxz4lJvOdSHRyRZ/rmadGDiqChaYcuFV6levNK2IXXs9yJz92yBNeFgmgMtfIXYvmiV4EebEQzeHtmzBdEQ3aLM5LmnkZJgJZfsM2rZkVa0GL89yxYnCwJz1AzLj2m6IkEvSoaZMe0BGY9EUArjPfUnELWPzGXppHRJmZDt2pwBsN0v2KMBzOvmKGpw1plJO6v4+UafB+b5lG4E8cwVoTMTY4uq9VA9EUQ00nUgykGDfvOfAXTPDEmRJhGGto4yHYZUxjqpWWGSseQ8zLEYsf7tcpNHgvWZ5kzP1BjLOseMPj9vcUCtll59Z96MzyINtMaeE7MoywDgi0uASvWjgpz6q8OXa/x5NlGryrLo1AUb1lkOrGvuowFIZ5AS3SesP/jxz/+8t2v//Pn7//2t59/+emHv377/u9//uGnb//y0w//+PufPv7083d//PHb/X//Bw==);lineShape=1;" parent="1" vertex="1">
          <mxGeometry x="129.14655337015688" y="750.3407443620356" width="104.16358684624242" height="102.17643083852454" as="geometry" />
        </mxCell>
        <mxCell id="HVyeGtr5qmuluz8HAJte-218" value="" style="shape=stencil(7Z3bri23cUW/Rq8LzTv57CT/IUCyJdiRBEnO5e/DsrL23mvO3oMWECRGcN50jladbjbJusyaVfVV+cMv333907df5euXX3/+8c/f/vv33/z63Vfln77K+fsfvvv25+9/3f/1Vfnnr8of/vjjz9/+6ecf//rDN7/9+aev45fxX//647/Fv/Afv8nN+UgtpPL1n7/9Tboe6frb3/zLbwJ/+f6HV4E+XgXSY5LAetT0KlCfz7wVWNcj11eB/hgDBNLjWq8C65HpCflxlReBnB4d1rAF5usr5b2GCgLlkV6/Uh686PJYr69ULl5DfVz5VSA/Fn2lLdBfBdpjTnyl/vpZy957WnR+jNc11PQoBTduvB6+Wh4z4dGo81Wg4xP24SuvG1fnI8Oi4z68ntZ2PQp81tkf8/Urtfyo8JVme37EN4H6KPRK+6jJE/ai4WjM/LwubwLzeUPuBdKjvm5cW7gP801HPAV6wq805qO8Hr5eHhcsegwTaI8LFj36Uwu9CQxcwxa4XgXG9WgdBPYLvG7cKM+XvBeo9oSGF2jsjXs93vszdFr0PmqvFyg+dEaBa6jAAs03tmJ8VTNj61Y4S1sgFRWoJHA9ugvQZ73UZMUrgRLo6zGSLnrAK3XTGlsgwfHeAvpZx6PCPvT91eWV+qPRE+Zjvt6HOEssIAZlH8cBN26vIclOb5sEp7WbYd8CmQ5fUqO4j2OCjdsCS5TAQk8gXuBVVYYSIIH66K83rnfc6fFmb94EKmuNqd5M33aalPH1VIwfdGsjG5eeJ+dN4GCytuoVG7dwH7YFqq+KrA3UGtvGyY3bJquSyeqqBLZRJHU/t2J8PRotPY/jp36r+Brr6UF95jq01ydsX6OSk3jp4QtvBo5G+K2vG7f9JbpAW0Dc0LNHNl/3Yft89JVWUTVT9jPZDRU1kycaxdX0xuW3w3Iv0FUZ532B6JWaunD5er7kZ4seFj8keqX89CHfBMbT9f3saKxX3bpDmkbH+81mvgm0Z8zyd/qtiZXxvnHr9U7vOI5MVvitrxdocdxX1AvdVhoOxvZay+sLzafr8ZmeFD96Pg3YvSJeGiUOtiVDL1vF9YbnJWHrc0GfvY8Yt+vpLn7qpGf5PR6hYteAf7/tmOjsR6OwpD3j0/fvSfFn2AT5Phd6MPuENjmh++LTGw01hPvS0BbvS1PllfYmkhFZz8Drg2qZHH+KAs7lGfN+KiD69KgpVGCxu7DUcpY3dOMzAQn2Sn9khojy60kt67n3n21cEcuZ0RuOo/H6hFpRxe/DJ6FYHY9E2qg8qtjmydchq9tW2Vfd+kuAg9rYbUt6+PZXoshqv5I8Ye9DpSdUXUMZDBw03bhSUekFWiIezMV3ej6NxgcgrTHcKEdj6+2LcLFLY+ituDNZ/zeo44PWoH3Y7kIXRdbxKzlUl+rJ5VnikLRngPmZU6XKeGJYv4bCjfsr0QUKAdm48jR4nwqIYzjQIIaA6FZWM3vRSTRfQUW290EMynafyYfZnqSCsu13IqAlMwKaFYTaTyD7EEGGLHqwX7XUb9tao/MVlbO0w5hBTxga7G3tTQDO7Bp/RihGT6jPqP+j9mZ1L75GwL5ksvITZ/sA+xKgOW0fIsIlfHIbdnlCR70USIPBvo2Qt654fQAHBMrWZ8LgA5aBCGhRVdkrao3AJ1/vQ29oH8al6ahAfOBoBC4mAttiEMw1ni7hm5/L9qFbhLtXRa5Dr6rIRkFvZn91CcVGw+xST2pFR8fjHfi/PIG1xj5qVZ4wUZG1YWg6q5nWFImeHAC1omuIEIqekPUC7VtOemnriHGpAGm+7RLmpAJkFLeXKs5JhNX0hPa88m8CFbGMWhSJfkf77gWyxrnhXMNnrZee1i1A2rtMjYxPAkMx1hCANYRVzipAvnexfO5kw16SejMhAK+Ul+ZNIsCGz/ruHX0UgLO043nJI4YAHI3tsF22D5T13sGweAJhiOErbadz+OGDRSfTGpMT8dsPFt87Ijv4Sqmo2d1XtMNXSlnTUaE1SOCyK5rQAk0N4w6Kb6iF27qbEjlLndZtfnDXLkXGt0ACR2N/IjWhBe/nDnfUXhUMppPFM9tXoURoWk9P54MAaeLsa2hPfsRnt0eAmcg404VumoWPnCAJ9JuNJu7O3mnNCXIeZ2sxQUHencx7gayB6BYgNKrU5//+6DfA4S79xm+gwxfWxB0NsoiXLXrhV9omVC3ihRd6Ry9JjEPCQLQuxXK3AOU1m+sYVkrbWSqmxdDha09E4qMrQy7lNPNTEFzawYjopVnQaY08aVIBWkMvmscJBIye0NRTn4Wjja4I88Ga7GhDNd9CR2MLSGppvDGSPguAlA1ROXFyKVtu/w35oCMp/tvfsrWfRX1N4srFdKLL1EzC+L4b6D34tPZpXIX6xDo/22mBHLZ9oK+0z1Iz7U0p7/4GknxUxrSGrLHxWJhqjTDRAiAMsZayIcJ/o4hpPL21Dy4lJR/aG7r1JrBNPex0RH3yhIH3IaI+8RAnEmVaMqd14QXaApIpm0xYirhy2RPoK13KlptsRbdBEddhC9DxrnaBJqdPt4BqvoG6dQtoTNbxK90IcNQXryQCFR2sWLQc74KntZqDtQXQ7F7qVc6MTILmIVbG2HgfbxegHGeriv9uX4MguNYNBUmYZtqeQLeABo3iZZ4xe2Q9K84S2X9SldXIbwMvUDc2RDjrZKe7Mf4qBqLbAil79IBsdr0Pg/Mhe9GKqCUmIRbzWzkjvw2KoIJx4+i0+o1ruNNtqHe/1QzBJu/c6Q+ajw7fvg/qSq+TQVHiyxv2/9mdFhduZSQh1qVMs8Xc/zrUoKyCFPIdoQiitgWIwFeNpL7Yla5ZlfF6I6B8FpZJLmELkFcZ3Lj5uwSMQh4CsIYdvMqdDgGKdos6WCeBpOHx6ZUsaDosOk9l8a6Kiix3TQItRtSyga2RJiUYsdgTMnrG2Xy+uECMbIq/tK8oJdiDcphUALGZbBuXeNFZvfvFGchsRUyTE1k5maqcSMAKAfEEBlLg9iuJFQ2W4QFUGypAQEh+y698sA+4D+Um4CCu8xZQwLgi1BL0Esu4kJ3e92Fa0ISfdehZCgE63sugFhYolpw+rKFki1CYoVKMShHOOuN8Cqp13LgyVGvMjp+1eAzEOc6aFHWIoImMYnl6Fh+uKOX8a7OztDAA33ZaQvy5MHVcpyYUt5qhC9Ss5G4rMso1b/dHbtwWIAvULP29Mke7TaOslTliH5qwWOy3tqUo3MHB2hGKZI1CgMKB61kE8lEADl+40rJxBRnhW0AI3uHzMatAvUquxuzGa9uuA93pLaBfqaG679l2uvOi7wSoyPXmlQZjZL7oyXGcf9aFWZqbjVvMH/GjwRHKzeFbWJO074MQsNLFbPUA+oY9grRA00eEAGcsJHqNVRPsYOp7LYzx3ylgHwQInNnKtdgaKCVfu1rFfZioEL1WjY/XwJC9FovLOlK2qp++jIUkNd+4lQQ71Gq43cAbVD1k78gBrgbeB4rA6TJnayCElQ1wrYj2NwPvtwClOPZ9kEqsWVCTtWFYS8EUeFxqy+ARtB413lkFCO3vVoIyOZDr1XY68ROqVkxP9k56M6oQgzNbwNFNrAXuRuRhOHQLaNqSg9FINdlnRQNh5O15cAWGBXJMs7kVQIfpjr1E+YS9aN3pjnhRpF7Nvac0zRZQ53sgfzYSckkFCFp3WHoyM2cbalVkA73EYPx6yE6WvVsgx8D3VmRiHyb3WWjGiY/MEefXsr0S6aVqlbohQFGTwaEhcCBs2KLRE6iasTgJmB96EnBlzALFCsUOiy7TlDF/1uJ2mnOEpVp8PLAxQ7GKpsPhKwatT06iRJGqXSBysAKcMb2EUGI3vmBHTlWuli7jqCkbyhzamzCvZE/ITLdbipRP7v+SphnFC5O7QeizJh/Enktm2IPbRgJF1xDsOXolq00Ihgc94dJE0IGU6G1HMh7WYSnFC0Ombt0xFuaO6xNPfvt9R3NVVOn1hgyvbK0x2GO1wrvtkRKclqzTEhvDopSFYJ+QadNDvX+PDrQilPt9sJBWv0/j5lVLE17h4tMBTUqC3Q4HvVDKChz0hMWVqVpXpsxU4a571rlGb2sWIaZEEEE5B2sv17knxj5GWibVscOX5xyihogUdlV/pPNGZyuIe2/G85mVUsLchVF9XmqaBwdWkUJoKkCYUthyESi4higtNgYF5nOb6d+GLMFihYlB6qA1WAg9jl6blnpxYeL2CyX8DPYyI0QaY1yoVGvT4z0TBunbe/YgHalg0zzPzBwNKzCYGauTb+CYjD5Vs0r3EGB4Ut08hsUCjjGfioxV9GAyKINyP5FzsJ0+JCnUGb44/EyqZubBwUgGWiXmeHvTlwNYYpzW+KywDz3f8NQR4C/mqhYGGordOIb24glWV4UN7Kxh1+xMZ8vqPU9uoboFdKcHWtHuuVAO3YKcL4dv4sbt+6CnlRv8tGkRMYPprRu3+MDLLVqYuC5mdmXtjxGkDlJk19OB/CBAHSCrNWdZfEVDezsxhbS38dQjAUys2aL86BAgbnG6IddQlXi9LKmRmBswtbw/BMjXMLRxXezNWOZ+cWegUoz/xu1HSzJ22oUmq1yaxA5uAPmtQ8OB6HfEfqsEHJH6ISgjm+abyFlKy5p8TXylZPUzoWYoRrQg7oCjJWcUDQTTUzLXgRubpMvYONx5cN5krzBLbgXZXF1pnb4i70O3x+DVC+Niqyg/NKVNeopGRyTzMmI0U00vY15ztd2lyY/OlOKkJYy9MWSo379z+qZYhMvarmq91ra9FAE03d/AMbAgWUx/61hGsbQsrw1kjadLzWzjXhJbQOPngmZ2KQMvkkXUT0YTn31whs5AjImhbdWIqi9m06mnM7jiwir/9++Romi1bBd6g9l6MbLxS1ZtcaEvaCmkvvgEqYPd2ZBdil1EGSbcyOumOTk58JcWE/aOHpGBL53bUyTVuFELghpXaLe9ovNudr5zJW7RvE78nhACPQ+BNFOFqWnojkZ+qsbq3OItTLZ80IWJ2mTE/nGhjUlWezMSGrFoGWdtiMhfDOhVzGRByO+97d0Hu4pJnaWx+OCm/nHu5An9VAmgdb6HlghNwaxx4Lgb+WLw0chTjdNgEnBeVkm8kKcfkYH4fxcDo8W86sRVJe0GzCILXjyUqOiSFus+Hzx9wjkdI+RK4prN0e/Y7awWqzXo6PZWO0sHv70aSTJeiSLlaZBfZxbZZfvA9L+WLX7iNifNz1LF09pMLx3ISK1beMMMrPBGrfoTn2DqfnDQ2PyKdrRX3Vj0k3GdZv1p4ivRPgxjkVXMXTjhdjZsV793Wo/GwLCiWZwzeTpJHG8DIA7MUIWaLoSPa9VYfKVTtzPRfIfSsugeY6UDmEOammmLrv1wlspQZ29xQ/zSTKAgABHdzqx0gNzVoNn4E7jqUGszC6KQ2Rp/nZ7Q9AKdBBy2PAh4xd5hDZfqpZVRVaY72BJ5OcMa2hziHhuzNA+BxjQwizs+R084S6eQ650t47kFCHrN3pSHW7XkYXXv3D18H2817A21d7Fy0VPxmqcXO3KLyjR/iRM24S/9PgpjtjYnE+9DrWbjOGFTrWv15Dll21/SxpATvcpo4GF8QSwEsFKaE+HWOtwGwZCr3bQr6cB0SrvjC6JzYmDSodTyHb37IECcm2ajMaK5Jb2SxUDB9qZXcspA596t3iFtcCeipaDn5DiueYPOhZhVm7rTkeGhszQtJZSYxWAlrytx95hhtWiJT6v1dlkcKcZptSfQnW4GJkdai/sAK8V9HQVk4yYfb2vgPHlYROs3+Xlkk3RTlY1T1ebzvY9f+UzAm+5ibtuGdsyGxOctoHaa+5O3ZeEAYzNxRa0zF1nRGwrN4leyTsOLaXHN3J/FZKl7AbpA9caVxsJJs0CL3R+3cSHwu6zoFqAb53Z6Va4hbDcCBD2Gr5FVAJtQe7sZnm5YrxvvHuO4ux47dPhKU8Me4QD5fNmKPzPqpbxuiBWYlhmqBA4WKJirZuMOjVSc9oDhwGXO+uK+KBaAR/EnLdriuPfxQn9npHgSsFj0JOBtrg8CFk8fBIrFoicBZ4h1pG4UGxo5ecTpTflQR6NYbHzXZLruvtNqRRk+rTZwcTbu129Nnw92upr7Myv3FPE2JwUD8LqUsz95UkkMMpELdGEZSqs3A3kJKA8n0QgfFMd5l7fAWw8NCyTp0riWMxnfvWI6ITiZ3gAQvlK36ph5ndq3anPVjKhDEILtaGC06yBzO1EsvQ4SQeZu3ZQOzfOaunDB1KNXsin1K5+6sUrCYh1mcCxNTi8erXnTBoJrWGrXFoOLG+pXK6tZ5cTJlIT8KljQXW3a5KGhTVlKMVkZF11sTEEMViMHqyvktbiyoVS7QDy7fNu4ZgkLuqKBe1tKhFCHIBKZUUTG5LCydx6IlNtNhzQEaIuhcBW5Gt7a7gTQXuaccDohTVt0xkgxeSI14calZkfj4qEd1pPwYOOSlaSMeZqq4bMW6Ipa7DoG+upDVXFwKSj8thVXdLyr/fvclev/JScNOVeCvX3hpMnv/9E4aYJk9oznpyo3o3PBl1Wf9MStyrSRdzS/wfsr+FzvPMZE0YW+2IBrrVcM78N/X+s9eQCihYMHfeXFm8y5XUorGdyXLRS0WNYLsx7JO7Ry5UwqBtoy2p6cw3E0lOp/ZC4Rt0GAB+ZXdgJRYZCqWhvOwoS6YcVtFRddfBhOZcuULcxhMlox2uH7ZOTPsL9sXhoqIxsvMhu3ezFyZtB7mFDnTdOw7U66eyWek+TN3bGWuVlytWHlfR1PAsbHjaM13A2gIy+tWS3JgWwQrCnzlrG1XLOzlJGi1PxOJ04mLW35PXkI95fC4afAl8JhF/hHKxzuNihgTtQaMY/Ewn5KYjSb5RE5CUa1tOvgQpTXUa25uJmjte081G5uRaZnicGRauyEyYP3qpdXTwx4qiWT4mgcBu8Z6QMpSsmMIifqo2maj3FlXpbqpcPAhm6vVDjr0cyr5M7RpRjWwVnAqCcwcAQLEIwfF640oVrTYoeJrnQ2nuIYGJznprmhwSPjI5yxZjGH+Qs6jo0H+mTrET44AE02XW1HWBgODEWqR0KTlawj2LgwBk0G8vSFKYZUrDBqclu2pBcoRvFhaaZ4cNGLFH4/rZi24wgWc7wDxiA+hh6LXtGTKdrxoTP9u2l89Z66+uT34h02tobdYKQLWyxak7IDTGJ5gn6Y1GvOZ2+IayVruhHjJzns1gZfiwv0jVA/Lm5/aEo+ZmTSKxm9N2Zksq7QsjTO/eWkFLSt71BnF6tj66iNvEh5DJ4G002jrlNRgI6qu3juj08xZH23TaGPSMPbXG6CMew00m5SF4c5J9o5+dCZbVlfY66fCqq4vxKTq5QxcGwRo2nhQ4uYZi1NDwLdutIfXmneYG9YZXYZVZy71vhglMPGRbshfwIogegZb18JqR7DwowDO9EZA9yCM4yH9QKhZGFYv98HTlQL9w5PuJu+jbyKL13p/1vgf6ErPRzvL13pnwLIZGp3eAmDRLqGeZoDoXqJkYBuE8TngSDmHY24dVXzQSoXV3NUYwElHjplY05W4mqOpBHoYYphzDO2ylEiuVXLeB0Yx9XaZqzC82naTXc5JEw6kylhfqn6+ElGu53OGOWyZHZ97A+Xad4MFmK6ys3oIq6vvRmOxBQ0n7+0MuPpX8aL/U3gy3ixv2fj/q/Hi3l3hMWoUpTW+XQxtg83r8Q1YDnbV+IyHKFnLB453izJHDt9CDimCuA0SS8fPw7aUhvHDf9rM5PVeV6lkb5W55Jf56E2RE52tKsdVA+zT4edJeallHZDvsV2fOVmXiW2+rSk2qHQp1xWZcY8kDytWOkgMGyq52HEcrsx7OTofhni/HR0f/8QZ1rDlyHOfxP4nx7ibPHDoYdE9i5GjZ8wjBLBrZuyxQ+H0UUl3VRzYOrRpz7zxORSbYjzQcCbHQwmBU9j/HB4HPbB+Ad0+Kr1oJsDQ8tajG7W0ZupTgbjZgfbTiuoxjeuenlg41mpdzQndLCybRxb0WaeQBQFMIdCi/cOAxW89uhC37tZKis4/oyGis83uMFVuNLeuZi8+2J5oIahZbfC6FHYu++qvSNnzKCaT52icGB4O+WMUVbw9K1NJJ3WbhVagxN43aagz7d+nJ/ifKLIDtGulfHPyvtQbpqwYF7aEnizM6J73QxiRMhrGnVxMDmy3/SDx64tnvziIpnQGsZawqRLMoLnOpUH6j4chkJcZh8Wf9bL7PTEkZt1mQs3uU2kpzl5EGNdVknNtSB1mX3o+JVuBNoJ51O6GV+gWLTRL7Eh6NKwbDJ82i6jm2Vut3OZ1shIQmpWMzMzv1K+ydLQaOxWrTvCoeOJl4EdqIvW/GPwkFtvrDT6KZ3gg8Dos/Z8Y4Fo47q1fg2+BsF2TXVr52H03apbtk3CxNGwciceV9ntxsWcOzK7SfVSL5h/GFmPRmcoflipR6/8hKpnqS+000F6kaPB9S3DaOGHGXH7K6nA5LJLq7OLWak0LeG6iUWph0T3zmQdu6t1787MpLw4OT5Khp5QDDO+mM+fTHsvbj/lrf3Y5wu9tHTR2MrMK6kncn+bj7uf/EqXBX6D4dNpBmVwKwIfh9PRWa/OdTgY9mRkIQZzdsSuDUEb463WlOiAzZRmR4NbIRefmVhPjQL0aHDt6Q3UUhiFs4kj56o4bUVwqLvr1o+EiZu5GvSY8T74PN1Dyc1N66bDjAPLgB/YdjHtSV7pQgsUE28NRKAkZPCXxZthNkXyaJfTnMkqLEfjwQ7FKm+5VX5qxlTnAUvJhl2OwZ91GYOWc1nZcorjMCLX2wUw7zmmOdsTiOuQjSwUAtz8Qx1dHmZWkpUo86Kjcbc7J9waXEdjTW5aNwwjm8irLNNmfszTcD8JacahjXC2dv+MGVef/N4Ru6/NXqlzKwAzWVuANq4umwvM/araZY7uoSFo1oTFoVylmVEcXJjUXGtwv6qbOQ2Ju3pZM81o0cEdsXSC/eSuXskGER34Gj7znrvc3USK3J8nIkWbiE75uG6O7nsnsc/iB7HT/cIsjQO0jT/rsLxo45RItIZ4faXoi0rNH2xCTRReU2jZVS815t2HgXoVqAwMvtfAvQkMtEDzUuZm5XL3cKfkCdxoLAqSXz9rZVxjVnWlC7NaIq8kAqz5plX2bSNG3v2cqowL54EikHx9pagZg8O3DALOExmDy3yNzJnXVdWrfO/mdC/QlJO4fQMqmAyq3NBF0314p6R8ECAruqyxQeaxpssyHJlLlJbp1nwhrrG/kmiNzET9Ze06g1RCT7ByxmizQ6MszaDkhRH7MiVQeAzJtD42hXOKkVEXrXGhCzctUqxMV53WXa1y66fg8b8evsrDKabduID/SWtYHmire/Luh2UHWkI7PWzGQeX+W8N8vtp4H6zMuvKAvli0CCTE+aZ1pKjcYy1gD9HejJFNK43ZIQg5WNOGqsVwFVBk07r3Fx7S7gJ5sFFsisJldqWntQaL5mUkUNQ+RC04nNZoAfB6pxN3Z57G8kqFXynpPiRudxc4iQQc7JvYmGwmb8+kWaALPcRp9irxF7I5dfmkJdXNYI1kPIqCkPq04QYN4etlM44H0gOCPCl0SnQ+V1EPI10nHya/fqCUMXpbXdG9xPVey8YuJ+ZFraWxVWJPL11GZjm5GGZHtrIgOGNZ4vt95Ohnq3b/looSljkAhaHiZWP2CrffXs0MD7fqDYdYDE9BOGNVJc7WfnL1pK9E5TGsUYckIWjCLPMyQk7jpMC6tOf4jorJN5zLVOTEBjnvg27eIvuE/JrZlczyDnB8Zgtl0YeUbngM1paSIPugTEjSeGBK971+/gPoQ5py2Lz56ORKGVob9TGYPja8swE37Y/EtzzhgH8UyyLwRNJh8d5gUlGAPt4BmRadNQd8YEcOgzO2AC7aujMMDnKHHY2xMKsWLYldgOgB180sBGzRZv1rxuR+aGazAh9ndqR+1sF0mWnY8gHT9HZODRtGxROsdxJ15Ow2Hnrw+J5uPQ4HN+3v1pdmcJC7z5Kmfy5MfAcIKjDrYOKslRx35sy9U30/IL/IfqmGXjMbbFgmpPFQyHd+8wcbR27lmHqBWkPEMYajS4MjnpQcLV/klRLCSsHBM+QXQ9CiX6nyHIF3QsMHbwY9AZs4Vys/wUqOK49nmA5nXKhmpo1cico6cuEuRYliCipHNEJVL1xHF5wjCeGYlRfDScRZ5/peD8oyt4ONzyow6wG9HnqnE/fWm111a0ABtNNdc8CpYHH5NEpoyoxDNe3TlBJy2x1hSdzIZtoYpXRxdN8MYbnQWZ9Wv8VV0/FVpdjwdKO1agjB8dmtMyXetlAA+u8TV3MapYPpdcEwV/iAaJEBf+j3JCd9ml0I/IkV2Elg/8dPX//63W9/+OP3f/nLL7/+/OOfv/34///448/f/unnH//6wzdvf/XLd1//9O3+038B);lineShape=1;" parent="1" vertex="1">
          <mxGeometry x="105.4131408221931" y="838.6535847863611" width="135.1367573549785" height="75.00397995056278" as="geometry" />
        </mxCell>
        <mxCell id="HVyeGtr5qmuluz8HAJte-219" value="" style="shape=stencil(lVbLUiMxDPyauaosy88zj/9IFYFMERIqBHb371fDlAdkJg3cJo7aVkvdsge5etltnreDdy/n0/Fx+2e8O+8GuR68Hw+77Wk869cgN4Nc3R9P24fT8fVwN/9+3kyR09fT8W3a4e+MY0c1TSjv/s0rIVD27yu3M2A/Hj4BxFOJBiCVcgAAploNwFeSAgCaABsAK8BdBgT3BeAoJgDQ/TrS5EBGURlmE6/7A8rZUQldPCJQmIIlICT1cnzV7Ww+lQKKT5RtCzi3tq8C2DlyzjZNEQyOqJQ6WRTIucY+p1DIgaKWQsUbQEzEQKlZi2KrlJgSaHMqTfkLIBBHoItMyXJIQh4JLzfdLBwqMSirekvEAjwxcptQtRyCkMvQnqXYxi0Ov3RCsCd4TxEBSrP7or5vqpTId1WiCjhPOugOaP5e73NuXf2wpwNSzSrMjjGMLyoL2zQ9EORTQz8hWVcEmk26hAIeAKsANPFSU9kyYVQneKR2ZtOh44Eqgu5nSWuSDl08QqWf8rhvKpvOz3oEMg9ro2tPApWJub9IqtoTNCK2IdriS6II/O+bdxclLVfRarwWxOaTPbTClzGflst3nXDfNB2BHumIkuUbHS7ob58jPwDox8fr537c7+fH0+f/+9eSLs0vLbn5Dw==);lineShape=1;" parent="1" vertex="1">
          <mxGeometry x="181.4093992922476" y="901.5521840454041" width="4.741089098473594" height="5.048591024844427" as="geometry" />
        </mxCell>
      </root>
    </mxGraphModel>
  </diagram>
</mxfile>
